<svg xmlns="http://www.w3.org/2000/svg" version="1.1" xmlns:xlink="http://www.w3.org/1999/xlink" width="0.6994000000000001in" height="0.8747in" viewBox="32.9 14.9 699.4000000000001 874.7" stroke-linecap="round" stroke-linejoin="round" stroke-width="0" stroke="#000" class="Board"><style type="text/css"> .Board--board { color: dimgrey; } .Board--cu { color: lightgrey; } .Board--cf { color: goldenrod; } .Board--sm { color: black; opacity: 0.75; } .Board--ss { color: white; } .Board--sp { color: silver; } .Board--out { color: black; } </style><defs><g fill="currentColor" stroke="currentColor" id="top-out_34"><path stroke-width="0.2" fill="none" d="M 33 15 L 33 414.5 L 64.3 414.5 L 68 414.7 L 71.7 415.2 L 75.3 416.1 L 78.8 417.4 L 82.1 419 L 85.3 420.9 L 88.3 423.1 L 91 425.6 L 93.5 428.3 L 95.7 431.3 L 97.6 434.5 L 99.2 437.8 L 100.5 441.3 L 101.4 444.9 L 101.9 448.6 L 102.1 452.3 L 101.9 456 L 101.4 459.7 L 100.5 463.3 L 99.2 466.8 L 97.6 470.1 L 95.7 473.3 L 93.5 476.3 L 91 479 L 88.3 481.5 L 85.3 483.7 L 82.1 485.6 L 78.8 487.2 L 75.3 488.5 L 71.7 489.4 L 68 489.9 L 64.3 490.1 M 64.3 490 L 33 490 L 33 889.5 L 732.2 889.5 L 732.2 490 L 701.8 490 M 701.8 490.1 L 698.1 489.9 L 694.4 489.4 L 690.8 488.5 L 687.3 487.2 L 684 485.6 L 680.8 483.7 L 677.8 481.5 L 675.1 479 L 672.6 476.3 L 670.4 473.3 L 668.5 470.1 L 666.9 466.8 L 665.6 463.3 L 664.7 459.7 L 664.2 456 L 664 452.3 L 664.2 448.6 L 664.7 444.9 L 665.6 441.3 L 666.9 437.8 L 668.5 434.5 L 670.4 431.3 L 672.6 428.3 L 675.1 425.6 L 677.8 423.1 L 680.8 420.9 L 684 419 L 687.3 417.4 L 690.8 416.1 L 694.4 415.2 L 698.1 414.7 L 701.8 414.5 L 732.2 414.5 L 732.2 15 L 33 15 M 201.8 414.5 L 564.3 414.5 L 568 414.7 L 571.7 415.2 L 575.3 416.1 L 578.8 417.4 L 582.1 419 L 585.3 420.9 L 588.3 423.1 L 591 425.6 L 593.5 428.3 L 595.7 431.3 L 597.6 434.5 L 599.2 437.8 L 600.5 441.3 L 601.4 444.9 L 601.9 448.6 L 602.1 452.3 L 601.9 456 L 601.4 459.7 L 600.5 463.3 L 599.2 466.8 L 597.6 470.1 L 595.7 473.3 L 593.5 476.3 L 591 479 L 588.3 481.5 L 585.3 483.7 L 582.1 485.6 L 578.8 487.2 L 575.3 488.5 L 571.7 489.4 L 568 489.9 L 564.3 490.1 M 564.3 490 L 201.8 490 M 201.8 490.1 L 198.1 489.9 L 194.4 489.4 L 190.8 488.5 L 187.3 487.2 L 184 485.6 L 180.8 483.7 L 177.8 481.5 L 175.1 479 L 172.6 476.3 L 170.4 473.3 L 168.5 470.1 L 166.9 466.8 L 165.6 463.3 L 164.7 459.7 L 164.2 456 L 164 452.3 L 164.2 448.6 L 164.7 444.9 L 165.6 441.3 L 166.9 437.8 L 168.5 434.5 L 170.4 431.3 L 172.6 428.3 L 175.1 425.6 L 177.8 423.1 L 180.8 420.9 L 184 419 L 187.3 417.4 L 190.8 416.1 L 194.4 415.2 L 198.1 414.7 L 201.8 414.5"/><path stroke-width="0" fill="none" d="M 143.9 427.5 L 144.1 429.3 L 144.7 430.9 L 145.6 432.4 L 146.9 433.7 L 148.4 434.6 L 150 435.2 L 151.8 435.4 L 153.6 435.2 L 155.2 434.6 L 156.7 433.7 L 158 432.4 L 158.9 430.9 L 159.5 429.3 L 159.7 427.5 L 159.5 425.7 L 158.9 424.1 L 158 422.6 L 156.7 421.3 L 155.2 420.4 L 153.6 419.8 L 151.8 419.6 L 150 419.8 L 148.4 420.4 L 146.9 421.3 L 145.6 422.6 L 144.7 424.1 L 144.1 425.7 L 143.9 427.5 M 106.4 427.5 L 106.6 429.3 L 107.2 430.9 L 108.1 432.4 L 109.4 433.7 L 110.9 434.6 L 112.5 435.2 L 114.3 435.4 L 116.1 435.2 L 117.7 434.6 L 119.2 433.7 L 120.5 432.4 L 121.4 430.9 L 122 429.3 L 122.2 427.5 L 122 425.7 L 121.4 424.1 L 120.5 422.6 L 119.2 421.3 L 117.7 420.4 L 116.1 419.8 L 114.3 419.6 L 112.5 419.8 L 110.9 420.4 L 109.4 421.3 L 108.1 422.6 L 107.2 424.1 L 106.6 425.7 L 106.4 427.5 M 106.4 477.5 L 106.6 479.3 L 107.2 480.9 L 108.1 482.4 L 109.4 483.7 L 110.9 484.6 L 112.5 485.2 L 114.3 485.4 L 116.1 485.2 L 117.7 484.6 L 119.2 483.7 L 120.5 482.4 L 121.4 480.9 L 122 479.3 L 122.2 477.5 L 122 475.7 L 121.4 474.1 L 120.5 472.6 L 119.2 471.3 L 117.7 470.4 L 116.1 469.8 L 114.3 469.6 L 112.5 469.8 L 110.9 470.4 L 109.4 471.3 L 108.1 472.6 L 107.2 474.1 L 106.6 475.7 L 106.4 477.5 M 143.9 477.5 L 144.1 479.3 L 144.7 480.9 L 145.6 482.4 L 146.9 483.7 L 148.4 484.6 L 150 485.2 L 151.8 485.4 L 153.6 485.2 L 155.2 484.6 L 156.7 483.7 L 158 482.4 L 158.9 480.9 L 159.5 479.3 L 159.7 477.5 L 159.5 475.7 L 158.9 474.1 L 158 472.6 L 156.7 471.3 L 155.2 470.4 L 153.6 469.8 L 151.8 469.6 L 150 469.8 L 148.4 470.4 L 146.9 471.3 L 145.6 472.6 L 144.7 474.1 L 144.1 475.7 L 143.9 477.5 M 606.4 477.5 L 606.6 479.3 L 607.2 480.9 L 608.1 482.4 L 609.4 483.7 L 610.9 484.6 L 612.5 485.2 L 614.3 485.4 L 616.1 485.2 L 617.7 484.6 L 619.2 483.7 L 620.5 482.4 L 621.4 480.9 L 622 479.3 L 622.2 477.5 L 622 475.7 L 621.4 474.1 L 620.5 472.6 L 619.2 471.3 L 617.7 470.4 L 616.1 469.8 L 614.3 469.6 L 612.5 469.8 L 610.9 470.4 L 609.4 471.3 L 608.1 472.6 L 607.2 474.1 L 606.6 475.7 L 606.4 477.5 M 606.4 427.5 L 606.6 429.3 L 607.2 430.9 L 608.1 432.4 L 609.4 433.7 L 610.9 434.6 L 612.5 435.2 L 614.3 435.4 L 616.1 435.2 L 617.7 434.6 L 619.2 433.7 L 620.5 432.4 L 621.4 430.9 L 622 429.3 L 622.2 427.5 L 622 425.7 L 621.4 424.1 L 620.5 422.6 L 619.2 421.3 L 617.7 420.4 L 616.1 419.8 L 614.3 419.6 L 612.5 419.8 L 610.9 420.4 L 609.4 421.3 L 608.1 422.6 L 607.2 424.1 L 606.6 425.7 L 606.4 427.5 M 643.9 427.5 L 644.1 429.3 L 644.7 430.9 L 645.6 432.4 L 646.9 433.7 L 648.4 434.6 L 650 435.2 L 651.8 435.4 L 653.6 435.2 L 655.2 434.6 L 656.7 433.7 L 658 432.4 L 658.9 430.9 L 659.5 429.3 L 659.7 427.5 L 659.5 425.7 L 658.9 424.1 L 658 422.6 L 656.7 421.3 L 655.2 420.4 L 653.6 419.8 L 651.8 419.6 L 650 419.8 L 648.4 420.4 L 646.9 421.3 L 645.6 422.6 L 644.7 424.1 L 644.1 425.7 L 643.9 427.5 M 643.9 477.5 L 644.1 479.3 L 644.7 480.9 L 645.6 482.4 L 646.9 483.7 L 648.4 484.6 L 650 485.2 L 651.8 485.4 L 653.6 485.2 L 655.2 484.6 L 656.7 483.7 L 658 482.4 L 658.9 480.9 L 659.5 479.3 L 659.7 477.5 L 659.5 475.7 L 658.9 474.1 L 658 472.6 L 656.7 471.3 L 655.2 470.4 L 653.6 469.8 L 651.8 469.6 L 650 469.8 L 648.4 470.4 L 646.9 471.3 L 645.6 472.6 L 644.7 474.1 L 644.1 475.7 L 643.9 477.5"/></g><polygon points="34.99992885182121,14.497445212517734 14.497445212517738,34.99992885182121 -14.497445212517732,34.99992885182121 -34.99992885182121,14.49744521251774 -34.99992885182122,-14.49744521251773 -14.497445212517755,-34.9999288518212 14.497445212517743,-34.99992885182121 34.9999288518212,-14.497445212517757" id="tool-D11-pad-1024"/><circle cx="0" cy="0" r="13" id="tool-D13-pad-1026"/><g fill="currentColor" stroke="currentColor" id="top-tcu_35"><path stroke-width="0" fill="none" d="M 33 15 L 33 414.5 L 64.3 414.5 L 68 414.7 L 71.7 415.2 L 75.3 416.1 L 78.8 417.4 L 82.1 419 L 85.3 420.9 L 88.3 423.1 L 91 425.6 L 93.5 428.3 L 95.7 431.3 L 97.6 434.5 L 99.2 437.8 L 100.5 441.3 L 101.4 444.9 L 101.9 448.6 L 102.1 452.3 L 101.9 456 L 101.4 459.7 L 100.5 463.3 L 99.2 466.8 L 97.6 470.1 L 95.7 473.3 L 93.5 476.3 L 91 479 L 88.3 481.5 L 85.3 483.7 L 82.1 485.6 L 78.8 487.2 L 75.3 488.5 L 71.7 489.4 L 68 489.9 L 64.3 490.1 M 64.3 490 L 33 490 L 33 889.5 L 732.2 889.5 L 732.2 490 L 701.8 490 M 701.8 490.1 L 698.1 489.9 L 694.4 489.4 L 690.8 488.5 L 687.3 487.2 L 684 485.6 L 680.8 483.7 L 677.8 481.5 L 675.1 479 L 672.6 476.3 L 670.4 473.3 L 668.5 470.1 L 666.9 466.8 L 665.6 463.3 L 664.7 459.7 L 664.2 456 L 664 452.3 L 664.2 448.6 L 664.7 444.9 L 665.6 441.3 L 666.9 437.8 L 668.5 434.5 L 670.4 431.3 L 672.6 428.3 L 675.1 425.6 L 677.8 423.1 L 680.8 420.9 L 684 419 L 687.3 417.4 L 690.8 416.1 L 694.4 415.2 L 698.1 414.7 L 701.8 414.5 L 732.2 414.5 L 732.2 15 L 33 15 M 201.8 414.5 L 564.3 414.5 L 568 414.7 L 571.7 415.2 L 575.3 416.1 L 578.8 417.4 L 582.1 419 L 585.3 420.9 L 588.3 423.1 L 591 425.6 L 593.5 428.3 L 595.7 431.3 L 597.6 434.5 L 599.2 437.8 L 600.5 441.3 L 601.4 444.9 L 601.9 448.6 L 602.1 452.3 L 601.9 456 L 601.4 459.7 L 600.5 463.3 L 599.2 466.8 L 597.6 470.1 L 595.7 473.3 L 593.5 476.3 L 591 479 L 588.3 481.5 L 585.3 483.7 L 582.1 485.6 L 578.8 487.2 L 575.3 488.5 L 571.7 489.4 L 568 489.9 L 564.3 490.1 M 564.3 490 L 201.8 490 M 201.8 490.1 L 198.1 489.9 L 194.4 489.4 L 190.8 488.5 L 187.3 487.2 L 184 485.6 L 180.8 483.7 L 177.8 481.5 L 175.1 479 L 172.6 476.3 L 170.4 473.3 L 168.5 470.1 L 166.9 466.8 L 165.6 463.3 L 164.7 459.7 L 164.2 456 L 164 452.3 L 164.2 448.6 L 164.7 444.9 L 165.6 441.3 L 166.9 437.8 L 168.5 434.5 L 170.4 431.3 L 172.6 428.3 L 175.1 425.6 L 177.8 423.1 L 180.8 420.9 L 184 419 L 187.3 417.4 L 190.8 416.1 L 194.4 415.2 L 198.1 414.7 L 201.8 414.5 M 143.9 427.5 L 144.1 429.3 L 144.7 430.9 L 145.6 432.4 L 146.9 433.7 L 148.4 434.6 L 150 435.2 L 151.8 435.4 L 153.6 435.2 L 155.2 434.6 L 156.7 433.7 L 158 432.4 L 158.9 430.9 L 159.5 429.3 L 159.7 427.5 L 159.5 425.7 L 158.9 424.1 L 158 422.6 L 156.7 421.3 L 155.2 420.4 L 153.6 419.8 L 151.8 419.6 L 150 419.8 L 148.4 420.4 L 146.9 421.3 L 145.6 422.6 L 144.7 424.1 L 144.1 425.7 L 143.9 427.5 M 106.4 427.5 L 106.6 429.3 L 107.2 430.9 L 108.1 432.4 L 109.4 433.7 L 110.9 434.6 L 112.5 435.2 L 114.3 435.4 L 116.1 435.2 L 117.7 434.6 L 119.2 433.7 L 120.5 432.4 L 121.4 430.9 L 122 429.3 L 122.2 427.5 L 122 425.7 L 121.4 424.1 L 120.5 422.6 L 119.2 421.3 L 117.7 420.4 L 116.1 419.8 L 114.3 419.6 L 112.5 419.8 L 110.9 420.4 L 109.4 421.3 L 108.1 422.6 L 107.2 424.1 L 106.6 425.7 L 106.4 427.5 M 106.4 477.5 L 106.6 479.3 L 107.2 480.9 L 108.1 482.4 L 109.4 483.7 L 110.9 484.6 L 112.5 485.2 L 114.3 485.4 L 116.1 485.2 L 117.7 484.6 L 119.2 483.7 L 120.5 482.4 L 121.4 480.9 L 122 479.3 L 122.2 477.5 L 122 475.7 L 121.4 474.1 L 120.5 472.6 L 119.2 471.3 L 117.7 470.4 L 116.1 469.8 L 114.3 469.6 L 112.5 469.8 L 110.9 470.4 L 109.4 471.3 L 108.1 472.6 L 107.2 474.1 L 106.6 475.7 L 106.4 477.5 M 143.9 477.5 L 144.1 479.3 L 144.7 480.9 L 145.6 482.4 L 146.9 483.7 L 148.4 484.6 L 150 485.2 L 151.8 485.4 L 153.6 485.2 L 155.2 484.6 L 156.7 483.7 L 158 482.4 L 158.9 480.9 L 159.5 479.3 L 159.7 477.5 L 159.5 475.7 L 158.9 474.1 L 158 472.6 L 156.7 471.3 L 155.2 470.4 L 153.6 469.8 L 151.8 469.6 L 150 469.8 L 148.4 470.4 L 146.9 471.3 L 145.6 472.6 L 144.7 474.1 L 144.1 475.7 L 143.9 477.5 M 606.4 477.5 L 606.6 479.3 L 607.2 480.9 L 608.1 482.4 L 609.4 483.7 L 610.9 484.6 L 612.5 485.2 L 614.3 485.4 L 616.1 485.2 L 617.7 484.6 L 619.2 483.7 L 620.5 482.4 L 621.4 480.9 L 622 479.3 L 622.2 477.5 L 622 475.7 L 621.4 474.1 L 620.5 472.6 L 619.2 471.3 L 617.7 470.4 L 616.1 469.8 L 614.3 469.6 L 612.5 469.8 L 610.9 470.4 L 609.4 471.3 L 608.1 472.6 L 607.2 474.1 L 606.6 475.7 L 606.4 477.5 M 606.4 427.5 L 606.6 429.3 L 607.2 430.9 L 608.1 432.4 L 609.4 433.7 L 610.9 434.6 L 612.5 435.2 L 614.3 435.4 L 616.1 435.2 L 617.7 434.6 L 619.2 433.7 L 620.5 432.4 L 621.4 430.9 L 622 429.3 L 622.2 427.5 L 622 425.7 L 621.4 424.1 L 620.5 422.6 L 619.2 421.3 L 617.7 420.4 L 616.1 419.8 L 614.3 419.6 L 612.5 419.8 L 610.9 420.4 L 609.4 421.3 L 608.1 422.6 L 607.2 424.1 L 606.6 425.7 L 606.4 427.5 M 643.9 427.5 L 644.1 429.3 L 644.7 430.9 L 645.6 432.4 L 646.9 433.7 L 648.4 434.6 L 650 435.2 L 651.8 435.4 L 653.6 435.2 L 655.2 434.6 L 656.7 433.7 L 658 432.4 L 658.9 430.9 L 659.5 429.3 L 659.7 427.5 L 659.5 425.7 L 658.9 424.1 L 658 422.6 L 656.7 421.3 L 655.2 420.4 L 653.6 419.8 L 651.8 419.6 L 650 419.8 L 648.4 420.4 L 646.9 421.3 L 645.6 422.6 L 644.7 424.1 L 644.1 425.7 L 643.9 427.5 M 643.9 477.5 L 644.1 479.3 L 644.7 480.9 L 645.6 482.4 L 646.9 483.7 L 648.4 484.6 L 650 485.2 L 651.8 485.4 L 653.6 485.2 L 655.2 484.6 L 656.7 483.7 L 658 482.4 L 658.9 480.9 L 659.5 479.3 L 659.7 477.5 L 659.5 475.7 L 658.9 474.1 L 658 472.6 L 656.7 471.3 L 655.2 470.4 L 653.6 469.8 L 651.8 469.6 L 650 469.8 L 648.4 470.4 L 646.9 471.3 L 645.6 472.6 L 644.7 474.1 L 644.1 475.7 L 643.9 477.5"/><use x="683" y="540" xlink:href="#tool-D11-pad-1024"/><use x="583" y="540" xlink:href="#tool-D11-pad-1024"/><use x="483" y="540" xlink:href="#tool-D11-pad-1024"/><use x="383" y="540" xlink:href="#tool-D11-pad-1024"/><use x="283" y="540" xlink:href="#tool-D11-pad-1024"/><use x="183" y="540" xlink:href="#tool-D11-pad-1024"/><use x="83" y="540" xlink:href="#tool-D11-pad-1024"/><use x="83" y="365" xlink:href="#tool-D11-pad-1024"/><use x="183" y="365" xlink:href="#tool-D11-pad-1024"/><use x="283" y="365" xlink:href="#tool-D11-pad-1024"/><use x="383" y="365" xlink:href="#tool-D11-pad-1024"/><use x="483" y="365" xlink:href="#tool-D11-pad-1024"/><use x="583" y="365" xlink:href="#tool-D11-pad-1024"/><use x="683" y="365" xlink:href="#tool-D11-pad-1024"/><use x="683" y="65" xlink:href="#tool-D11-pad-1024"/><use x="583" y="65" xlink:href="#tool-D11-pad-1024"/><use x="483" y="65" xlink:href="#tool-D11-pad-1024"/><use x="383" y="65" xlink:href="#tool-D11-pad-1024"/><use x="283" y="65" xlink:href="#tool-D11-pad-1024"/><use x="183" y="65" xlink:href="#tool-D11-pad-1024"/><use x="83" y="65" xlink:href="#tool-D11-pad-1024"/><use x="83" y="840" xlink:href="#tool-D11-pad-1024"/><use x="183" y="840" xlink:href="#tool-D11-pad-1024"/><use x="283" y="840" xlink:href="#tool-D11-pad-1024"/><use x="383" y="840" xlink:href="#tool-D11-pad-1024"/><use x="483" y="840" xlink:href="#tool-D11-pad-1024"/><use x="583" y="840" xlink:href="#tool-D11-pad-1024"/><use x="683" y="840" xlink:href="#tool-D11-pad-1024"/><path stroke-width="10" fill="none" d="M 654.4 400 L 611.6 400 L 628 383.6 L 628 346.4 L 601.6 320 L 564.4 320 L 538 346.4 L 538 383.6 L 553.9 399.5 L 512.1 399.5 L 528 383.6 L 528 346.4 L 501.6 320 L 464.4 320 L 438 346.4 L 438 383.6 L 453.9 399.5 L 412.1 399.5 L 428 383.6 L 428 346.4 L 401.6 320 L 364.4 320 L 338 346.4 L 338 383.6 L 353.9 399.5 L 312.1 399.5 L 328 383.6 L 328 346.4 L 301.6 320 L 264.4 320 L 238 346.4 L 238 383.6 L 253.9 399.5 L 212.1 399.5 L 228 383.6 L 228 346.4 L 201.6 320 L 164.4 320 L 138 346.4 L 138 383.6 L 154.4 400 L 111.6 400 L 128 383.6 L 128 346.4 L 101.6 320 L 64.4 320 L 48 336.4 L 48 93.6 L 64.4 110 L 67 110 L 67 121.6 L 76.4 131 L 101.4 156 L 235 156 L 235 162 L 247 174 L 201.4 174 L 192 183.4 L 158.4 217 L 148.5 217 L 135 230.5 L 135 249.5 L 148.5 263 L 167.5 263 L 181 249.5 L 181 239.6 L 214.6 206 L 264.6 206 L 289.6 181 L 299 171.6 L 299 110 L 301.6 110 L 328 83.6 L 328 46.4 L 311.6 30 L 354.4 30 L 338 46.4 L 338 83.6 L 364.4 110 L 367 110 L 367 177.9 L 372.5 183.4 L 372.5 193.3 L 386 206.7 L 405 206.7 L 418.5 193.3 L 418.5 174.2 L 405 160.8 L 399 160.8 L 399 110 L 401.6 110 L 428 83.6 L 428 46.4 L 411.6 30 L 454.4 30 L 438 46.4 L 438 83.6 L 464.4 110 L 467 110 L 467 208.4 L 408.4 267 L 398.5 267 L 385 280.5 L 385 299.5 L 398.5 313 L 417.5 313 L 431 299.5 L 431 289.6 L 489.6 231 L 499 221.6 L 499 110 L 501.6 110 L 528 83.6 L 528 46.4 L 511.6 30 L 554.4 30 L 538 46.4 L 538 83.6 L 564.4 110 L 601.6 110 L 628 83.6 L 628 46.4 L 611.6 30 L 647.3 30 L 633 44.3 L 633 60 L 678 60 L 678 70 L 678 115 L 662.3 115 L 633 85.7 L 633 70 L 678 70 L 688 70 L 688 115 L 703.7 115 L 717.2 101.5 L 717.2 335.6 L 701.6 320 L 664.4 320 L 638 346.4 L 638 383.6 L 654.4 400 M 653.5 399.2 L 612.5 399.2 M 622.3 389.3 L 643.7 389.3 M 638 379.5 L 628 379.5 M 628 369.6 L 638 369.6 M 638 359.8 L 628 359.8 M 628 349.9 L 638 349.9 M 644.3 340.1 L 621.7 340.1 M 611.8 330.2 L 654.2 330.2 M 664 320.4 L 602 320.4 M 564 320.4 L 502 320.4 M 511.8 330.2 L 554.2 330.2 M 544.3 340.1 L 521.7 340.1 M 528 349.9 L 538 349.9 M 538 359.8 L 528 359.8 M 528 369.6 L 538 369.6 M 538 379.5 L 528 379.5 M 522.3 389.3 L 543.7 389.3 M 553.5 399.2 L 512.5 399.2 M 453.5 399.2 L 412.5 399.2 M 422.3 389.3 L 443.7 389.3 M 438 379.5 L 428 379.5 M 428 369.6 L 438 369.6 M 438 359.8 L 428 359.8 M 428 349.9 L 438 349.9 M 444.3 340.1 L 421.7 340.1 M 411.8 330.2 L 454.2 330.2 M 464 320.4 L 402 320.4 M 396 310.5 L 48 310.5 M 48 300.7 L 386.1 300.7 M 385 290.8 L 48 290.8 M 48 281 L 385 281 M 394.4 271.1 L 48 271.1 M 48 261.3 L 146.7 261.3 M 136.9 251.4 L 48 251.4 M 48 241.6 L 135 241.6 M 135 231.7 L 48 231.7 M 48 221.9 L 143.6 221.9 M 163.4 212 L 48 212 M 48 202.2 L 173.2 202.2 M 183.1 192.3 L 48 192.3 M 48 182.5 L 192.9 182.5 M 208.6 212 L 463.4 212 M 467 202.2 L 409.6 202.2 M 418.5 192.3 L 467 192.3 M 467 182.5 L 418.5 182.5 M 416.9 172.6 L 467 172.6 M 467 162.8 L 407 162.8 M 399 152.9 L 467 152.9 M 467 143.1 L 399 143.1 M 399 133.2 L 467 133.2 M 467 123.4 L 399 123.4 M 399 113.5 L 467 113.5 M 458 103.7 L 408 103.7 M 417.8 93.8 L 448.2 93.8 M 438.3 84 L 427.7 84 M 428 74.1 L 438 74.1 M 438 64.3 L 428 64.3 M 428 54.4 L 438 54.4 M 439.8 44.6 L 426.2 44.6 M 416.3 34.7 L 449.7 34.7 M 508 103.7 L 558 103.7 M 548.2 93.8 L 517.8 93.8 M 527.7 84 L 538.3 84 M 538 74.1 L 528 74.1 M 528 64.3 L 538 64.3 M 538 54.4 L 528 54.4 M 526.2 44.6 L 539.8 44.6 M 549.7 34.7 L 516.3 34.7 M 499 113.5 L 660.8 113.5 M 650.9 103.7 L 608 103.7 M 617.8 93.8 L 641.1 93.8 M 633 84 L 627.7 84 M 628 74.1 L 633 74.1 M 628 64.3 L 678 64.3 M 678 74.1 L 688 74.1 M 688 84 L 678 84 M 678 93.8 L 688 93.8 M 688 103.7 L 678 103.7 M 678 113.5 L 688 113.5 M 705.2 113.5 L 717.2 113.5 M 717.2 103.7 L 715.1 103.7 M 717.2 123.4 L 499 123.4 M 499 133.2 L 717.2 133.2 M 717.2 143.1 L 499 143.1 M 499 152.9 L 717.2 152.9 M 717.2 162.8 L 499 162.8 M 499 172.6 L 717.2 172.6 M 717.2 182.5 L 499 182.5 M 499 192.3 L 717.2 192.3 M 717.2 202.2 L 499 202.2 M 499 212 L 717.2 212 M 717.2 221.9 L 498.8 221.9 M 488.9 231.7 L 717.2 231.7 M 717.2 241.6 L 479.1 241.6 M 469.2 251.4 L 717.2 251.4 M 717.2 261.3 L 459.4 261.3 M 449.5 271.1 L 717.2 271.1 M 717.2 281 L 439.7 281 M 431 290.8 L 717.2 290.8 M 717.2 300.7 L 429.9 300.7 M 420 310.5 L 717.2 310.5 M 717.2 320.4 L 702 320.4 M 711.8 330.2 L 717.2 330.2 M 633 54.4 L 628 54.4 M 626.2 44.6 L 633 44.6 M 642.6 34.7 L 616.3 34.7 M 453.5 221.9 L 198.8 221.9 M 188.9 231.7 L 443.7 231.7 M 433.8 241.6 L 181 241.6 M 179.1 251.4 L 424 251.4 M 414.1 261.3 L 169.3 261.3 M 164 320.4 L 102 320.4 M 111.8 330.2 L 154.2 330.2 M 144.3 340.1 L 121.7 340.1 M 128 349.9 L 138 349.9 M 138 359.8 L 128 359.8 M 128 369.6 L 138 369.6 M 138 379.5 L 128 379.5 M 122.3 389.3 L 143.7 389.3 M 153.5 399.2 L 112.5 399.2 M 54.2 330.2 L 48 330.2 M 48 320.4 L 64 320.4 M 48 172.6 L 245.6 172.6 M 235.7 162.8 L 48 162.8 M 48 152.9 L 98.3 152.9 M 88.4 143.1 L 48 143.1 M 48 133.2 L 78.6 133.2 M 68.7 123.4 L 48 123.4 M 48 113.5 L 67 113.5 M 58 103.7 L 48 103.7 M 48 93.8 L 48.2 93.8 M 100.6 110 L 114.6 124 L 252.1 124 L 257.6 129.5 L 267 129.5 L 267 110 L 264.4 110 L 238 83.6 L 238 46.4 L 254.4 30 L 211.6 30 L 228 46.4 L 228 83.6 L 201.6 110 L 164.4 110 L 138 83.6 L 138 46.4 L 154.4 30 L 111.6 30 L 128 46.4 L 128 83.6 L 101.6 110 L 100.6 110 M 104.1 113.5 L 267 113.5 M 267 123.4 L 114 123.4 M 108 103.7 L 158 103.7 M 148.2 93.8 L 117.8 93.8 M 127.7 84 L 138.3 84 M 138 74.1 L 128 74.1 M 128 64.3 L 138 64.3 M 138 54.4 L 128 54.4 M 126.2 44.6 L 139.8 44.6 M 149.7 34.7 L 116.3 34.7 M 208 103.7 L 258 103.7 M 248.2 93.8 L 217.8 93.8 M 227.7 84 L 238.3 84 M 238 74.1 L 228 74.1 M 228 64.3 L 238 64.3 M 238 54.4 L 228 54.4 M 226.2 44.6 L 239.8 44.6 M 249.7 34.7 L 216.3 34.7 M 299 113.5 L 367 113.5 M 367 123.4 L 299 123.4 M 299 133.2 L 367 133.2 M 367 143.1 L 299 143.1 M 299 152.9 L 367 152.9 M 367 162.8 L 299 162.8 M 298 172.6 L 367 172.6 M 371.6 182.5 L 288.2 182.5 M 278.3 192.3 L 372.5 192.3 M 381.4 202.2 L 268.5 202.2 M 308 103.7 L 358 103.7 M 348.2 93.8 L 317.8 93.8 M 327.7 84 L 338.3 84 M 338 74.1 L 328 74.1 M 328 64.3 L 338 64.3 M 338 54.4 L 328 54.4 M 326.2 44.6 L 339.8 44.6 M 349.7 34.7 L 316.3 34.7 M 302 320.4 L 364 320.4 M 354.2 330.2 L 311.8 330.2 M 321.7 340.1 L 344.3 340.1 M 338 349.9 L 328 349.9 M 328 359.8 L 338 359.8 M 338 369.6 L 328 369.6 M 328 379.5 L 338 379.5 M 343.7 389.3 L 322.3 389.3 M 312.5 399.2 L 353.5 399.2 M 264 320.4 L 202 320.4 M 211.8 330.2 L 254.2 330.2 M 244.3 340.1 L 221.7 340.1 M 228 349.9 L 238 349.9 M 238 359.8 L 228 359.8 M 228 369.6 L 238 369.6 M 238 379.5 L 228 379.5 M 222.3 389.3 L 243.7 389.3 M 253.5 399.2 L 212.5 399.2"/><use x="133" y="327.5" xlink:href="#tool-D13-pad-1026"/><use x="158" y="240" xlink:href="#tool-D13-pad-1026"/><use x="158" y="202.5" xlink:href="#tool-D13-pad-1026"/><use x="220.5" y="227.5" xlink:href="#tool-D13-pad-1026"/><use x="258" y="152.5" xlink:href="#tool-D13-pad-1026"/><use x="233" y="102.5" xlink:href="#tool-D13-pad-1026"/><use x="333" y="102.5" xlink:href="#tool-D13-pad-1026"/><use x="395.5" y="183.8" xlink:href="#tool-D13-pad-1026"/><use x="320.5" y="227.5" xlink:href="#tool-D13-pad-1026"/><use x="333" y="327.5" xlink:href="#tool-D13-pad-1026"/><use x="408" y="290" xlink:href="#tool-D13-pad-1026"/><use x="433" y="327.5" xlink:href="#tool-D13-pad-1026"/><use x="558" y="227.5" xlink:href="#tool-D13-pad-1026"/><use x="633" y="327.5" xlink:href="#tool-D13-pad-1026"/><use x="395.5" y="652.5" xlink:href="#tool-D13-pad-1026"/><use x="333" y="577.5" xlink:href="#tool-D13-pad-1026"/><use x="258" y="615" xlink:href="#tool-D13-pad-1026"/><use x="233" y="577.5" xlink:href="#tool-D13-pad-1026"/><use x="158" y="677.5" xlink:href="#tool-D13-pad-1026"/><use x="158" y="715" xlink:href="#tool-D13-pad-1026"/><use x="220.5" y="702.5" xlink:href="#tool-D13-pad-1026"/><use x="133" y="802.5" xlink:href="#tool-D13-pad-1026"/><use x="320.5" y="702.5" xlink:href="#tool-D13-pad-1026"/><use x="333" y="802.5" xlink:href="#tool-D13-pad-1026"/><use x="408" y="765" xlink:href="#tool-D13-pad-1026"/><use x="433" y="802.5" xlink:href="#tool-D13-pad-1026"/><use x="558" y="702.5" xlink:href="#tool-D13-pad-1026"/><use x="633" y="802.5" xlink:href="#tool-D13-pad-1026"/><path stroke-width="12" fill="none" d="M 617 809 L 649 809 M 637.1 820.8 L 628.9 820.8 M 629 820.9 L 629 859.1 L 614.6 873.5 L 651.4 873.5 L 637 859.1 L 637 820.9 L 663.9 794 L 702.1 794 L 716.2 808.2 L 716.2 578.9 L 704.1 591 L 687 591 L 687 544 L 679 544 L 679 591 L 661.9 591 L 632 561.1 L 632 544 L 679 544 L 679 536 L 632 536 L 632 518.9 L 644.9 506 L 614.1 506 L 629 520.9 L 629 559.1 L 602.1 586 L 563.9 586 L 537 559.1 L 537 520.9 L 551.9 506 L 514.1 506 L 529 520.9 L 529 559.1 L 502.1 586 L 500 586 L 500 697 L 490 707 L 432 765 L 432 769.8 L 428.3 778.6 L 421.6 785.3 L 412.8 789 L 403.2 789 L 394.4 785.3 L 387.7 778.6 L 384 769.8 L 384 760.2 L 387.7 751.4 L 394.4 744.7 L 403.2 741 L 408 741 L 466 683 L 466 586 L 463.9 586 L 437 559.1 L 437 520.9 L 451.9 506 L 414.1 506 L 429 520.9 L 429 559.1 L 402.1 586 L 400 586 L 400 628.5 L 400.3 628.5 L 409.1 632.2 L 415.8 638.9 L 419.5 647.7 L 419.5 657.3 L 415.8 666.1 L 409.1 672.8 L 400.3 676.5 L 390.7 676.5 L 381.9 672.8 L 375.2 666.1 L 371.5 657.3 L 371.5 652.5 L 366 647 L 366 586 L 363.9 586 L 337 559.1 L 337 520.9 L 351.9 506 L 314.1 506 L 329 520.9 L 329 559.1 L 302.1 586 L 300 586 L 300 634.5 L 252.5 682 L 215 682 L 182 715 L 182 719.8 L 178.3 728.6 L 171.6 735.3 L 162.8 739 L 153.2 739 L 144.4 735.3 L 137.7 728.6 L 134 719.8 L 134 710.2 L 137.7 701.4 L 144.4 694.7 L 153.2 691 L 158 691 L 191 658 L 201 648 L 238.5 648 L 249.1 637.3 L 244.4 635.3 L 241.1 632 L 101 632 L 76 607 L 66 597 L 66 586 L 63.9 586 L 49 571.1 L 49 808.9 L 63.9 794 L 102.1 794 L 129 820.9 L 129 859.1 L 114.6 873.5 L 151.4 873.5 L 137 859.1 L 137 820.9 L 163.9 794 L 202.1 794 L 229 820.9 L 229 859.1 L 214.6 873.5 L 251.4 873.5 L 237 859.1 L 237 820.9 L 263.9 794 L 302.1 794 L 329 820.9 L 329 859.1 L 314.6 873.5 L 351.4 873.5 L 337 859.1 L 337 820.9 L 363.9 794 L 402.1 794 L 429 820.9 L 429 859.1 L 414.6 873.5 L 451.4 873.5 L 437 859.1 L 437 820.9 L 463.9 794 L 502.1 794 L 529 820.9 L 529 859.1 L 514.6 873.5 L 551.4 873.5 L 537 859.1 L 537 820.9 L 563.9 794 L 602.1 794 L 629 820.9 M 629 832.7 L 637 832.7 M 637 844.5 L 629 844.5 M 629 856.4 L 637 856.4 M 646.1 868.2 L 619.9 868.2 M 605.2 797.1 L 660.8 797.1 M 705.2 797.1 L 716.2 797.1 M 716.2 785.3 L 421.7 785.3 M 430.5 773.4 L 716.2 773.4 M 716.2 761.6 L 435.5 761.6 M 447.3 749.7 L 716.2 749.7 M 716.2 737.9 L 459.2 737.9 M 471 726 L 716.2 726 M 716.2 714.2 L 482.9 714.2 M 494.7 702.3 L 716.2 702.3 M 716.2 690.5 L 500 690.5 M 500 678.6 L 716.2 678.6 M 716.2 666.8 L 500 666.8 M 500 654.9 L 716.2 654.9 M 716.2 643.1 L 500 643.1 M 500 631.2 L 716.2 631.2 M 716.2 619.4 L 500 619.4 M 500 607.5 L 716.2 607.5 M 716.2 595.7 L 500 595.7 M 504.3 583.8 L 561.7 583.8 M 549.9 572 L 516.1 572 M 528 560.1 L 538 560.1 M 537 548.3 L 529 548.3 M 529 536.4 L 537 536.4 M 537 524.6 L 529 524.6 M 520.8 512.7 L 545.2 512.7 M 483 540 L 483 690 L 408 765 M 394.3 785.3 L 49 785.3 M 49 797.1 L 60.8 797.1 M 49 773.4 L 385.5 773.4 M 384 761.6 L 49 761.6 M 49 749.7 L 389.4 749.7 M 411.1 737.9 L 165.5 737.9 M 179.4 726 L 423 726 M 434.8 714.2 L 182.9 714.2 M 194.7 702.3 L 446.7 702.3 M 458.5 690.5 L 206.6 690.5 M 208 665 L 245.5 665 L 283 627.5 L 283 540 M 249.9 572 L 216.1 572 M 204.3 583.8 L 261.7 583.8 M 263.9 586 L 237 559.1 L 237 520.9 L 251.9 506 L 214.1 506 L 229 520.9 L 229 559.1 L 202.1 586 L 163.9 586 L 137 559.1 L 137 520.9 L 151.9 506 L 114.1 506 L 129 520.9 L 129 559.1 L 102.5 585.5 L 115 598 L 241.1 598 L 244.4 594.7 L 253.2 591 L 262.8 591 L 266 592.3 L 266 586 L 263.9 586 M 243.4 595.7 L 112.7 595.7 M 104.3 583.8 L 161.7 583.8 M 149.9 572 L 116.1 572 M 128 560.1 L 138 560.1 M 137 548.3 L 129 548.3 M 129 536.4 L 137 536.4 M 137 524.6 L 129 524.6 M 120.8 512.7 L 145.2 512.7 M 83 540 L 83 590 L 108 615 L 258 615 M 243.4 643.1 L 49 643.1 M 49 654.9 L 194.1 654.9 M 182.2 666.8 L 49 666.8 M 49 678.6 L 170.4 678.6 M 158.5 690.5 L 49 690.5 M 49 702.3 L 137.3 702.3 M 134 714.2 L 49 714.2 M 49 726 L 136.6 726 M 150.5 737.9 L 49 737.9 M 105.2 797.1 L 160.8 797.1 M 149 809 L 117 809 M 128.9 820.8 L 137.1 820.8 M 137 832.7 L 129 832.7 M 129 844.5 L 137 844.5 M 137 856.4 L 129 856.4 M 119.9 868.2 L 146.1 868.2 M 205.2 797.1 L 260.8 797.1 M 249 809 L 217 809 M 228.9 820.8 L 237.1 820.8 M 237 832.7 L 229 832.7 M 229 844.5 L 237 844.5 M 237 856.4 L 229 856.4 M 219.9 868.2 L 246.1 868.2 M 305.2 797.1 L 360.8 797.1 M 349 809 L 317 809 M 328.9 820.8 L 337.1 820.8 M 337 832.7 L 329 832.7 M 329 844.5 L 337 844.5 M 337 856.4 L 329 856.4 M 319.9 868.2 L 346.1 868.2 M 405.2 797.1 L 460.8 797.1 M 449 809 L 417 809 M 428.9 820.8 L 437.1 820.8 M 437 832.7 L 429 832.7 M 429 844.5 L 437 844.5 M 437 856.4 L 429 856.4 M 419.9 868.2 L 446.1 868.2 M 505.2 797.1 L 560.8 797.1 M 549 809 L 517 809 M 528.9 820.8 L 537.1 820.8 M 537 832.7 L 529 832.7 M 529 844.5 L 537 844.5 M 537 856.4 L 529 856.4 M 519.9 868.2 L 546.1 868.2 M 466 678.6 L 255.9 678.6 M 267.8 666.8 L 375.8 666.8 M 371.5 654.9 L 279.6 654.9 M 291.5 643.1 L 366 643.1 M 366 631.2 L 300 631.2 M 300 619.4 L 366 619.4 M 366 607.5 L 300 607.5 M 300 595.7 L 366 595.7 M 361.7 583.8 L 304.3 583.8 M 316.1 572 L 349.9 572 M 338 560.1 L 328 560.1 M 329 548.3 L 337 548.3 M 337 536.4 L 329 536.4 M 329 524.6 L 337 524.6 M 345.2 512.7 L 320.8 512.7 M 383 540 L 383 640 L 395.5 652.5 M 406.8 631.2 L 466 631.2 M 466 619.4 L 400 619.4 M 400 607.5 L 466 607.5 M 466 595.7 L 400 595.7 M 404.3 583.8 L 461.7 583.8 M 449.9 572 L 416.1 572 M 428 560.1 L 438 560.1 M 437 548.3 L 429 548.3 M 429 536.4 L 437 536.4 M 437 524.6 L 429 524.6 M 420.8 512.7 L 445.2 512.7 M 466 643.1 L 417.6 643.1 M 419.5 654.9 L 466 654.9 M 466 666.8 L 415.2 666.8 M 245.2 512.7 L 220.8 512.7 M 229 524.6 L 237 524.6 M 237 536.4 L 229 536.4 M 229 548.3 L 237 548.3 M 238 560.1 L 228 560.1 M 208 665 L 158 715 M 100.2 631.2 L 49 631.2 M 49 619.4 L 88.3 619.4 M 76.5 607.5 L 49 607.5 M 49 595.7 L 66 595.7 M 61.7 583.8 L 49 583.8 M 49 572 L 49.9 572 M 158 240 L 208 190 L 258 190 L 283 165 L 283 65 M 245.5 140 L 108 140 L 83 115 L 83 65 M 245.5 140 L 258 152.5 M 383 171.3 L 383 65 M 383 171.3 L 395.5 183.8 M 483 215 L 408 290 M 483 215 L 483 65 M 620.8 512.7 L 638.2 512.7 M 632 524.6 L 629 524.6 M 629 536.4 L 679 536.4 M 679 548.3 L 687 548.3 M 687 560.1 L 679 560.1 M 679 572 L 687 572 M 687 583.8 L 679 583.8 M 654.7 583.8 L 604.3 583.8 M 616.1 572 L 642.8 572 M 632 560.1 L 628 560.1 M 629 548.3 L 632 548.3 M 711.3 583.8 L 716.2 583.8"/></g><g fill="currentColor" stroke="currentColor" id="top-tss_36"><path stroke-width="0" fill="none" d="M 33 15 L 33 414.5 L 64.3 414.5 L 68 414.7 L 71.7 415.2 L 75.3 416.1 L 78.8 417.4 L 82.1 419 L 85.3 420.9 L 88.3 423.1 L 91 425.6 L 93.5 428.3 L 95.7 431.3 L 97.6 434.5 L 99.2 437.8 L 100.5 441.3 L 101.4 444.9 L 101.9 448.6 L 102.1 452.3 L 101.9 456 L 101.4 459.7 L 100.5 463.3 L 99.2 466.8 L 97.6 470.1 L 95.7 473.3 L 93.5 476.3 L 91 479 L 88.3 481.5 L 85.3 483.7 L 82.1 485.6 L 78.8 487.2 L 75.3 488.5 L 71.7 489.4 L 68 489.9 L 64.3 490.1 M 64.3 490 L 33 490 L 33 889.5 L 732.2 889.5 L 732.2 490 L 701.8 490 M 701.8 490.1 L 698.1 489.9 L 694.4 489.4 L 690.8 488.5 L 687.3 487.2 L 684 485.6 L 680.8 483.7 L 677.8 481.5 L 675.1 479 L 672.6 476.3 L 670.4 473.3 L 668.5 470.1 L 666.9 466.8 L 665.6 463.3 L 664.7 459.7 L 664.2 456 L 664 452.3 L 664.2 448.6 L 664.7 444.9 L 665.6 441.3 L 666.9 437.8 L 668.5 434.5 L 670.4 431.3 L 672.6 428.3 L 675.1 425.6 L 677.8 423.1 L 680.8 420.9 L 684 419 L 687.3 417.4 L 690.8 416.1 L 694.4 415.2 L 698.1 414.7 L 701.8 414.5 L 732.2 414.5 L 732.2 15 L 33 15 M 201.8 414.5 L 564.3 414.5 L 568 414.7 L 571.7 415.2 L 575.3 416.1 L 578.8 417.4 L 582.1 419 L 585.3 420.9 L 588.3 423.1 L 591 425.6 L 593.5 428.3 L 595.7 431.3 L 597.6 434.5 L 599.2 437.8 L 600.5 441.3 L 601.4 444.9 L 601.9 448.6 L 602.1 452.3 L 601.9 456 L 601.4 459.7 L 600.5 463.3 L 599.2 466.8 L 597.6 470.1 L 595.7 473.3 L 593.5 476.3 L 591 479 L 588.3 481.5 L 585.3 483.7 L 582.1 485.6 L 578.8 487.2 L 575.3 488.5 L 571.7 489.4 L 568 489.9 L 564.3 490.1 M 564.3 490 L 201.8 490 M 201.8 490.1 L 198.1 489.9 L 194.4 489.4 L 190.8 488.5 L 187.3 487.2 L 184 485.6 L 180.8 483.7 L 177.8 481.5 L 175.1 479 L 172.6 476.3 L 170.4 473.3 L 168.5 470.1 L 166.9 466.8 L 165.6 463.3 L 164.7 459.7 L 164.2 456 L 164 452.3 L 164.2 448.6 L 164.7 444.9 L 165.6 441.3 L 166.9 437.8 L 168.5 434.5 L 170.4 431.3 L 172.6 428.3 L 175.1 425.6 L 177.8 423.1 L 180.8 420.9 L 184 419 L 187.3 417.4 L 190.8 416.1 L 194.4 415.2 L 198.1 414.7 L 201.8 414.5 M 143.9 427.5 L 144.1 429.3 L 144.7 430.9 L 145.6 432.4 L 146.9 433.7 L 148.4 434.6 L 150 435.2 L 151.8 435.4 L 153.6 435.2 L 155.2 434.6 L 156.7 433.7 L 158 432.4 L 158.9 430.9 L 159.5 429.3 L 159.7 427.5 L 159.5 425.7 L 158.9 424.1 L 158 422.6 L 156.7 421.3 L 155.2 420.4 L 153.6 419.8 L 151.8 419.6 L 150 419.8 L 148.4 420.4 L 146.9 421.3 L 145.6 422.6 L 144.7 424.1 L 144.1 425.7 L 143.9 427.5 M 106.4 427.5 L 106.6 429.3 L 107.2 430.9 L 108.1 432.4 L 109.4 433.7 L 110.9 434.6 L 112.5 435.2 L 114.3 435.4 L 116.1 435.2 L 117.7 434.6 L 119.2 433.7 L 120.5 432.4 L 121.4 430.9 L 122 429.3 L 122.2 427.5 L 122 425.7 L 121.4 424.1 L 120.5 422.6 L 119.2 421.3 L 117.7 420.4 L 116.1 419.8 L 114.3 419.6 L 112.5 419.8 L 110.9 420.4 L 109.4 421.3 L 108.1 422.6 L 107.2 424.1 L 106.6 425.7 L 106.4 427.5 M 106.4 477.5 L 106.6 479.3 L 107.2 480.9 L 108.1 482.4 L 109.4 483.7 L 110.9 484.6 L 112.5 485.2 L 114.3 485.4 L 116.1 485.2 L 117.7 484.6 L 119.2 483.7 L 120.5 482.4 L 121.4 480.9 L 122 479.3 L 122.2 477.5 L 122 475.7 L 121.4 474.1 L 120.5 472.6 L 119.2 471.3 L 117.7 470.4 L 116.1 469.8 L 114.3 469.6 L 112.5 469.8 L 110.9 470.4 L 109.4 471.3 L 108.1 472.6 L 107.2 474.1 L 106.6 475.7 L 106.4 477.5 M 143.9 477.5 L 144.1 479.3 L 144.7 480.9 L 145.6 482.4 L 146.9 483.7 L 148.4 484.6 L 150 485.2 L 151.8 485.4 L 153.6 485.2 L 155.2 484.6 L 156.7 483.7 L 158 482.4 L 158.9 480.9 L 159.5 479.3 L 159.7 477.5 L 159.5 475.7 L 158.9 474.1 L 158 472.6 L 156.7 471.3 L 155.2 470.4 L 153.6 469.8 L 151.8 469.6 L 150 469.8 L 148.4 470.4 L 146.9 471.3 L 145.6 472.6 L 144.7 474.1 L 144.1 475.7 L 143.9 477.5 M 606.4 477.5 L 606.6 479.3 L 607.2 480.9 L 608.1 482.4 L 609.4 483.7 L 610.9 484.6 L 612.5 485.2 L 614.3 485.4 L 616.1 485.2 L 617.7 484.6 L 619.2 483.7 L 620.5 482.4 L 621.4 480.9 L 622 479.3 L 622.2 477.5 L 622 475.7 L 621.4 474.1 L 620.5 472.6 L 619.2 471.3 L 617.7 470.4 L 616.1 469.8 L 614.3 469.6 L 612.5 469.8 L 610.9 470.4 L 609.4 471.3 L 608.1 472.6 L 607.2 474.1 L 606.6 475.7 L 606.4 477.5 M 606.4 427.5 L 606.6 429.3 L 607.2 430.9 L 608.1 432.4 L 609.4 433.7 L 610.9 434.6 L 612.5 435.2 L 614.3 435.4 L 616.1 435.2 L 617.7 434.6 L 619.2 433.7 L 620.5 432.4 L 621.4 430.9 L 622 429.3 L 622.2 427.5 L 622 425.7 L 621.4 424.1 L 620.5 422.6 L 619.2 421.3 L 617.7 420.4 L 616.1 419.8 L 614.3 419.6 L 612.5 419.8 L 610.9 420.4 L 609.4 421.3 L 608.1 422.6 L 607.2 424.1 L 606.6 425.7 L 606.4 427.5 M 643.9 427.5 L 644.1 429.3 L 644.7 430.9 L 645.6 432.4 L 646.9 433.7 L 648.4 434.6 L 650 435.2 L 651.8 435.4 L 653.6 435.2 L 655.2 434.6 L 656.7 433.7 L 658 432.4 L 658.9 430.9 L 659.5 429.3 L 659.7 427.5 L 659.5 425.7 L 658.9 424.1 L 658 422.6 L 656.7 421.3 L 655.2 420.4 L 653.6 419.8 L 651.8 419.6 L 650 419.8 L 648.4 420.4 L 646.9 421.3 L 645.6 422.6 L 644.7 424.1 L 644.1 425.7 L 643.9 427.5 M 643.9 477.5 L 644.1 479.3 L 644.7 480.9 L 645.6 482.4 L 646.9 483.7 L 648.4 484.6 L 650 485.2 L 651.8 485.4 L 653.6 485.2 L 655.2 484.6 L 656.7 483.7 L 658 482.4 L 658.9 480.9 L 659.5 479.3 L 659.7 477.5 L 659.5 475.7 L 658.9 474.1 L 658 472.6 L 656.7 471.3 L 655.2 470.4 L 653.6 469.8 L 651.8 469.6 L 650 469.8 L 648.4 470.4 L 646.9 471.3 L 645.6 472.6 L 644.7 474.1 L 644.1 475.7 L 643.9 477.5"/><path stroke-width="10" fill="none" d="M 583 565 L 583 627.5 L 545.5 627.5 M 495.5 590 L 458 590 M 495.5 665 L 501 663.2 L 506.4 661 L 511.6 658.5 L 516.7 655.7 L 521.5 652.5 L 526.2 649 L 530.6 645.2 L 534.8 641.2 L 538.6 636.9 L 542.2 632.3 L 545.5 627.5 M 495.5 665 L 458 665 M 495.5 590 L 501 591.8 L 506.4 594 L 511.6 596.5 L 516.7 599.3 L 521.5 602.5 L 526.2 606 L 530.6 609.8 L 534.8 613.8 L 538.6 618.1 L 542.2 622.7 L 545.5 627.5 M 645.5 752.5 L 642.2 757.3 L 638.6 761.9 L 634.8 766.2 L 630.6 770.2 L 626.2 774 L 621.5 777.5 L 616.7 780.7 L 611.6 783.5 L 606.4 786 L 601 788.2 L 595.5 790 L 558 790 M 564.3 771.3 L 533 771.3 L 533 802.5 L 558 827.5 M 645.5 752.5 L 642.2 747.7 L 638.6 743.1 L 634.8 738.8 L 630.6 734.8 L 626.2 731 L 621.5 727.5 L 616.7 724.3 L 611.6 721.5 L 606.4 719 L 601 716.8 L 595.5 715 L 558 715 M 564.3 733.8 L 483 733.8 L 483 815 M 558 790 L 560.9 786.8 L 563.6 783.3 L 566 779.6 L 568.1 775.8 L 569.9 771.8 L 571.3 767.6 L 572.4 763.4 L 573.1 759.1 L 573.5 754.7 L 573.5 750.3 L 573.1 745.9 L 572.4 741.6 L 571.3 737.4 L 569.9 733.2 L 568.1 729.2 L 566 725.4 L 563.6 721.7 L 560.9 718.2 L 558 715 M 645.5 752.5 L 683 752.5 L 683 815 M 464.3 646.3 L 383 646.3 L 383 565 M 433 577.5 L 458 552.5 M 433 577.5 L 433 608.8 L 464.3 608.8 M 458 590 L 460.9 593.2 L 463.6 596.7 L 466 600.4 L 468.1 604.2 L 469.9 608.2 L 471.3 612.4 L 472.4 616.6 L 473.1 620.9 L 473.5 625.3 L 473.5 629.7 L 473.1 634.1 L 472.4 638.4 L 471.3 642.6 L 469.9 646.8 L 468.1 650.8 L 466 654.6 L 463.6 658.3 L 460.9 661.8 L 458 665 M 383 752.5 L 383 815 M 383 752.5 L 345.5 752.5 M 295.5 715 L 258 715 M 295.5 790 L 301 788.2 L 306.4 786 L 311.6 783.5 L 316.7 780.7 L 321.5 777.5 L 326.2 774 L 330.6 770.2 L 334.8 766.2 L 338.6 761.9 L 342.2 757.3 L 345.5 752.5 M 295.5 790 L 258 790 M 264.3 771.3 L 233 771.3 L 233 802.5 L 258 827.5 M 345.5 752.5 L 342.2 747.7 L 338.6 743.1 L 334.8 738.8 L 330.6 734.8 L 326.2 731 L 321.5 727.5 L 316.7 724.3 L 311.6 721.5 L 306.4 719 L 301 716.8 L 295.5 715 M 264.3 733.8 L 183 733.8 L 183 815 M 258 790 L 260.9 786.8 L 263.6 783.3 L 266 779.6 L 268.1 775.8 L 269.9 771.8 L 271.3 767.6 L 272.4 763.4 L 273.1 759.1 L 273.5 754.7 L 273.5 750.3 L 273.1 745.9 L 272.4 741.6 L 271.3 737.4 L 269.9 733.2 L 268.1 729.2 L 266 725.4 L 263.6 721.7 L 260.9 718.2 L 258 715 M 195.5 665 L 158 665 M 195.5 590 L 201 591.8 L 206.4 594 L 211.6 596.5 L 216.7 599.3 L 221.5 602.5 L 226.2 606 L 230.6 609.8 L 234.8 613.8 L 238.6 618.1 L 242.2 622.7 L 245.5 627.5 L 283 627.5 L 283 565 M 195.5 590 L 158 590 M 195.5 665 L 201 663.2 L 206.4 661 L 211.6 658.5 L 216.7 655.7 L 221.5 652.5 L 226.2 649 L 230.6 645.2 L 234.8 641.2 L 238.6 636.9 L 242.2 632.3 L 245.5 627.5 M 164.3 608.8 L 133 608.8 L 133 577.5 L 158 552.5 M 158 590 L 160.9 593.2 L 163.6 596.7 L 166 600.4 L 168.1 604.2 L 169.9 608.2 L 171.3 612.4 L 172.4 616.6 L 173.1 620.9 L 173.5 625.3 L 173.5 629.7 L 173.1 634.1 L 172.4 638.4 L 171.3 642.6 L 169.9 646.8 L 168.1 650.8 L 166 654.6 L 163.6 658.3 L 160.9 661.8 L 158 665 M 164.3 646.3 L 83 646.3 L 83 565 M 183 340 L 183 258.8 L 258 258.8 L 258 240 L 308 240 M 345.5 277.5 L 345.3 281.2 L 344.8 284.8 L 343.9 288.4 L 342.6 291.9 L 341.1 295.2 L 339.2 298.3 L 337 301.3 L 334.5 304 L 331.8 306.5 L 328.8 308.7 L 325.7 310.6 L 322.4 312.1 L 318.9 313.4 L 315.3 314.3 L 311.7 314.8 L 308 315 L 258 315 L 258 296.3 L 233 296.3 L 233 327.5 L 258 352.5 M 258 296.3 L 258 258.8 M 308 240 L 311.7 240.2 L 315.3 240.7 L 318.9 241.6 L 322.4 242.9 L 325.7 244.4 L 328.8 246.3 L 331.8 248.5 L 334.5 251 L 337 253.7 L 339.2 256.7 L 341.1 259.8 L 342.6 263.1 L 343.9 266.6 L 344.8 270.2 L 345.3 273.8 L 345.5 277.5 M 370.5 277.5 L 383 277.5 L 383 340 M 483 340 L 483 258.8 L 558 258.8 L 558 240 L 608 240 M 645.5 277.5 L 645.3 281.2 L 644.8 284.8 L 643.9 288.4 L 642.6 291.9 L 641.1 295.2 L 639.2 298.3 L 637 301.3 L 634.5 304 L 631.8 306.5 L 628.8 308.7 L 625.7 310.6 L 622.4 312.1 L 618.9 313.4 L 615.3 314.3 L 611.7 314.8 L 608 315 L 558 315 L 558 296.3 L 533 296.3 L 533 327.5 L 558 352.5 M 558 296.3 L 558 258.8 M 608 240 L 611.7 240.2 L 615.3 240.7 L 618.9 241.6 L 622.4 242.9 L 625.7 244.4 L 628.8 246.3 L 631.8 248.5 L 634.5 251 L 637 253.7 L 639.2 256.7 L 641.1 259.8 L 642.6 263.1 L 643.9 266.6 L 644.8 270.2 L 645.3 273.8 L 645.5 277.5 M 670.5 277.5 L 683 277.5 L 683 340 M 583 152.5 L 570.5 152.5 M 583 152.5 L 583 90 M 508 115 L 458 115 L 458 133.8 L 433 133.8 L 433 102.5 L 458 77.5 M 458 133.8 L 458 171.3 L 383 171.3 L 383 90 M 458 171.3 L 458 190 L 508 190 M 545.5 152.5 L 545.3 148.8 L 544.8 145.2 L 543.9 141.6 L 542.6 138.1 L 541.1 134.8 L 539.2 131.7 L 537 128.7 L 534.5 126 L 531.8 123.5 L 528.8 121.3 L 525.7 119.4 L 522.4 117.9 L 518.9 116.6 L 515.3 115.7 L 511.7 115.2 L 508 115 M 545.5 152.5 L 545.3 156.2 L 544.8 159.8 L 543.9 163.4 L 542.6 166.9 L 541.1 170.2 L 539.2 173.3 L 537 176.3 L 534.5 179 L 531.8 181.5 L 528.8 183.7 L 525.7 185.6 L 522.4 187.1 L 518.9 188.4 L 515.3 189.3 L 511.7 189.8 L 508 190 M 283 152.5 L 283 90 M 283 152.5 L 270.5 152.5 M 245.5 152.5 L 245.3 148.8 L 244.8 145.2 L 243.9 141.6 L 242.6 138.1 L 241.1 134.8 L 239.2 131.7 L 237 128.7 L 234.5 126 L 231.8 123.5 L 228.8 121.3 L 225.7 119.4 L 222.4 117.9 L 218.9 116.6 L 215.3 115.7 L 211.7 115.2 L 208 115 L 158 115 L 158 133.8 L 133 133.8 L 133 102.5 L 158 77.5 M 158 133.8 L 158 171.3 L 83 171.3 L 83 90 M 158 171.3 L 158 190 L 208 190 L 211.7 189.8 L 215.3 189.3 L 218.9 188.4 L 222.4 187.1 L 225.7 185.6 L 228.8 183.7 L 231.8 181.5 L 234.5 179 L 237 176.3 L 239.2 173.3 L 241.1 170.2 L 242.6 166.9 L 243.9 163.4 L 244.8 159.8 L 245.3 156.2 L 245.5 152.5"/><path stroke-width="1" fill="none" d="M 69.5 202.2 L 66.7 196.3 L 63 190.9 L 58.4 186.3 L 53 182.5 L 47.1 179.8 L 40.8 178.1 L 34.3 177.5 L 34.3 252.5 L 40.8 251.9 L 47.1 250.2 L 53 247.5 L 58.4 243.7 L 34.3 243.7 M 34.3 244.5 L 57.2 244.5 M 58.4 243.7 L 63 239.1 L 66.7 233.8 L 69.5 227.8 L 71.2 221.5 L 71.8 215 L 71.2 208.5 L 69.5 202.2 M 69.4 202 L 34.3 202 M 34.3 201.2 L 69 201.2 M 68.6 200.3 L 34.3 200.3 M 34.3 199.5 L 68.2 199.5 M 67.8 198.6 L 34.3 198.6 M 34.3 197.8 L 67.4 197.8 M 67 196.9 L 34.3 196.9 M 34.3 196.1 L 66.6 196.1 M 66 195.2 L 34.3 195.2 M 34.3 194.4 L 65.4 194.4 M 64.8 193.5 L 34.3 193.5 M 34.3 192.7 L 64.2 192.7 M 63.6 191.8 L 34.3 191.8 M 34.3 191 L 63 191 M 62.2 190.1 L 34.3 190.1 M 34.3 189.3 L 61.3 189.3 M 60.5 188.4 L 34.3 188.4 M 34.3 187.6 L 59.6 187.6 M 58.8 186.7 L 34.3 186.7 M 34.3 185.9 L 57.8 185.9 M 56.5 185 L 34.3 185 M 34.3 184.2 L 55.3 184.2 M 54.1 183.3 L 34.3 183.3 M 34.3 182.5 L 52.9 182.5 M 51 181.6 L 34.3 181.6 M 34.3 180.8 L 49.2 180.8 M 47.4 179.9 L 34.3 179.9 M 34.3 179.1 L 44.4 179.1 M 41.3 178.2 L 34.3 178.2 M 34.3 202.9 L 69.7 202.9 M 69.9 203.7 L 34.3 203.7 M 34.3 204.6 L 70.1 204.6 M 70.4 205.4 L 34.3 205.4 M 34.3 206.3 L 70.6 206.3 M 70.8 207.1 L 34.3 207.1 M 34.3 208 L 71 208 M 71.2 208.8 L 34.3 208.8 M 34.3 209.7 L 71.3 209.7 M 71.4 210.5 L 34.3 210.5 M 34.3 211.4 L 71.4 211.4 M 71.5 212.2 L 34.3 212.2 M 34.3 213.1 L 71.6 213.1 M 71.7 213.9 L 34.3 213.9 M 34.3 214.8 L 71.7 214.8 M 71.7 215.6 L 34.3 215.6 M 34.3 216.5 L 71.6 216.5 M 71.5 217.3 L 34.3 217.3 M 34.3 218.2 L 71.5 218.2 M 71.4 219 L 34.3 219 M 34.3 219.9 L 71.3 219.9 M 71.3 220.7 L 34.3 220.7 M 34.3 221.6 L 71.2 221.6 M 70.9 222.4 L 34.3 222.4 M 34.3 223.3 L 70.7 223.3 M 70.5 224.1 L 34.3 224.1 M 34.3 225 L 70.3 225 M 70 225.8 L 34.3 225.8 M 34.3 226.7 L 69.8 226.7 M 69.6 227.5 L 34.3 227.5 M 34.3 228.4 L 69.2 228.4 M 68.8 229.2 L 34.3 229.2 M 34.3 230.1 L 68.4 230.1 M 68.1 230.9 L 34.3 230.9 M 34.3 231.8 L 67.7 231.8 M 67.3 232.6 L 34.3 232.6 M 34.3 233.5 L 66.9 233.5 M 66.3 234.3 L 34.3 234.3 M 34.3 235.2 L 65.7 235.2 M 65.1 236 L 34.3 236 M 34.3 236.9 L 64.6 236.9 M 64 237.7 L 34.3 237.7 M 34.3 238.6 L 63.4 238.6 M 62.7 239.4 L 34.3 239.4 M 34.3 240.3 L 61.8 240.3 M 61 241.1 L 34.3 241.1 M 34.3 242 L 60.1 242 M 59.3 242.8 L 34.3 242.8 M 34.3 245.4 L 56 245.4 M 54.8 246.2 L 34.3 246.2 M 34.3 247.1 L 53.6 247.1 M 52.1 247.9 L 34.3 247.9 M 34.3 248.8 L 50.3 248.8 M 48.4 249.6 L 34.3 249.6 M 34.3 250.5 L 46.3 250.5 M 43.1 251.3 L 34.3 251.3 M 34.3 252.2 L 38.2 252.2 M 34.3 652.5 L 34.3 727.5 L 40.8 726.9 L 47.1 725.2 L 53 722.5 L 58.4 718.7 L 63 714.1 L 66.7 708.8 L 69.5 702.8 L 71.2 696.5 L 71.8 690 L 71.2 683.5 L 69.5 677.2 L 66.7 671.3 L 63 665.9 L 58.4 661.3 L 53 657.5 L 47.1 654.8 L 40.8 653.1 L 34.3 652.5 L 34.5 652.5 M 34.3 653.4 L 41.9 653.4 M 45 654.2 L 34.3 654.2 M 34.3 655.1 L 47.7 655.1 M 49.6 655.9 L 34.3 655.9 M 34.3 656.8 L 51.4 656.8 M 53.1 657.6 L 34.3 657.6 M 34.3 658.5 L 54.3 658.5 M 55.6 659.3 L 34.3 659.3 M 34.3 660.2 L 56.8 660.2 M 58 661 L 34.3 661 M 34.3 661.9 L 58.9 661.9 M 59.8 662.7 L 34.3 662.7 M 34.3 663.6 L 60.6 663.6 M 61.5 664.4 L 34.3 664.4 M 34.3 665.3 L 62.4 665.3 M 63.1 666.1 L 34.3 666.1 M 34.3 667 L 63.7 667 M 64.3 667.8 L 34.3 667.8 M 34.3 668.7 L 64.9 668.7 M 65.5 669.5 L 34.3 669.5 M 34.3 670.4 L 66.1 670.4 M 66.7 671.2 L 34.3 671.2 M 34.3 672.1 L 67.1 672.1 M 67.5 672.9 L 34.3 672.9 M 34.3 673.8 L 67.9 673.8 M 68.3 674.6 L 34.3 674.6 M 34.3 675.5 L 68.7 675.5 M 69.1 676.3 L 34.3 676.3 M 34.3 677.2 L 69.5 677.2 M 69.7 678 L 34.3 678 M 34.3 678.9 L 69.9 678.9 M 70.2 679.7 L 34.3 679.7 M 34.3 680.6 L 70.4 680.6 M 70.6 681.4 L 34.3 681.4 M 34.3 682.3 L 70.9 682.3 M 71.1 683.1 L 34.3 683.1 M 34.3 684 L 71.2 684 M 71.3 684.8 L 34.3 684.8 M 34.3 685.7 L 71.4 685.7 M 71.4 686.5 L 34.3 686.5 M 34.3 687.4 L 71.5 687.4 M 71.6 688.2 L 34.3 688.2 M 34.3 689.1 L 71.7 689.1 M 71.7 689.9 L 34.3 689.9 M 34.3 690.8 L 71.7 690.8 M 71.6 691.6 L 34.3 691.6 M 34.3 692.5 L 71.5 692.5 M 71.5 693.3 L 34.3 693.3 M 34.3 694.2 L 71.4 694.2 M 71.3 695 L 34.3 695 M 34.3 695.9 L 71.2 695.9 M 71.1 696.7 L 34.3 696.7 M 34.3 697.6 L 70.9 697.6 M 70.7 698.4 L 34.3 698.4 M 34.3 699.3 L 70.4 699.3 M 70.2 700.1 L 34.3 700.1 M 34.3 701 L 70 701 M 69.8 701.8 L 34.3 701.8 M 34.3 702.7 L 69.5 702.7 M 69.2 703.5 L 34.3 703.5 M 34.3 704.4 L 68.8 704.4 M 68.4 705.2 L 34.3 705.2 M 34.3 706.1 L 68 706.1 M 67.6 706.9 L 34.3 706.9 M 34.3 707.8 L 67.2 707.8 M 66.8 708.6 L 34.3 708.6 M 34.3 709.5 L 66.2 709.5 M 65.6 710.3 L 34.3 710.3 M 34.3 711.2 L 65 711.2 M 64.4 712 L 34.3 712 M 34.3 712.9 L 63.8 712.9 M 63.2 713.7 L 34.3 713.7 M 34.3 714.6 L 62.5 714.6 M 61.7 715.4 L 34.3 715.4 M 34.3 716.3 L 60.8 716.3 M 60 717.1 L 34.3 717.1 M 34.3 718 L 59.1 718 M 58.2 718.8 L 34.3 718.8 M 34.3 719.7 L 57 719.7 M 55.8 720.5 L 34.3 720.5 M 34.3 721.4 L 54.6 721.4 M 53.4 722.2 L 34.3 722.2 M 34.3 723.1 L 51.7 723.1 M 49.9 723.9 L 34.3 723.9 M 34.3 724.8 L 48.1 724.8 M 45.6 725.6 L 34.3 725.6 M 34.3 726.5 L 42.5 726.5 M 36.3 727.3 L 34.3 727.3"/><path stroke-width="5" fill="none" d="M 55.4 755 L 63.7 763.3 L 63.7 780 M 74.7 775.9 L 74.7 759.2 L 78.9 755 L 87.2 755 L 91.4 759.2 M 102.3 759.2 L 106.5 755 L 114.8 755 L 119 759.2 M 119 775.9 L 114.8 780 L 106.5 780 L 102.3 775.9 L 102.3 759.2 M 91.4 775.9 L 87.2 780 L 78.9 780 L 74.7 775.9 M 55.4 755 L 47.1 763.3 L 47.1 780 M 47.1 305 L 47.1 288.3 L 55.4 280 L 63.7 288.3 L 63.7 305 M 74.7 300.9 L 74.7 284.2 L 78.9 280 L 87.2 280 L 91.4 284.2 M 102.3 284.2 L 106.5 280 L 114.8 280 L 119 284.2 M 119 300.9 L 114.8 305 L 106.5 305 L 102.3 300.9 L 102.3 284.2 M 91.4 300.9 L 87.2 305 L 78.9 305 L 74.7 300.9 M 647.1 150.9 L 647.1 134.2 L 651.2 130 L 659.6 130 L 663.7 134.2 L 663.7 142.5 L 655.4 142.5 M 647.1 150.9 L 651.2 155 L 659.6 155 L 663.7 150.9 M 674.7 155 L 674.7 130 M 691.4 130 L 674.7 155 M 691.4 155 L 691.4 130 M 702.3 130 L 714.8 130 L 719 134.2 L 719 150.9 L 714.8 155 L 702.3 155 L 702.3 130 M 702.3 605 L 714.8 605 L 719 609.2 L 719 625.9 L 714.8 630 L 702.3 630 L 702.3 605 M 691.4 605 L 691.4 630 M 674.7 630 L 674.7 605 M 663.7 609.2 L 663.7 617.5 L 655.4 617.5 M 647.1 609.2 L 651.2 605 L 659.6 605 L 663.7 609.2 M 647.1 609.2 L 647.1 625.9 L 651.2 630 L 659.6 630 L 663.7 625.9 M 674.7 630 L 691.4 605"/><path stroke-width="7" fill="none" d="M 474.1 689 L 442.5 680.6 L 465.6 720.6 L 463.5 728.5 L 453.5 734.3 L 437.7 730.1 L 432 720.1 M 413.7 715.2 L 415.8 707.3 L 410.1 697.3 L 420.1 691.5 L 422.2 683.6 L 416.4 673.6 L 400.6 669.4 L 390.6 675.1 M 402.2 695.2 L 410.1 697.3 M 413.7 715.2 L 403.7 721 L 387.9 716.7 L 382.1 706.7 M 368.1 686 L 336.6 677.6 L 353.9 707.6 L 366.6 660.2 M 314.1 688.5 L 291 648.4 L 293.1 640.5 M 280.4 687.9 L 312 696.4 L 314.1 688.5 M 437.7 255.1 L 453.5 259.3 L 463.5 253.5 L 440.4 213.5 L 450.4 207.7 L 466.2 211.9 L 472 221.9 L 463.5 253.5 M 437.7 255.1 L 432 245.1 L 440.4 213.5 M 422.2 208.6 L 416.4 198.6 L 400.6 194.4 L 390.6 200.1 L 413.7 240.2 L 422.2 208.6 M 413.7 240.2 L 403.7 246 L 387.9 241.7 L 382.1 231.7 L 390.6 200.1 M 368.1 211 L 336.6 202.6 L 353.9 232.6 L 366.6 185.2 M 314.1 213.5 L 291 173.4 L 293.1 165.5 M 280.4 212.9 L 312 221.4 L 314.1 213.5"/><path stroke-width="8" fill="none" d="M 346 277.5 L 346.2 279.6 L 346.8 281.7 L 347.7 283.7 L 349 285.4 L 350.5 286.9 L 352.3 288.1 L 354.3 288.9 L 356.4 289.4 L 358.5 289.5 L 360.7 289.2 L 362.7 288.5 L 364.6 287.5 L 366.3 286.2 L 367.7 284.6 L 368.8 282.7 L 369.6 280.7 L 370 278.6 L 370 276.4 L 369.6 274.3 L 368.8 272.3 L 367.7 270.4 L 366.3 268.8 L 364.6 267.5 L 362.7 266.5 L 360.7 265.8 L 358.5 265.5 L 356.4 265.6 L 354.3 266.1 L 352.3 266.9 L 350.5 268.1 L 349 269.6 L 347.7 271.3 L 346.8 273.3 L 346.2 275.4 L 346 277.5 M 246 152.5 L 246.2 154.6 L 246.8 156.7 L 247.7 158.7 L 249 160.4 L 250.5 161.9 L 252.3 163.1 L 254.3 163.9 L 256.4 164.4 L 258.5 164.5 L 260.7 164.2 L 262.7 163.5 L 264.6 162.5 L 266.3 161.2 L 267.7 159.6 L 268.8 157.7 L 269.6 155.7 L 270 153.6 L 270 151.4 L 269.6 149.3 L 268.8 147.3 L 267.7 145.4 L 266.3 143.8 L 264.6 142.5 L 262.7 141.5 L 260.7 140.8 L 258.5 140.5 L 256.4 140.6 L 254.3 141.1 L 252.3 141.9 L 250.5 143.1 L 249 144.6 L 247.7 146.3 L 246.8 148.3 L 246.2 150.4 L 246 152.5 M 546 152.5 L 546.2 154.6 L 546.8 156.7 L 547.7 158.7 L 549 160.4 L 550.5 161.9 L 552.3 163.1 L 554.3 163.9 L 556.4 164.4 L 558.5 164.5 L 560.7 164.2 L 562.7 163.5 L 564.6 162.5 L 566.3 161.2 L 567.7 159.6 L 568.8 157.7 L 569.6 155.7 L 570 153.6 L 570 151.4 L 569.6 149.3 L 568.8 147.3 L 567.7 145.4 L 566.3 143.8 L 564.6 142.5 L 562.7 141.5 L 560.7 140.8 L 558.5 140.5 L 556.4 140.6 L 554.3 141.1 L 552.3 141.9 L 550.5 143.1 L 549 144.6 L 547.7 146.3 L 546.8 148.3 L 546.2 150.4 L 546 152.5 M 646 277.5 L 646.2 279.6 L 646.8 281.7 L 647.7 283.7 L 649 285.4 L 650.5 286.9 L 652.3 288.1 L 654.3 288.9 L 656.4 289.4 L 658.5 289.5 L 660.7 289.2 L 662.7 288.5 L 664.6 287.5 L 666.3 286.2 L 667.7 284.6 L 668.8 282.7 L 669.6 280.7 L 670 278.6 L 670 276.4 L 669.6 274.3 L 668.8 272.3 L 667.7 270.4 L 666.3 268.8 L 664.6 267.5 L 662.7 266.5 L 660.7 265.8 L 658.5 265.5 L 656.4 265.6 L 654.3 266.1 L 652.3 266.9 L 650.5 268.1 L 649 269.6 L 647.7 271.3 L 646.8 273.3 L 646.2 275.4 L 646 277.5"/></g><g fill="currentColor" stroke="currentColor" id="top-tsp_37"><path stroke-width="0" fill="none" d="M 33 15 L 33 414.5 L 64.3 414.5 L 68 414.7 L 71.7 415.2 L 75.3 416.1 L 78.8 417.4 L 82.1 419 L 85.3 420.9 L 88.3 423.1 L 91 425.6 L 93.5 428.3 L 95.7 431.3 L 97.6 434.5 L 99.2 437.8 L 100.5 441.3 L 101.4 444.9 L 101.9 448.6 L 102.1 452.3 L 101.9 456 L 101.4 459.7 L 100.5 463.3 L 99.2 466.8 L 97.6 470.1 L 95.7 473.3 L 93.5 476.3 L 91 479 L 88.3 481.5 L 85.3 483.7 L 82.1 485.6 L 78.8 487.2 L 75.3 488.5 L 71.7 489.4 L 68 489.9 L 64.3 490.1 M 64.3 490 L 33 490 L 33 889.5 L 732.2 889.5 L 732.2 490 L 701.8 490 M 701.8 490.1 L 698.1 489.9 L 694.4 489.4 L 690.8 488.5 L 687.3 487.2 L 684 485.6 L 680.8 483.7 L 677.8 481.5 L 675.1 479 L 672.6 476.3 L 670.4 473.3 L 668.5 470.1 L 666.9 466.8 L 665.6 463.3 L 664.7 459.7 L 664.2 456 L 664 452.3 L 664.2 448.6 L 664.7 444.9 L 665.6 441.3 L 666.9 437.8 L 668.5 434.5 L 670.4 431.3 L 672.6 428.3 L 675.1 425.6 L 677.8 423.1 L 680.8 420.9 L 684 419 L 687.3 417.4 L 690.8 416.1 L 694.4 415.2 L 698.1 414.7 L 701.8 414.5 L 732.2 414.5 L 732.2 15 L 33 15 M 201.8 414.5 L 564.3 414.5 L 568 414.7 L 571.7 415.2 L 575.3 416.1 L 578.8 417.4 L 582.1 419 L 585.3 420.9 L 588.3 423.1 L 591 425.6 L 593.5 428.3 L 595.7 431.3 L 597.6 434.5 L 599.2 437.8 L 600.5 441.3 L 601.4 444.9 L 601.9 448.6 L 602.1 452.3 L 601.9 456 L 601.4 459.7 L 600.5 463.3 L 599.2 466.8 L 597.6 470.1 L 595.7 473.3 L 593.5 476.3 L 591 479 L 588.3 481.5 L 585.3 483.7 L 582.1 485.6 L 578.8 487.2 L 575.3 488.5 L 571.7 489.4 L 568 489.9 L 564.3 490.1 M 564.3 490 L 201.8 490 M 201.8 490.1 L 198.1 489.9 L 194.4 489.4 L 190.8 488.5 L 187.3 487.2 L 184 485.6 L 180.8 483.7 L 177.8 481.5 L 175.1 479 L 172.6 476.3 L 170.4 473.3 L 168.5 470.1 L 166.9 466.8 L 165.6 463.3 L 164.7 459.7 L 164.2 456 L 164 452.3 L 164.2 448.6 L 164.7 444.9 L 165.6 441.3 L 166.9 437.8 L 168.5 434.5 L 170.4 431.3 L 172.6 428.3 L 175.1 425.6 L 177.8 423.1 L 180.8 420.9 L 184 419 L 187.3 417.4 L 190.8 416.1 L 194.4 415.2 L 198.1 414.7 L 201.8 414.5 M 143.9 427.5 L 144.1 429.3 L 144.7 430.9 L 145.6 432.4 L 146.9 433.7 L 148.4 434.6 L 150 435.2 L 151.8 435.4 L 153.6 435.2 L 155.2 434.6 L 156.7 433.7 L 158 432.4 L 158.9 430.9 L 159.5 429.3 L 159.7 427.5 L 159.5 425.7 L 158.9 424.1 L 158 422.6 L 156.7 421.3 L 155.2 420.4 L 153.6 419.8 L 151.8 419.6 L 150 419.8 L 148.4 420.4 L 146.9 421.3 L 145.6 422.6 L 144.7 424.1 L 144.1 425.7 L 143.9 427.5 M 106.4 427.5 L 106.6 429.3 L 107.2 430.9 L 108.1 432.4 L 109.4 433.7 L 110.9 434.6 L 112.5 435.2 L 114.3 435.4 L 116.1 435.2 L 117.7 434.6 L 119.2 433.7 L 120.5 432.4 L 121.4 430.9 L 122 429.3 L 122.2 427.5 L 122 425.7 L 121.4 424.1 L 120.5 422.6 L 119.2 421.3 L 117.7 420.4 L 116.1 419.8 L 114.3 419.6 L 112.5 419.8 L 110.9 420.4 L 109.4 421.3 L 108.1 422.6 L 107.2 424.1 L 106.6 425.7 L 106.4 427.5 M 106.4 477.5 L 106.6 479.3 L 107.2 480.9 L 108.1 482.4 L 109.4 483.7 L 110.9 484.6 L 112.5 485.2 L 114.3 485.4 L 116.1 485.2 L 117.7 484.6 L 119.2 483.7 L 120.5 482.4 L 121.4 480.9 L 122 479.3 L 122.2 477.5 L 122 475.7 L 121.4 474.1 L 120.5 472.6 L 119.2 471.3 L 117.7 470.4 L 116.1 469.8 L 114.3 469.6 L 112.5 469.8 L 110.9 470.4 L 109.4 471.3 L 108.1 472.6 L 107.2 474.1 L 106.6 475.7 L 106.4 477.5 M 143.9 477.5 L 144.1 479.3 L 144.7 480.9 L 145.6 482.4 L 146.9 483.7 L 148.4 484.6 L 150 485.2 L 151.8 485.4 L 153.6 485.2 L 155.2 484.6 L 156.7 483.7 L 158 482.4 L 158.9 480.9 L 159.5 479.3 L 159.7 477.5 L 159.5 475.7 L 158.9 474.1 L 158 472.6 L 156.7 471.3 L 155.2 470.4 L 153.6 469.8 L 151.8 469.6 L 150 469.8 L 148.4 470.4 L 146.9 471.3 L 145.6 472.6 L 144.7 474.1 L 144.1 475.7 L 143.9 477.5 M 606.4 477.5 L 606.6 479.3 L 607.2 480.9 L 608.1 482.4 L 609.4 483.7 L 610.9 484.6 L 612.5 485.2 L 614.3 485.4 L 616.1 485.2 L 617.7 484.6 L 619.2 483.7 L 620.5 482.4 L 621.4 480.9 L 622 479.3 L 622.2 477.5 L 622 475.7 L 621.4 474.1 L 620.5 472.6 L 619.2 471.3 L 617.7 470.4 L 616.1 469.8 L 614.3 469.6 L 612.5 469.8 L 610.9 470.4 L 609.4 471.3 L 608.1 472.6 L 607.2 474.1 L 606.6 475.7 L 606.4 477.5 M 606.4 427.5 L 606.6 429.3 L 607.2 430.9 L 608.1 432.4 L 609.4 433.7 L 610.9 434.6 L 612.5 435.2 L 614.3 435.4 L 616.1 435.2 L 617.7 434.6 L 619.2 433.7 L 620.5 432.4 L 621.4 430.9 L 622 429.3 L 622.2 427.5 L 622 425.7 L 621.4 424.1 L 620.5 422.6 L 619.2 421.3 L 617.7 420.4 L 616.1 419.8 L 614.3 419.6 L 612.5 419.8 L 610.9 420.4 L 609.4 421.3 L 608.1 422.6 L 607.2 424.1 L 606.6 425.7 L 606.4 427.5 M 643.9 427.5 L 644.1 429.3 L 644.7 430.9 L 645.6 432.4 L 646.9 433.7 L 648.4 434.6 L 650 435.2 L 651.8 435.4 L 653.6 435.2 L 655.2 434.6 L 656.7 433.7 L 658 432.4 L 658.9 430.9 L 659.5 429.3 L 659.7 427.5 L 659.5 425.7 L 658.9 424.1 L 658 422.6 L 656.7 421.3 L 655.2 420.4 L 653.6 419.8 L 651.8 419.6 L 650 419.8 L 648.4 420.4 L 646.9 421.3 L 645.6 422.6 L 644.7 424.1 L 644.1 425.7 L 643.9 427.5 M 643.9 477.5 L 644.1 479.3 L 644.7 480.9 L 645.6 482.4 L 646.9 483.7 L 648.4 484.6 L 650 485.2 L 651.8 485.4 L 653.6 485.2 L 655.2 484.6 L 656.7 483.7 L 658 482.4 L 658.9 480.9 L 659.5 479.3 L 659.7 477.5 L 659.5 475.7 L 658.9 474.1 L 658 472.6 L 656.7 471.3 L 655.2 470.4 L 653.6 469.8 L 651.8 469.6 L 650 469.8 L 648.4 470.4 L 646.9 471.3 L 645.6 472.6 L 644.7 474.1 L 644.1 475.7 L 643.9 477.5"/></g><circle cx="0" cy="0" r="9.85" id="tool-D11-pad-1036"/><polygon points="36.99992478621099,15.32587065323303 15.325870653233034,36.99992478621099 -15.325870653233029,36.99992478621099 -36.99992478621099,15.325870653233036 -36.99992478621099,-15.325870653233027 -15.325870653233054,-36.999924786210975 15.32587065323304,-36.99992478621098 36.999924786210975,-15.325870653233055" id="tool-D12-pad-1037"/><g fill="currentColor" stroke="currentColor" id="top-tsm_38"><path stroke-width="0" fill="none" d="M 33 15 L 33 414.5 L 64.3 414.5 L 68 414.7 L 71.7 415.2 L 75.3 416.1 L 78.8 417.4 L 82.1 419 L 85.3 420.9 L 88.3 423.1 L 91 425.6 L 93.5 428.3 L 95.7 431.3 L 97.6 434.5 L 99.2 437.8 L 100.5 441.3 L 101.4 444.9 L 101.9 448.6 L 102.1 452.3 L 101.9 456 L 101.4 459.7 L 100.5 463.3 L 99.2 466.8 L 97.6 470.1 L 95.7 473.3 L 93.5 476.3 L 91 479 L 88.3 481.5 L 85.3 483.7 L 82.1 485.6 L 78.8 487.2 L 75.3 488.5 L 71.7 489.4 L 68 489.9 L 64.3 490.1 M 64.3 490 L 33 490 L 33 889.5 L 732.2 889.5 L 732.2 490 L 701.8 490 M 701.8 490.1 L 698.1 489.9 L 694.4 489.4 L 690.8 488.5 L 687.3 487.2 L 684 485.6 L 680.8 483.7 L 677.8 481.5 L 675.1 479 L 672.6 476.3 L 670.4 473.3 L 668.5 470.1 L 666.9 466.8 L 665.6 463.3 L 664.7 459.7 L 664.2 456 L 664 452.3 L 664.2 448.6 L 664.7 444.9 L 665.6 441.3 L 666.9 437.8 L 668.5 434.5 L 670.4 431.3 L 672.6 428.3 L 675.1 425.6 L 677.8 423.1 L 680.8 420.9 L 684 419 L 687.3 417.4 L 690.8 416.1 L 694.4 415.2 L 698.1 414.7 L 701.8 414.5 L 732.2 414.5 L 732.2 15 L 33 15 M 201.8 414.5 L 564.3 414.5 L 568 414.7 L 571.7 415.2 L 575.3 416.1 L 578.8 417.4 L 582.1 419 L 585.3 420.9 L 588.3 423.1 L 591 425.6 L 593.5 428.3 L 595.7 431.3 L 597.6 434.5 L 599.2 437.8 L 600.5 441.3 L 601.4 444.9 L 601.9 448.6 L 602.1 452.3 L 601.9 456 L 601.4 459.7 L 600.5 463.3 L 599.2 466.8 L 597.6 470.1 L 595.7 473.3 L 593.5 476.3 L 591 479 L 588.3 481.5 L 585.3 483.7 L 582.1 485.6 L 578.8 487.2 L 575.3 488.5 L 571.7 489.4 L 568 489.9 L 564.3 490.1 M 564.3 490 L 201.8 490 M 201.8 490.1 L 198.1 489.9 L 194.4 489.4 L 190.8 488.5 L 187.3 487.2 L 184 485.6 L 180.8 483.7 L 177.8 481.5 L 175.1 479 L 172.6 476.3 L 170.4 473.3 L 168.5 470.1 L 166.9 466.8 L 165.6 463.3 L 164.7 459.7 L 164.2 456 L 164 452.3 L 164.2 448.6 L 164.7 444.9 L 165.6 441.3 L 166.9 437.8 L 168.5 434.5 L 170.4 431.3 L 172.6 428.3 L 175.1 425.6 L 177.8 423.1 L 180.8 420.9 L 184 419 L 187.3 417.4 L 190.8 416.1 L 194.4 415.2 L 198.1 414.7 L 201.8 414.5 M 143.9 427.5 L 144.1 429.3 L 144.7 430.9 L 145.6 432.4 L 146.9 433.7 L 148.4 434.6 L 150 435.2 L 151.8 435.4 L 153.6 435.2 L 155.2 434.6 L 156.7 433.7 L 158 432.4 L 158.9 430.9 L 159.5 429.3 L 159.7 427.5 L 159.5 425.7 L 158.9 424.1 L 158 422.6 L 156.7 421.3 L 155.2 420.4 L 153.6 419.8 L 151.8 419.6 L 150 419.8 L 148.4 420.4 L 146.9 421.3 L 145.6 422.6 L 144.7 424.1 L 144.1 425.7 L 143.9 427.5 M 106.4 427.5 L 106.6 429.3 L 107.2 430.9 L 108.1 432.4 L 109.4 433.7 L 110.9 434.6 L 112.5 435.2 L 114.3 435.4 L 116.1 435.2 L 117.7 434.6 L 119.2 433.7 L 120.5 432.4 L 121.4 430.9 L 122 429.3 L 122.2 427.5 L 122 425.7 L 121.4 424.1 L 120.5 422.6 L 119.2 421.3 L 117.7 420.4 L 116.1 419.8 L 114.3 419.6 L 112.5 419.8 L 110.9 420.4 L 109.4 421.3 L 108.1 422.6 L 107.2 424.1 L 106.6 425.7 L 106.4 427.5 M 106.4 477.5 L 106.6 479.3 L 107.2 480.9 L 108.1 482.4 L 109.4 483.7 L 110.9 484.6 L 112.5 485.2 L 114.3 485.4 L 116.1 485.2 L 117.7 484.6 L 119.2 483.7 L 120.5 482.4 L 121.4 480.9 L 122 479.3 L 122.2 477.5 L 122 475.7 L 121.4 474.1 L 120.5 472.6 L 119.2 471.3 L 117.7 470.4 L 116.1 469.8 L 114.3 469.6 L 112.5 469.8 L 110.9 470.4 L 109.4 471.3 L 108.1 472.6 L 107.2 474.1 L 106.6 475.7 L 106.4 477.5 M 143.9 477.5 L 144.1 479.3 L 144.7 480.9 L 145.6 482.4 L 146.9 483.7 L 148.4 484.6 L 150 485.2 L 151.8 485.4 L 153.6 485.2 L 155.2 484.6 L 156.7 483.7 L 158 482.4 L 158.9 480.9 L 159.5 479.3 L 159.7 477.5 L 159.5 475.7 L 158.9 474.1 L 158 472.6 L 156.7 471.3 L 155.2 470.4 L 153.6 469.8 L 151.8 469.6 L 150 469.8 L 148.4 470.4 L 146.9 471.3 L 145.6 472.6 L 144.7 474.1 L 144.1 475.7 L 143.9 477.5 M 606.4 477.5 L 606.6 479.3 L 607.2 480.9 L 608.1 482.4 L 609.4 483.7 L 610.9 484.6 L 612.5 485.2 L 614.3 485.4 L 616.1 485.2 L 617.7 484.6 L 619.2 483.7 L 620.5 482.4 L 621.4 480.9 L 622 479.3 L 622.2 477.5 L 622 475.7 L 621.4 474.1 L 620.5 472.6 L 619.2 471.3 L 617.7 470.4 L 616.1 469.8 L 614.3 469.6 L 612.5 469.8 L 610.9 470.4 L 609.4 471.3 L 608.1 472.6 L 607.2 474.1 L 606.6 475.7 L 606.4 477.5 M 606.4 427.5 L 606.6 429.3 L 607.2 430.9 L 608.1 432.4 L 609.4 433.7 L 610.9 434.6 L 612.5 435.2 L 614.3 435.4 L 616.1 435.2 L 617.7 434.6 L 619.2 433.7 L 620.5 432.4 L 621.4 430.9 L 622 429.3 L 622.2 427.5 L 622 425.7 L 621.4 424.1 L 620.5 422.6 L 619.2 421.3 L 617.7 420.4 L 616.1 419.8 L 614.3 419.6 L 612.5 419.8 L 610.9 420.4 L 609.4 421.3 L 608.1 422.6 L 607.2 424.1 L 606.6 425.7 L 606.4 427.5 M 643.9 427.5 L 644.1 429.3 L 644.7 430.9 L 645.6 432.4 L 646.9 433.7 L 648.4 434.6 L 650 435.2 L 651.8 435.4 L 653.6 435.2 L 655.2 434.6 L 656.7 433.7 L 658 432.4 L 658.9 430.9 L 659.5 429.3 L 659.7 427.5 L 659.5 425.7 L 658.9 424.1 L 658 422.6 L 656.7 421.3 L 655.2 420.4 L 653.6 419.8 L 651.8 419.6 L 650 419.8 L 648.4 420.4 L 646.9 421.3 L 645.6 422.6 L 644.7 424.1 L 644.1 425.7 L 643.9 427.5 M 643.9 477.5 L 644.1 479.3 L 644.7 480.9 L 645.6 482.4 L 646.9 483.7 L 648.4 484.6 L 650 485.2 L 651.8 485.4 L 653.6 485.2 L 655.2 484.6 L 656.7 483.7 L 658 482.4 L 658.9 480.9 L 659.5 479.3 L 659.7 477.5 L 659.5 475.7 L 658.9 474.1 L 658 472.6 L 656.7 471.3 L 655.2 470.4 L 653.6 469.8 L 651.8 469.6 L 650 469.8 L 648.4 470.4 L 646.9 471.3 L 645.6 472.6 L 644.7 474.1 L 644.1 475.7 L 643.9 477.5"/><use x="651.8" y="477.5" xlink:href="#tool-D11-pad-1036"/><use x="614.3" y="477.5" xlink:href="#tool-D11-pad-1036"/><use x="614.3" y="427.5" xlink:href="#tool-D11-pad-1036"/><use x="651.8" y="427.5" xlink:href="#tool-D11-pad-1036"/><use x="151.8" y="427.5" xlink:href="#tool-D11-pad-1036"/><use x="114.3" y="427.5" xlink:href="#tool-D11-pad-1036"/><use x="114.3" y="477.5" xlink:href="#tool-D11-pad-1036"/><use x="151.8" y="477.5" xlink:href="#tool-D11-pad-1036"/><use x="183" y="540" xlink:href="#tool-D12-pad-1037"/><use x="83" y="540" xlink:href="#tool-D12-pad-1037"/><use x="83" y="365" xlink:href="#tool-D12-pad-1037"/><use x="183" y="365" xlink:href="#tool-D12-pad-1037"/><use x="283" y="365" xlink:href="#tool-D12-pad-1037"/><use x="383" y="365" xlink:href="#tool-D12-pad-1037"/><use x="483" y="365" xlink:href="#tool-D12-pad-1037"/><use x="583" y="365" xlink:href="#tool-D12-pad-1037"/><use x="683" y="365" xlink:href="#tool-D12-pad-1037"/><use x="683" y="540" xlink:href="#tool-D12-pad-1037"/><use x="583" y="540" xlink:href="#tool-D12-pad-1037"/><use x="483" y="540" xlink:href="#tool-D12-pad-1037"/><use x="383" y="540" xlink:href="#tool-D12-pad-1037"/><use x="283" y="540" xlink:href="#tool-D12-pad-1037"/><use x="283" y="840" xlink:href="#tool-D12-pad-1037"/><use x="183" y="840" xlink:href="#tool-D12-pad-1037"/><use x="83" y="840" xlink:href="#tool-D12-pad-1037"/><use x="383" y="840" xlink:href="#tool-D12-pad-1037"/><use x="483" y="840" xlink:href="#tool-D12-pad-1037"/><use x="583" y="840" xlink:href="#tool-D12-pad-1037"/><use x="683" y="840" xlink:href="#tool-D12-pad-1037"/><use x="683" y="65" xlink:href="#tool-D12-pad-1037"/><use x="583" y="65" xlink:href="#tool-D12-pad-1037"/><use x="483" y="65" xlink:href="#tool-D12-pad-1037"/><use x="383" y="65" xlink:href="#tool-D12-pad-1037"/><use x="283" y="65" xlink:href="#tool-D12-pad-1037"/><use x="183" y="65" xlink:href="#tool-D12-pad-1037"/><use x="83" y="65" xlink:href="#tool-D12-pad-1037"/></g><circle cx="0" cy="0" r="7" id="tool-T1-pad-1038"/><circle cx="0" cy="0" r="7.85" id="tool-T2-pad-1039"/><circle cx="0" cy="0" r="20" id="tool-T3-pad-1040"/><g fill="currentColor" stroke="currentColor" id="top-drl_39"><use x="133" y="327.5" xlink:href="#tool-T1-pad-1038"/><use x="158" y="240" xlink:href="#tool-T1-pad-1038"/><use x="158" y="202.5" xlink:href="#tool-T1-pad-1038"/><use x="220.5" y="227.5" xlink:href="#tool-T1-pad-1038"/><use x="258" y="152.5" xlink:href="#tool-T1-pad-1038"/><use x="233" y="102.5" xlink:href="#tool-T1-pad-1038"/><use x="333" y="102.5" xlink:href="#tool-T1-pad-1038"/><use x="395.5" y="183.8" xlink:href="#tool-T1-pad-1038"/><use x="320.5" y="227.5" xlink:href="#tool-T1-pad-1038"/><use x="333" y="327.5" xlink:href="#tool-T1-pad-1038"/><use x="408" y="290" xlink:href="#tool-T1-pad-1038"/><use x="433" y="327.5" xlink:href="#tool-T1-pad-1038"/><use x="558" y="227.5" xlink:href="#tool-T1-pad-1038"/><use x="633" y="327.5" xlink:href="#tool-T1-pad-1038"/><use x="558" y="702.5" xlink:href="#tool-T1-pad-1038"/><use x="633" y="802.5" xlink:href="#tool-T1-pad-1038"/><use x="433" y="802.5" xlink:href="#tool-T1-pad-1038"/><use x="408" y="765" xlink:href="#tool-T1-pad-1038"/><use x="333" y="802.5" xlink:href="#tool-T1-pad-1038"/><use x="320.5" y="702.5" xlink:href="#tool-T1-pad-1038"/><use x="258" y="615" xlink:href="#tool-T1-pad-1038"/><use x="233" y="577.5" xlink:href="#tool-T1-pad-1038"/><use x="158" y="677.5" xlink:href="#tool-T1-pad-1038"/><use x="158" y="715" xlink:href="#tool-T1-pad-1038"/><use x="220.5" y="702.5" xlink:href="#tool-T1-pad-1038"/><use x="133" y="802.5" xlink:href="#tool-T1-pad-1038"/><use x="333" y="577.5" xlink:href="#tool-T1-pad-1038"/><use x="395.5" y="652.5" xlink:href="#tool-T1-pad-1038"/><use x="114.3" y="427.5" xlink:href="#tool-T2-pad-1039"/><use x="151.8" y="427.5" xlink:href="#tool-T2-pad-1039"/><use x="151.8" y="477.5" xlink:href="#tool-T2-pad-1039"/><use x="114.3" y="477.5" xlink:href="#tool-T2-pad-1039"/><use x="614.3" y="477.5" xlink:href="#tool-T2-pad-1039"/><use x="651.8" y="477.5" xlink:href="#tool-T2-pad-1039"/><use x="651.8" y="427.5" xlink:href="#tool-T2-pad-1039"/><use x="614.3" y="427.5" xlink:href="#tool-T2-pad-1039"/><use x="83" y="365" xlink:href="#tool-T3-pad-1040"/><use x="183" y="365" xlink:href="#tool-T3-pad-1040"/><use x="283" y="365" xlink:href="#tool-T3-pad-1040"/><use x="383" y="365" xlink:href="#tool-T3-pad-1040"/><use x="483" y="365" xlink:href="#tool-T3-pad-1040"/><use x="583" y="365" xlink:href="#tool-T3-pad-1040"/><use x="583" y="540" xlink:href="#tool-T3-pad-1040"/><use x="683" y="365" xlink:href="#tool-T3-pad-1040"/><use x="683" y="540" xlink:href="#tool-T3-pad-1040"/><use x="483" y="540" xlink:href="#tool-T3-pad-1040"/><use x="383" y="540" xlink:href="#tool-T3-pad-1040"/><use x="283" y="540" xlink:href="#tool-T3-pad-1040"/><use x="183" y="540" xlink:href="#tool-T3-pad-1040"/><use x="83" y="540" xlink:href="#tool-T3-pad-1040"/><use x="83" y="840" xlink:href="#tool-T3-pad-1040"/><use x="183" y="840" xlink:href="#tool-T3-pad-1040"/><use x="283" y="840" xlink:href="#tool-T3-pad-1040"/><use x="383" y="840" xlink:href="#tool-T3-pad-1040"/><use x="483" y="840" xlink:href="#tool-T3-pad-1040"/><use x="583" y="840" xlink:href="#tool-T3-pad-1040"/><use x="683" y="840" xlink:href="#tool-T3-pad-1040"/><use x="683" y="65" xlink:href="#tool-T3-pad-1040"/><use x="583" y="65" xlink:href="#tool-T3-pad-1040"/><use x="483" y="65" xlink:href="#tool-T3-pad-1040"/><use x="383" y="65" xlink:href="#tool-T3-pad-1040"/><use x="283" y="65" xlink:href="#tool-T3-pad-1040"/><use x="183" y="65" xlink:href="#tool-T3-pad-1040"/><use x="83" y="65" xlink:href="#tool-T3-pad-1040"/></g><mask id="top-sm_40" color="#fff"><use xlink:href="#top-tcu_35"/></mask><mask id="top-sm_41" color="#000"><rect class="Board--cover" fill="#fff" x="32.9" y="14.9" width="699.4000000000001" height="874.7"/><use xlink:href="#top-tsm_38"/></mask><mask id="top-mech_42" color="#000"><rect class="Board--cover" fill="#fff" x="32.9" y="14.9" width="699.4000000000001" height="874.7"/><use xlink:href="#top-drl_39"/></mask></defs><g transform="translate(0,904.5) scale(1,-1)" mask="url(#top-mech_42)"><rect class="Board--board" fill="currentColor" x="32.9" y="14.9" width="699.4000000000001" height="874.7"/><use class="Board--cu" xlink:href="#top-tcu_35"/><use class="Board--cf" mask="url(#top-sm_40)" xlink:href="#top-tsm_38"/><g mask="url(#top-sm_41)"><rect class="Board--sm" fill="currentColor" x="32.9" y="14.9" width="699.4000000000001" height="874.7"/><use class="Board--ss" xlink:href="#top-tss_36"/></g><use class="Board--sp" xlink:href="#top-tsp_37"/><use class="Board--out" xlink:href="#top-out_34"/></g></svg>