<svg xmlns="http://www.w3.org/2000/svg" version="1.1" xmlns:xlink="http://www.w3.org/1999/xlink" width="0.6994000000000001in" height="0.8747in" viewBox="32.9 14.9 699.4000000000001 874.7" stroke-linecap="round" stroke-linejoin="round" stroke-width="0" stroke="#000" class="Board"><style type="text/css"> .Board--board { color: dimgrey; } .Board--cu { color: lightgrey; } .Board--cf { color: goldenrod; } .Board--sm { color: black; opacity: 0.75; } .Board--ss { color: white; } .Board--sp { color: silver; } .Board--out { color: black; } </style><defs><rect x="-21.25" y="-20.65" width="42.5" height="41.3" id="tool-D11-pad-1001"/><rect x="-7.85" y="-13.8" width="15.7" height="27.6" id="tool-D12-pad-1002"/><polygon points="34.99992885182121,14.497445212517734 14.497445212517738,34.99992885182121 -14.497445212517732,34.99992885182121 -34.99992885182121,14.49744521251774 -34.99992885182122,-14.49744521251773 -14.497445212517755,-34.9999288518212 14.497445212517743,-34.99992885182121 34.9999288518212,-14.497445212517757" id="tool-D13-pad-1003"/><circle cx="0" cy="0" r="13" id="tool-D15-pad-1005"/><g fill="currentColor" stroke="currentColor" id="bottom-bcu_43"><path stroke-width="0" fill="none" d="M 33 15 L 33 414.5 L 64.3 414.5 L 68 414.7 L 71.7 415.2 L 75.3 416.1 L 78.8 417.4 L 82.1 419 L 85.3 420.9 L 88.3 423.1 L 91 425.6 L 93.5 428.3 L 95.7 431.3 L 97.6 434.5 L 99.2 437.8 L 100.5 441.3 L 101.4 444.9 L 101.9 448.6 L 102.1 452.3 L 101.9 456 L 101.4 459.7 L 100.5 463.3 L 99.2 466.8 L 97.6 470.1 L 95.7 473.3 L 93.5 476.3 L 91 479 L 88.3 481.5 L 85.3 483.7 L 82.1 485.6 L 78.8 487.2 L 75.3 488.5 L 71.7 489.4 L 68 489.9 L 64.3 490.1 M 64.3 490 L 33 490 L 33 889.5 L 732.2 889.5 L 732.2 490 L 701.8 490 M 701.8 490.1 L 698.1 489.9 L 694.4 489.4 L 690.8 488.5 L 687.3 487.2 L 684 485.6 L 680.8 483.7 L 677.8 481.5 L 675.1 479 L 672.6 476.3 L 670.4 473.3 L 668.5 470.1 L 666.9 466.8 L 665.6 463.3 L 664.7 459.7 L 664.2 456 L 664 452.3 L 664.2 448.6 L 664.7 444.9 L 665.6 441.3 L 666.9 437.8 L 668.5 434.5 L 670.4 431.3 L 672.6 428.3 L 675.1 425.6 L 677.8 423.1 L 680.8 420.9 L 684 419 L 687.3 417.4 L 690.8 416.1 L 694.4 415.2 L 698.1 414.7 L 701.8 414.5 L 732.2 414.5 L 732.2 15 L 33 15 M 201.8 414.5 L 564.3 414.5 L 568 414.7 L 571.7 415.2 L 575.3 416.1 L 578.8 417.4 L 582.1 419 L 585.3 420.9 L 588.3 423.1 L 591 425.6 L 593.5 428.3 L 595.7 431.3 L 597.6 434.5 L 599.2 437.8 L 600.5 441.3 L 601.4 444.9 L 601.9 448.6 L 602.1 452.3 L 601.9 456 L 601.4 459.7 L 600.5 463.3 L 599.2 466.8 L 597.6 470.1 L 595.7 473.3 L 593.5 476.3 L 591 479 L 588.3 481.5 L 585.3 483.7 L 582.1 485.6 L 578.8 487.2 L 575.3 488.5 L 571.7 489.4 L 568 489.9 L 564.3 490.1 M 564.3 490 L 201.8 490 M 201.8 490.1 L 198.1 489.9 L 194.4 489.4 L 190.8 488.5 L 187.3 487.2 L 184 485.6 L 180.8 483.7 L 177.8 481.5 L 175.1 479 L 172.6 476.3 L 170.4 473.3 L 168.5 470.1 L 166.9 466.8 L 165.6 463.3 L 164.7 459.7 L 164.2 456 L 164 452.3 L 164.2 448.6 L 164.7 444.9 L 165.6 441.3 L 166.9 437.8 L 168.5 434.5 L 170.4 431.3 L 172.6 428.3 L 175.1 425.6 L 177.8 423.1 L 180.8 420.9 L 184 419 L 187.3 417.4 L 190.8 416.1 L 194.4 415.2 L 198.1 414.7 L 201.8 414.5 M 143.9 427.5 L 144.1 429.3 L 144.7 430.9 L 145.6 432.4 L 146.9 433.7 L 148.4 434.6 L 150 435.2 L 151.8 435.4 L 153.6 435.2 L 155.2 434.6 L 156.7 433.7 L 158 432.4 L 158.9 430.9 L 159.5 429.3 L 159.7 427.5 L 159.5 425.7 L 158.9 424.1 L 158 422.6 L 156.7 421.3 L 155.2 420.4 L 153.6 419.8 L 151.8 419.6 L 150 419.8 L 148.4 420.4 L 146.9 421.3 L 145.6 422.6 L 144.7 424.1 L 144.1 425.7 L 143.9 427.5 M 106.4 427.5 L 106.6 429.3 L 107.2 430.9 L 108.1 432.4 L 109.4 433.7 L 110.9 434.6 L 112.5 435.2 L 114.3 435.4 L 116.1 435.2 L 117.7 434.6 L 119.2 433.7 L 120.5 432.4 L 121.4 430.9 L 122 429.3 L 122.2 427.5 L 122 425.7 L 121.4 424.1 L 120.5 422.6 L 119.2 421.3 L 117.7 420.4 L 116.1 419.8 L 114.3 419.6 L 112.5 419.8 L 110.9 420.4 L 109.4 421.3 L 108.1 422.6 L 107.2 424.1 L 106.6 425.7 L 106.4 427.5 M 106.4 477.5 L 106.6 479.3 L 107.2 480.9 L 108.1 482.4 L 109.4 483.7 L 110.9 484.6 L 112.5 485.2 L 114.3 485.4 L 116.1 485.2 L 117.7 484.6 L 119.2 483.7 L 120.5 482.4 L 121.4 480.9 L 122 479.3 L 122.2 477.5 L 122 475.7 L 121.4 474.1 L 120.5 472.6 L 119.2 471.3 L 117.7 470.4 L 116.1 469.8 L 114.3 469.6 L 112.5 469.8 L 110.9 470.4 L 109.4 471.3 L 108.1 472.6 L 107.2 474.1 L 106.6 475.7 L 106.4 477.5 M 143.9 477.5 L 144.1 479.3 L 144.7 480.9 L 145.6 482.4 L 146.9 483.7 L 148.4 484.6 L 150 485.2 L 151.8 485.4 L 153.6 485.2 L 155.2 484.6 L 156.7 483.7 L 158 482.4 L 158.9 480.9 L 159.5 479.3 L 159.7 477.5 L 159.5 475.7 L 158.9 474.1 L 158 472.6 L 156.7 471.3 L 155.2 470.4 L 153.6 469.8 L 151.8 469.6 L 150 469.8 L 148.4 470.4 L 146.9 471.3 L 145.6 472.6 L 144.7 474.1 L 144.1 475.7 L 143.9 477.5 M 606.4 477.5 L 606.6 479.3 L 607.2 480.9 L 608.1 482.4 L 609.4 483.7 L 610.9 484.6 L 612.5 485.2 L 614.3 485.4 L 616.1 485.2 L 617.7 484.6 L 619.2 483.7 L 620.5 482.4 L 621.4 480.9 L 622 479.3 L 622.2 477.5 L 622 475.7 L 621.4 474.1 L 620.5 472.6 L 619.2 471.3 L 617.7 470.4 L 616.1 469.8 L 614.3 469.6 L 612.5 469.8 L 610.9 470.4 L 609.4 471.3 L 608.1 472.6 L 607.2 474.1 L 606.6 475.7 L 606.4 477.5 M 606.4 427.5 L 606.6 429.3 L 607.2 430.9 L 608.1 432.4 L 609.4 433.7 L 610.9 434.6 L 612.5 435.2 L 614.3 435.4 L 616.1 435.2 L 617.7 434.6 L 619.2 433.7 L 620.5 432.4 L 621.4 430.9 L 622 429.3 L 622.2 427.5 L 622 425.7 L 621.4 424.1 L 620.5 422.6 L 619.2 421.3 L 617.7 420.4 L 616.1 419.8 L 614.3 419.6 L 612.5 419.8 L 610.9 420.4 L 609.4 421.3 L 608.1 422.6 L 607.2 424.1 L 606.6 425.7 L 606.4 427.5 M 643.9 427.5 L 644.1 429.3 L 644.7 430.9 L 645.6 432.4 L 646.9 433.7 L 648.4 434.6 L 650 435.2 L 651.8 435.4 L 653.6 435.2 L 655.2 434.6 L 656.7 433.7 L 658 432.4 L 658.9 430.9 L 659.5 429.3 L 659.7 427.5 L 659.5 425.7 L 658.9 424.1 L 658 422.6 L 656.7 421.3 L 655.2 420.4 L 653.6 419.8 L 651.8 419.6 L 650 419.8 L 648.4 420.4 L 646.9 421.3 L 645.6 422.6 L 644.7 424.1 L 644.1 425.7 L 643.9 427.5 M 643.9 477.5 L 644.1 479.3 L 644.7 480.9 L 645.6 482.4 L 646.9 483.7 L 648.4 484.6 L 650 485.2 L 651.8 485.4 L 653.6 485.2 L 655.2 484.6 L 656.7 483.7 L 658 482.4 L 658.9 480.9 L 659.5 479.3 L 659.7 477.5 L 659.5 475.7 L 658.9 474.1 L 658 472.6 L 656.7 471.3 L 655.2 470.4 L 653.6 469.8 L 651.8 469.6 L 650 469.8 L 648.4 470.4 L 646.9 471.3 L 645.6 472.6 L 644.7 474.1 L 644.1 475.7 L 643.9 477.5"/><use x="95.5" y="655.6" xlink:href="#tool-D11-pad-1001"/><use x="95.5" y="724.4" xlink:href="#tool-D11-pad-1001"/><use x="95.5" y="249.4" xlink:href="#tool-D11-pad-1001"/><use x="95.5" y="180.6" xlink:href="#tool-D11-pad-1001"/><use x="194.9" y="194" xlink:href="#tool-D12-pad-1002"/><use x="220.5" y="194" xlink:href="#tool-D12-pad-1002"/><use x="246.1" y="194" xlink:href="#tool-D12-pad-1002"/><use x="294.9" y="194" xlink:href="#tool-D12-pad-1002"/><use x="346.1" y="194" xlink:href="#tool-D12-pad-1002"/><use x="346.1" y="261" xlink:href="#tool-D12-pad-1002"/><use x="320.5" y="261" xlink:href="#tool-D12-pad-1002"/><use x="294.9" y="261" xlink:href="#tool-D12-pad-1002"/><use x="246.1" y="261" xlink:href="#tool-D12-pad-1002"/><use x="194.9" y="261" xlink:href="#tool-D12-pad-1002"/><use x="432.4" y="261" xlink:href="#tool-D12-pad-1002"/><use x="458" y="261" xlink:href="#tool-D12-pad-1002"/><use x="483.6" y="261" xlink:href="#tool-D12-pad-1002"/><use x="532.4" y="261" xlink:href="#tool-D12-pad-1002"/><use x="558" y="261" xlink:href="#tool-D12-pad-1002"/><use x="583.6" y="261" xlink:href="#tool-D12-pad-1002"/><use x="583.6" y="194" xlink:href="#tool-D12-pad-1002"/><use x="532.4" y="194" xlink:href="#tool-D12-pad-1002"/><use x="483.6" y="194" xlink:href="#tool-D12-pad-1002"/><use x="432.4" y="194" xlink:href="#tool-D12-pad-1002"/><use x="432.4" y="669" xlink:href="#tool-D12-pad-1002"/><use x="483.6" y="669" xlink:href="#tool-D12-pad-1002"/><use x="532.4" y="669" xlink:href="#tool-D12-pad-1002"/><use x="583.6" y="669" xlink:href="#tool-D12-pad-1002"/><use x="583.6" y="736" xlink:href="#tool-D12-pad-1002"/><use x="558" y="736" xlink:href="#tool-D12-pad-1002"/><use x="532.4" y="736" xlink:href="#tool-D12-pad-1002"/><use x="483.6" y="736" xlink:href="#tool-D12-pad-1002"/><use x="458" y="736" xlink:href="#tool-D12-pad-1002"/><use x="432.4" y="736" xlink:href="#tool-D12-pad-1002"/><use x="346.1" y="736" xlink:href="#tool-D12-pad-1002"/><use x="320.5" y="736" xlink:href="#tool-D12-pad-1002"/><use x="294.9" y="736" xlink:href="#tool-D12-pad-1002"/><use x="246.1" y="736" xlink:href="#tool-D12-pad-1002"/><use x="194.9" y="736" xlink:href="#tool-D12-pad-1002"/><use x="194.9" y="669" xlink:href="#tool-D12-pad-1002"/><use x="220.5" y="669" xlink:href="#tool-D12-pad-1002"/><use x="246.1" y="669" xlink:href="#tool-D12-pad-1002"/><use x="294.9" y="669" xlink:href="#tool-D12-pad-1002"/><use x="346.1" y="669" xlink:href="#tool-D12-pad-1002"/><use x="383" y="540" xlink:href="#tool-D13-pad-1003"/><use x="483" y="540" xlink:href="#tool-D13-pad-1003"/><use x="583" y="540" xlink:href="#tool-D13-pad-1003"/><use x="683" y="540" xlink:href="#tool-D13-pad-1003"/><use x="683" y="365" xlink:href="#tool-D13-pad-1003"/><use x="583" y="365" xlink:href="#tool-D13-pad-1003"/><use x="483" y="365" xlink:href="#tool-D13-pad-1003"/><use x="383" y="365" xlink:href="#tool-D13-pad-1003"/><use x="283" y="365" xlink:href="#tool-D13-pad-1003"/><use x="183" y="365" xlink:href="#tool-D13-pad-1003"/><use x="83" y="365" xlink:href="#tool-D13-pad-1003"/><use x="83" y="540" xlink:href="#tool-D13-pad-1003"/><use x="183" y="540" xlink:href="#tool-D13-pad-1003"/><use x="283" y="540" xlink:href="#tool-D13-pad-1003"/><use x="283" y="840" xlink:href="#tool-D13-pad-1003"/><use x="183" y="840" xlink:href="#tool-D13-pad-1003"/><use x="83" y="840" xlink:href="#tool-D13-pad-1003"/><use x="383" y="840" xlink:href="#tool-D13-pad-1003"/><use x="483" y="840" xlink:href="#tool-D13-pad-1003"/><use x="583" y="840" xlink:href="#tool-D13-pad-1003"/><use x="683" y="840" xlink:href="#tool-D13-pad-1003"/><use x="683" y="65" xlink:href="#tool-D13-pad-1003"/><use x="583" y="65" xlink:href="#tool-D13-pad-1003"/><use x="483" y="65" xlink:href="#tool-D13-pad-1003"/><use x="383" y="65" xlink:href="#tool-D13-pad-1003"/><use x="283" y="65" xlink:href="#tool-D13-pad-1003"/><use x="183" y="65" xlink:href="#tool-D13-pad-1003"/><use x="83" y="65" xlink:href="#tool-D13-pad-1003"/><path stroke-width="10" fill="none" d="M 111.6 30 L 128 46.4 L 128 83.6 L 101.6 110 L 64.4 110 L 48 93.6 L 48 336.4 L 64.4 320 L 65 320 L 65 295 L 77.5 282.5 L 77.5 280.1 L 70.1 280.1 L 64.2 274.3 L 64.2 224.6 L 70.1 218.8 L 120.9 218.8 L 126.8 224.6 L 126.8 274 L 164.6 274 L 174 283.4 L 177.1 286.5 L 213.9 286.5 L 228.2 272.2 L 228.2 243 L 234.1 237.2 L 247.2 237.2 L 277 207.4 L 277 176.1 L 278.9 174.2 L 278.9 164.1 L 267.5 175.5 L 263.4 175.5 L 264 176.1 L 264 212 L 258.1 217.8 L 234.1 217.8 L 233.3 217 L 232.5 217.8 L 214 217.8 L 212 219.8 L 208.6 221.8 L 204.8 222.8 L 194.9 222.8 L 185.1 222.8 L 181.2 221.8 L 177.8 219.8 L 175 217 L 173.1 213.6 L 172 209.8 L 172 194 L 172 178.3 L 173.1 174.5 L 175 171 L 177.8 168.3 L 181.2 166.3 L 185.1 165.3 L 194.9 165.3 L 194.9 194 L 194.9 194 L 194.9 165.3 L 204.5 165.3 L 204.5 146.6 L 176.4 118.5 L 167.9 110 L 164.4 110 L 138 83.6 L 138 46.4 L 154.4 30 L 111.6 30 M 116.3 34.7 L 149.7 34.7 M 139.8 44.6 L 126.2 44.6 M 128 54.4 L 138 54.4 M 138 64.3 L 128 64.3 M 128 74.1 L 138 74.1 M 138.3 84 L 127.7 84 M 117.8 93.8 L 148.2 93.8 M 158 103.7 L 108 103.7 M 100.5 144.9 L 118.7 144.9 L 122.5 145.9 L 126 147.9 L 128.8 150.7 L 130.7 154.1 L 131.8 157.9 L 131.8 175.6 L 100.5 175.6 L 100.5 185.6 L 90.5 185.6 L 90.5 216.2 L 72.3 216.2 L 68.5 215.2 L 65 213.2 L 62.2 210.4 L 60.3 207 L 59.2 203.2 L 59.2 185.6 L 90.5 185.6 L 90.5 175.6 L 59.2 175.6 L 59.2 157.9 L 60.3 154.1 L 62.2 150.7 L 65 147.9 L 68.5 145.9 L 72.3 144.9 L 90.5 144.9 L 90.5 175.6 L 100.5 175.6 L 100.5 144.9 M 100.5 152.9 L 90.5 152.9 M 90.5 162.8 L 100.5 162.8 M 100.5 172.6 L 90.5 172.6 M 90.5 182.5 L 48 182.5 M 48 192.3 L 59.2 192.3 M 59.2 202.2 L 48 202.2 M 48 212 L 63.8 212 M 67 221.9 L 48 221.9 M 48 231.7 L 64.2 231.7 M 64.2 241.6 L 48 241.6 M 48 251.4 L 64.2 251.4 M 64.2 261.3 L 48 261.3 M 48 271.1 L 64.2 271.1 M 77.5 281 L 48 281 M 48 290.8 L 69.2 290.8 M 65 300.7 L 48 300.7 M 48 310.5 L 65 310.5 M 64 320.4 L 48 320.4 M 48 330.2 L 54.2 330.2 M 101 320 L 101 310 L 103 308 L 105 306 L 151.4 306 L 163.9 318.5 L 177.1 318.5 L 219.4 318.5 L 209.8 328.1 L 201.6 320 L 164.4 320 L 138 346.4 L 138 383.6 L 154.4 400 L 111.6 400 L 128 383.6 L 128 346.4 L 101.6 320 L 101 320 M 102 320.4 L 164 320.4 M 155.9 310.5 L 101 310.5 M 111.8 330.2 L 154.2 330.2 M 144.3 340.1 L 121.7 340.1 M 128 349.9 L 138 349.9 M 138 359.8 L 128 359.8 M 128 369.6 L 138 369.6 M 138 379.5 L 128 379.5 M 122.3 389.3 L 143.7 389.3 M 153.5 399.2 L 112.5 399.2 M 202 320.4 L 217.5 320.4 M 206.9 284.7 L 182.9 284.7 L 177 278.9 L 177 277 L 172.3 277 L 158.4 263 L 148.5 263 L 135 249.5 L 135 230.5 L 148.5 217 L 167.5 217 L 181 230.5 L 181 239.1 L 182.9 237.2 L 206.9 237.2 L 212.8 243 L 212.8 278.9 L 206.9 284.7 M 210.7 281 L 219.4 281 M 212.8 271.1 L 228.2 271.1 M 228.2 261.3 L 212.8 261.3 M 212.8 251.4 L 228.2 251.4 M 229.7 241.6 L 211.3 241.6 M 208.4 221.9 L 262.6 221.9 M 263.9 212 L 272.4 212 M 277 202.2 L 264 202.2 M 264 192.3 L 277 192.3 M 277 182.5 L 264 182.5 M 270.4 172.6 L 278.9 172.6 M 281 156.9 L 304.5 133.4 L 313.9 124 L 402.1 124 L 411.5 133.4 L 448.4 170.3 L 448.4 174.2 L 450.3 176.1 L 450.3 177 L 465.7 177 L 465.7 176.1 L 467.6 174.2 L 467.6 157.8 L 539.9 85.5 L 538 83.6 L 538 46.4 L 554.4 30 L 511.6 30 L 528 46.4 L 528 83.6 L 501.6 110 L 464.4 110 L 438 83.6 L 438 46.4 L 454.4 30 L 411.6 30 L 428 46.4 L 428 83.6 L 401.6 110 L 364.4 110 L 338 83.6 L 338 46.4 L 354.4 30 L 311.6 30 L 328 46.4 L 328 83.6 L 301.6 110 L 264.4 110 L 238 83.6 L 238 46.4 L 254.4 30 L 211.6 30 L 228 46.4 L 228 83.6 L 207.4 104.3 L 236.5 133.4 L 236.5 141.5 L 248.5 129.5 L 267.5 129.5 L 281 143 L 281 156.9 M 281 152.9 L 285 152.9 M 281 143.1 L 294.8 143.1 M 304.7 133.2 L 271.2 133.2 M 258 103.7 L 208 103.7 M 216.6 113.5 L 511.9 113.5 M 508 103.7 L 521.7 103.7 M 517.8 93.8 L 531.6 93.8 M 527.7 84 L 538.3 84 M 538 74.1 L 528 74.1 M 528 64.3 L 538 64.3 M 538 54.4 L 528 54.4 M 526.2 44.6 L 539.8 44.6 M 549.7 34.7 L 516.3 34.7 M 562.5 108.1 L 499.6 171 L 499.6 174.2 L 501.5 176.1 L 501.5 202.4 L 514.5 189.3 L 514.5 176.1 L 520.4 170.3 L 544.4 170.3 L 550.3 176.1 L 550.3 212 L 544.4 217.8 L 531.3 217.8 L 505.9 243.2 L 506.5 245.2 L 506.5 261 L 506.5 276.7 L 505.4 280.5 L 503.5 284 L 500.7 286.7 L 497.3 288.7 L 493.4 289.7 L 483.6 289.7 L 483.6 261 L 483.6 261 L 483.6 289.7 L 473.7 289.7 L 469.9 288.7 L 469.6 288.5 L 461.5 296.6 L 452.1 306 L 424.5 306 L 417.5 313 L 399 313 L 399 320 L 401.6 320 L 428 346.4 L 428 383.6 L 412.1 399.5 L 453.9 399.5 L 438 383.6 L 438 346.4 L 464.4 320 L 501.6 320 L 503.5 321.9 L 516.4 309 L 516.4 280.8 L 514.5 278.9 L 514.5 243 L 520.4 237.2 L 544.4 237.2 L 545.2 238 L 546 237.2 L 564.5 237.2 L 566.5 235.2 L 569.9 233.2 L 573.7 232.2 L 583.6 232.2 L 593.4 232.2 L 597.3 233.2 L 600.7 235.2 L 603.5 238 L 605.4 241.4 L 606.5 245.2 L 606.5 261 L 606.5 276.7 L 605.4 280.5 L 603.5 284 L 600.7 286.7 L 597.3 288.7 L 593.4 289.7 L 583.6 289.7 L 583.6 261 L 583.6 261 L 583.6 289.7 L 580.4 289.7 L 599 308.4 L 599 320 L 601.6 320 L 628 346.4 L 628 383.6 L 611.6 400 L 654.4 400 L 638 383.6 L 638 346.4 L 664.4 320 L 667 320 L 667 234.1 L 642.9 210 L 601.5 210 L 601.5 212 L 595.6 217.8 L 571.6 217.8 L 565.7 212 L 565.7 176.1 L 571.6 170.3 L 595.6 170.3 L 601.5 176.1 L 601.5 178 L 656.2 178 L 689.6 211.5 L 699 220.9 L 699 320 L 701.6 320 L 717.2 335.6 L 717.2 101.5 L 703.7 115 L 688 115 L 688 70 L 678 70 L 678 115 L 662.3 115 L 633 85.7 L 633 70 L 678 70 L 678 60 L 633 60 L 633 44.3 L 647.3 30 L 611.6 30 L 628 46.4 L 628 83.6 L 601.6 110 L 564.4 110 L 562.5 108.1 M 557.1 113.5 L 660.8 113.5 M 650.9 103.7 L 608 103.7 M 617.8 93.8 L 641.1 93.8 M 633 84 L 627.7 84 M 628 74.1 L 633 74.1 M 628 64.3 L 678 64.3 M 678 74.1 L 688 74.1 M 688 84 L 678 84 M 678 93.8 L 688 93.8 M 688 103.7 L 678 103.7 M 678 113.5 L 688 113.5 M 705.2 113.5 L 717.2 113.5 M 717.2 103.7 L 715.1 103.7 M 717.2 123.4 L 547.3 123.4 M 537.4 133.2 L 717.2 133.2 M 717.2 143.1 L 527.6 143.1 M 517.7 152.9 L 717.2 152.9 M 717.2 162.8 L 507.9 162.8 M 499.6 172.6 L 518 172.6 M 514.5 182.5 L 501.5 182.5 M 501.5 192.3 L 511.5 192.3 M 501.7 202.2 L 501.5 202.2 M 517.4 231.7 L 664.6 231.7 M 667 241.6 L 605.5 241.6 M 606.5 251.4 L 667 251.4 M 667 261.3 L 606.5 261.3 M 606.5 261 L 583.6 261 L 583.6 261 L 606.5 261 M 606.5 271.1 L 667 271.1 M 667 281 L 605.2 281 M 591.3 300.7 L 667 300.7 M 667 310.5 L 599 310.5 M 602 320.4 L 664 320.4 M 654.2 330.2 L 611.8 330.2 M 621.7 340.1 L 644.3 340.1 M 638 349.9 L 628 349.9 M 628 359.8 L 638 359.8 M 638 369.6 L 628 369.6 M 628 379.5 L 638 379.5 M 643.7 389.3 L 622.3 389.3 M 612.5 399.2 L 653.5 399.2 M 711.8 330.2 L 717.2 330.2 M 717.2 320.4 L 702 320.4 M 699 310.5 L 717.2 310.5 M 717.2 300.7 L 699 300.7 M 699 290.8 L 717.2 290.8 M 717.2 281 L 699 281 M 699 271.1 L 717.2 271.1 M 717.2 261.3 L 699 261.3 M 699 251.4 L 717.2 251.4 M 717.2 241.6 L 699 241.6 M 699 231.7 L 717.2 231.7 M 717.2 221.9 L 699 221.9 M 690.1 212 L 717.2 212 M 717.2 202.2 L 680.3 202.2 M 670.4 192.3 L 717.2 192.3 M 717.2 182.5 L 660.6 182.5 M 644.9 212 L 601.4 212 M 583.6 232.2 L 583.6 261 L 583.6 261 L 583.6 232.2 M 583.6 241.6 L 583.6 241.6 M 583.6 251.4 L 583.6 251.4 M 583.6 261.3 L 583.6 261.3 M 583.6 271.1 L 583.6 271.1 M 583.6 281 L 583.6 281 M 581.4 290.8 L 667 290.8 M 654.7 221.9 L 527.2 221.9 M 516 241.6 L 507.5 241.6 M 506.5 251.4 L 514.5 251.4 M 514.5 261.3 L 506.5 261.3 M 506.5 261 L 483.6 261 L 483.6 261 L 506.5 261 M 506.5 271.1 L 514.5 271.1 M 516.4 281 L 505.2 281 M 516.4 290.8 L 467.3 290.8 M 457.5 300.7 L 516.4 300.7 M 514.9 310.5 L 420 310.5 M 411.8 330.2 L 454.2 330.2 M 464 320.4 L 402 320.4 M 421.7 340.1 L 444.3 340.1 M 438 349.9 L 428 349.9 M 428 359.8 L 438 359.8 M 438 369.6 L 428 369.6 M 428 379.5 L 438 379.5 M 443.7 389.3 L 422.3 389.3 M 412.5 399.2 L 453.5 399.2 M 502 320.4 L 505 320.4 M 483.6 281 L 483.6 281 M 483.6 271.1 L 483.6 271.1 M 483.6 261.3 L 483.6 261.3 M 550.2 212 L 565.8 212 M 565.7 202.2 L 550.3 202.2 M 550.3 192.3 L 565.7 192.3 M 565.7 182.5 L 550.3 182.5 M 546.8 172.6 L 569.2 172.6 M 598 172.6 L 717.2 172.6 M 633 54.4 L 628 54.4 M 626.2 44.6 L 633 44.6 M 642.6 34.7 L 616.3 34.7 M 502 123.4 L 226.5 123.4 M 236.3 133.2 L 244.8 133.2 M 248.2 93.8 L 217.8 93.8 M 227.7 84 L 238.3 84 M 238 74.1 L 228 74.1 M 228 64.3 L 238 64.3 M 238 54.4 L 228 54.4 M 226.2 44.6 L 239.8 44.6 M 249.7 34.7 L 216.3 34.7 M 171.4 113.5 L 48 113.5 M 48 103.7 L 58 103.7 M 48.2 93.8 L 48 93.8 M 48 123.4 L 181.2 123.4 M 191.1 133.2 L 48 133.2 M 48 143.1 L 200.9 143.1 M 204.5 152.9 L 130 152.9 M 131.8 162.8 L 204.5 162.8 M 194.9 172.6 L 194.9 172.6 M 194.9 182.5 L 194.9 182.5 M 194.9 192.3 L 194.9 192.3 M 194.9 194 L 172 194 L 194.9 194 L 194.9 194 L 194.9 222.8 L 194.9 194 L 194.9 194 M 194.9 202.2 L 194.9 202.2 M 194.9 212 L 194.9 212 M 194.9 221.9 L 194.9 221.9 M 181.5 221.9 L 172.4 221.9 M 172.6 212 L 127.2 212 M 126 213.2 L 122.5 215.2 L 118.7 216.2 L 100.5 216.2 L 100.5 185.6 L 131.8 185.6 L 131.8 203.2 L 130.7 207 L 128.8 210.4 L 126 213.2 M 124 221.9 L 143.6 221.9 M 135 231.7 L 126.8 231.7 M 126.8 241.6 L 135 241.6 M 136.9 251.4 L 126.8 251.4 M 126.8 261.3 L 146.7 261.3 M 166.5 271.1 L 126.8 271.1 M 171.6 281 L 179.1 281 M 181 231.7 L 252.7 231.7 M 308.5 231.7 L 367 231.7 M 363.2 235.2 L 366 238 L 367 239.8 L 367 221.6 L 360.6 215.3 L 358.1 217.8 L 334.1 217.8 L 328.2 212 L 328.2 176.1 L 334.1 170.3 L 358.1 170.3 L 364 176.1 L 364 178 L 368.7 178 L 372.5 181.9 L 372.5 174.2 L 386 160.8 L 393.6 160.8 L 388.9 156 L 327.1 156 L 310.9 172.2 L 310.9 174.2 L 312.8 176.1 L 312.8 212 L 310.9 213.8 L 310.9 218.8 L 308.5 221.2 L 308.5 237.2 L 327 237.2 L 329 235.2 L 332.4 233.2 L 336.2 232.2 L 346.1 232.2 L 355.9 232.2 L 359.8 233.2 L 363.2 235.2 M 367 221.9 L 308.5 221.9 M 312.7 212 L 328.3 212 M 328.2 202.2 L 312.8 202.2 M 312.8 192.3 L 328.2 192.3 M 328.2 182.5 L 312.8 182.5 M 310.9 172.6 L 331.7 172.6 M 320.4 162.8 L 384 162.8 M 374.1 172.6 L 360.5 172.6 M 346.1 232.2 L 346.1 261 L 346.1 261 L 346.1 289.7 L 355.9 289.7 L 359.8 288.7 L 363.2 286.7 L 366 284 L 367 282.2 L 367 320 L 364.4 320 L 338 346.4 L 338 383.6 L 353.9 399.5 L 312.1 399.5 L 328 383.6 L 328 346.4 L 301.6 320 L 300.6 320 L 332.1 288.5 L 332.4 288.7 L 336.2 289.7 L 346.1 289.7 L 346.1 261 L 346.1 261 L 346.1 232.2 M 346.1 241.6 L 346.1 241.6 M 346.1 251.4 L 346.1 251.4 M 346.1 261.3 L 346.1 261.3 M 346.1 271.1 L 346.1 271.1 M 346.1 281 L 346.1 281 M 329.8 290.8 L 367 290.8 M 367 300.7 L 320 300.7 M 310.1 310.5 L 367 310.5 M 364 320.4 L 302 320.4 M 311.8 330.2 L 354.2 330.2 M 344.3 340.1 L 321.7 340.1 M 328 349.9 L 338 349.9 M 338 359.8 L 328 359.8 M 328 369.6 L 338 369.6 M 338 379.5 L 328 379.5 M 322.3 389.3 L 343.7 389.3 M 353.5 399.2 L 312.5 399.2 M 172 202.2 L 131.8 202.2 M 131.8 192.3 L 172 192.3 M 172 182.5 L 100.5 182.5 M 100.5 192.3 L 90.5 192.3 M 90.5 202.2 L 100.5 202.2 M 100.5 212 L 90.5 212 M 59.2 172.6 L 48 172.6 M 48 162.8 L 59.2 162.8 M 61 152.9 L 48 152.9 M 131.8 172.6 L 174.1 172.6 M 308 103.7 L 358 103.7 M 348.2 93.8 L 317.8 93.8 M 327.7 84 L 338.3 84 M 338 74.1 L 328 74.1 M 328 64.3 L 338 64.3 M 338 54.4 L 328 54.4 M 326.2 44.6 L 339.8 44.6 M 349.7 34.7 L 316.3 34.7 M 408 103.7 L 458 103.7 M 448.2 93.8 L 417.8 93.8 M 427.7 84 L 438.3 84 M 438 74.1 L 428 74.1 M 428 64.3 L 438 64.3 M 438 54.4 L 428 54.4 M 426.2 44.6 L 439.8 44.6 M 449.7 34.7 L 416.3 34.7 M 411.3 133.2 L 492.2 133.2 M 482.3 143.1 L 421.2 143.1 M 431 152.9 L 472.5 152.9 M 467.6 162.8 L 440.9 162.8 M 448.4 172.6 L 467.6 172.6"/><use x="395.5" y="183.8" xlink:href="#tool-D15-pad-1005"/><use x="333" y="102.5" xlink:href="#tool-D15-pad-1005"/><use x="258" y="152.5" xlink:href="#tool-D15-pad-1005"/><use x="233" y="102.5" xlink:href="#tool-D15-pad-1005"/><use x="158" y="202.5" xlink:href="#tool-D15-pad-1005"/><use x="158" y="240" xlink:href="#tool-D15-pad-1005"/><use x="220.5" y="227.5" xlink:href="#tool-D15-pad-1005"/><use x="133" y="327.5" xlink:href="#tool-D15-pad-1005"/><use x="320.5" y="227.5" xlink:href="#tool-D15-pad-1005"/><use x="333" y="327.5" xlink:href="#tool-D15-pad-1005"/><use x="408" y="290" xlink:href="#tool-D15-pad-1005"/><use x="433" y="327.5" xlink:href="#tool-D15-pad-1005"/><use x="558" y="227.5" xlink:href="#tool-D15-pad-1005"/><use x="633" y="327.5" xlink:href="#tool-D15-pad-1005"/><use x="395.5" y="652.5" xlink:href="#tool-D15-pad-1005"/><use x="333" y="577.5" xlink:href="#tool-D15-pad-1005"/><use x="258" y="615" xlink:href="#tool-D15-pad-1005"/><use x="233" y="577.5" xlink:href="#tool-D15-pad-1005"/><use x="158" y="677.5" xlink:href="#tool-D15-pad-1005"/><use x="158" y="715" xlink:href="#tool-D15-pad-1005"/><use x="220.5" y="702.5" xlink:href="#tool-D15-pad-1005"/><use x="133" y="802.5" xlink:href="#tool-D15-pad-1005"/><use x="320.5" y="702.5" xlink:href="#tool-D15-pad-1005"/><use x="333" y="802.5" xlink:href="#tool-D15-pad-1005"/><use x="408" y="765" xlink:href="#tool-D15-pad-1005"/><use x="433" y="802.5" xlink:href="#tool-D15-pad-1005"/><use x="558" y="702.5" xlink:href="#tool-D15-pad-1005"/><use x="633" y="802.5" xlink:href="#tool-D15-pad-1005"/><path stroke-width="12" fill="none" d="M 617 809 L 649 809 M 637.1 820.8 L 628.9 820.8 M 629 820.9 L 629 859.1 L 614.6 873.5 L 651.4 873.5 L 637 859.1 L 637 820.9 L 663.9 794 L 666 794 L 666 709.5 L 642.5 686 L 602.5 686 L 602.5 687.4 L 596 693.8 L 571.2 693.8 L 564.7 687.4 L 564.7 650.7 L 571.2 644.3 L 596 644.3 L 602.5 650.7 L 602.5 652 L 656.6 652 L 690 685.5 L 700 695.5 L 700 794 L 702.1 794 L 716.2 808.2 L 716.2 578.9 L 704.1 591 L 687 591 L 687 544 L 679 544 L 679 591 L 661.9 591 L 632 561.1 L 632 544 L 679 544 L 679 536 L 632 536 L 632 518.9 L 644.9 506 L 614.1 506 L 629 520.9 L 629 559.1 L 602.1 586 L 563.9 586 L 562.5 584.5 L 500.6 646.5 L 500.6 648.8 L 502.5 650.7 L 502.5 674.9 L 513.5 663.9 L 513.5 650.7 L 520 644.3 L 544.8 644.3 L 551.3 650.7 L 551.3 687.4 L 544.8 693.8 L 531.7 693.8 L 507 718.5 L 507.5 720.1 L 507.5 736 L 507.5 751.9 L 506.4 755.9 L 504.3 759.6 L 501.3 762.5 L 497.6 764.7 L 493.6 765.7 L 483.6 765.7 L 483.6 736 L 483.6 736 L 483.6 765.7 L 473.6 765.7 L 469.8 764.7 L 465 769.5 L 462.5 772 L 462.5 772 L 452.5 782 L 424.9 782 L 421.6 785.3 L 412.8 789 L 403.2 789 L 400 787.7 L 400 794 L 402.1 794 L 429 820.9 L 429 859.1 L 414.6 873.5 L 451.4 873.5 L 437 859.1 L 437 820.9 L 463.9 794 L 502.1 794 L 503.5 795.5 L 515.4 783.5 L 515.4 756.2 L 513.5 754.3 L 513.5 717.6 L 520 711.2 L 544.8 711.2 L 545.2 711.5 L 545.6 711.2 L 564.1 711.2 L 565.9 709.4 L 569.5 707.3 L 573.6 706.2 L 583.6 706.2 L 593.6 706.2 L 597.6 707.3 L 601.3 709.4 L 604.3 712.4 L 606.4 716 L 607.5 720.1 L 607.5 736 L 607.5 751.9 L 606.4 755.9 L 604.3 759.6 L 601.3 762.5 L 597.6 764.7 L 593.6 765.7 L 583.6 765.7 L 583.6 736 L 583.6 736 L 583.6 765.7 L 582.8 765.7 L 590 773 L 600 783 L 600 794 L 602.1 794 L 629 820.9 M 629 832.7 L 637 832.7 M 637 844.5 L 629 844.5 M 629 856.4 L 637 856.4 M 646.1 868.2 L 619.9 868.2 M 583 840 L 583 790 L 558 765 L 558 736 M 583.6 736 L 583.6 706.2 L 583.6 736 L 607.5 736 L 583.6 736 L 583.6 736 L 583.6 736 M 583.6 737.9 L 583.6 737.9 M 583.6 749.7 L 583.6 749.7 M 583.6 761.6 L 583.6 761.6 M 590.4 773.4 L 666 773.4 M 666 761.6 L 602.3 761.6 M 607.5 749.7 L 666 749.7 M 666 737.9 L 607.5 737.9 M 607.5 726 L 666 726 M 666 714.2 L 605.3 714.2 M 583.6 714.2 L 583.6 714.2 M 583.6 726 L 583.6 726 M 599.4 690.5 L 646.9 690.5 M 658.8 702.3 L 523.2 702.3 M 517 714.2 L 511.3 714.2 M 513.5 726 L 507.5 726 M 507.5 736 L 483.6 736 L 507.5 736 M 507.5 737.9 L 513.5 737.9 M 513.5 749.7 L 507.5 749.7 M 502.3 761.6 L 515.4 761.6 M 515.4 773.4 L 461.1 773.4 M 465 769.5 L 465 769.5 M 458 752.5 L 445.5 765 L 408 765 M 421.7 785.3 L 513.7 785.3 M 532.4 790.6 L 483 840 M 460.8 797.1 L 405.2 797.1 M 417 809 L 449 809 M 437.1 820.8 L 428.9 820.8 M 429 832.7 L 437 832.7 M 437 844.5 L 429 844.5 M 429 856.4 L 437 856.4 M 446.1 868.2 L 419.9 868.2 M 383 840 L 383 690 L 362 669 L 346.1 669 M 365 652 L 369.1 652 L 371.5 654.5 L 371.5 647.7 L 375.2 638.9 L 381.9 632.2 L 382.3 632 L 327.5 632 L 312.5 647 L 312.5 649.4 L 313.8 650.7 L 313.8 687.4 L 311.9 689.2 L 311.9 694.2 L 309.5 696.6 L 309.5 711.2 L 326.6 711.2 L 328.4 709.4 L 332 707.3 L 336.1 706.2 L 346.1 706.2 L 356.1 706.2 L 360.1 707.3 L 363.8 709.4 L 366 711.6 L 366 697 L 360.6 691.7 L 358.5 693.8 L 333.7 693.8 L 327.2 687.4 L 327.2 650.7 L 333.7 644.3 L 358.5 644.3 L 365 650.7 L 365 652 M 373.4 643.1 L 316.5 643.1 M 313.8 654.9 L 327.2 654.9 M 327.2 666.8 L 313.8 666.8 M 313.8 678.6 L 327.2 678.6 M 330.3 690.5 L 311.9 690.5 M 309.5 702.3 L 366 702.3 M 346.1 706.2 L 346.1 736 L 346.1 736 L 346.1 765.7 L 356.1 765.7 L 360.1 764.7 L 363.8 762.5 L 366 760.3 L 366 794 L 363.9 794 L 337 820.9 L 337 859.1 L 351.4 873.5 L 314.6 873.5 L 329 859.1 L 329 820.9 L 302.5 794.5 L 332.3 764.7 L 336.1 765.7 L 346.1 765.7 L 346.1 736 L 346.1 736 L 346.1 706.2 M 346.1 714.2 L 346.1 714.2 M 346.1 726 L 346.1 726 M 346.1 737.9 L 346.1 737.9 M 346.1 749.7 L 346.1 749.7 M 346.1 761.6 L 346.1 761.6 M 364.8 761.6 L 366 761.6 M 366 773.4 L 323.6 773.4 M 311.8 785.3 L 366 785.3 M 360.8 797.1 L 305.2 797.1 M 317 809 L 349 809 M 337.1 820.8 L 328.9 820.8 M 329 832.7 L 337 832.7 M 337 844.5 L 329 844.5 M 329 856.4 L 337 856.4 M 346.1 868.2 L 319.9 868.2 M 283 840 L 283 790 L 320.5 752.5 L 320.5 736 M 294.9 736 L 190.9 840 L 183 840 M 151.4 873.5 L 137 859.1 L 137 820.9 L 163.5 794.5 L 151 782 L 105.4 782 L 103.4 784 L 102 785.4 L 102 794 L 102.1 794 L 129 820.9 L 129 859.1 L 114.6 873.5 L 151.4 873.5 M 146.1 868.2 L 119.9 868.2 M 129 856.4 L 137 856.4 M 137 844.5 L 129 844.5 M 129 832.7 L 137 832.7 M 137.1 820.8 L 128.9 820.8 M 117 809 L 149 809 M 160.8 797.1 L 105.2 797.1 M 102.1 785.3 L 154.2 785.3 M 170.5 777.5 L 158 765 L 95.5 765 M 76.5 757.1 L 76.5 756.1 L 69.7 756.1 L 63.2 749.7 L 63.2 699.2 L 69.7 692.8 L 121.3 692.8 L 127.8 699.2 L 127.8 748 L 165 748 L 175 758 L 177.5 760.5 L 182.2 760.5 L 176 754.3 L 176 753 L 171.9 753 L 158 739 L 153.2 739 L 144.4 735.3 L 137.7 728.6 L 134 719.8 L 134 710.2 L 137.7 701.4 L 144.4 694.7 L 153.2 691 L 162.8 691 L 171.6 694.7 L 178.3 701.4 L 182 710.2 L 182 711.7 L 182.5 711.2 L 207.3 711.2 L 213.8 717.6 L 213.8 754.3 L 207.6 760.5 L 213.5 760.5 L 227.2 746.7 L 227.2 717.6 L 233.7 711.2 L 246.8 711.2 L 276 682 L 276 650.7 L 278.5 648.2 L 278.5 633 L 303.5 608 L 313.5 598 L 415 598 L 440 623 L 450 633 L 450 649.4 L 451.3 650.7 L 451.3 651 L 464.7 651 L 464.7 650.7 L 466.6 648.8 L 466.6 632.4 L 538.5 560.5 L 537 559.1 L 537 520.9 L 551.9 506 L 514.1 506 L 529 520.9 L 529 559.1 L 502.1 586 L 463.9 586 L 437 559.1 L 437 520.9 L 451.9 506 L 414.1 506 L 429 520.9 L 429 559.1 L 402.1 586 L 363.9 586 L 337 559.1 L 337 520.9 L 351.9 506 L 314.1 506 L 329 520.9 L 329 559.1 L 302.1 586 L 263.9 586 L 237 559.1 L 237 520.9 L 251.9 506 L 214.1 506 L 229 520.9 L 229 559.1 L 208.8 579.3 L 235.7 606.1 L 237.7 601.4 L 244.4 594.7 L 253.2 591 L 262.8 591 L 271.6 594.7 L 278.3 601.4 L 282 610.2 L 282 619.8 L 278.3 628.6 L 271.6 635.3 L 263.1 638.9 L 263.1 648.8 L 265 650.7 L 265 687.4 L 258.5 693.8 L 233.7 693.8 L 233.3 693.4 L 232.9 693.8 L 214.4 693.8 L 212.6 695.6 L 209 697.7 L 204.9 698.8 L 194.9 698.8 L 184.9 698.8 L 180.9 697.7 L 177.2 695.6 L 174.2 692.6 L 172.1 689 L 171 684.9 L 171 669 L 171 653.1 L 172.1 649.1 L 174.2 645.4 L 177.2 642.5 L 180.9 640.3 L 184.9 639.3 L 194.9 639.3 L 194.9 669 L 194.9 669 L 194.9 639.3 L 203.5 639.3 L 203.5 622 L 176 594.5 L 167.5 586 L 163.9 586 L 137 559.1 L 137 520.9 L 151.9 506 L 114.1 506 L 129 520.9 L 129 559.1 L 102.1 586 L 63.9 586 L 49 571.1 L 49 808.9 L 63.9 794 L 64 794 L 64 769.6 L 76.5 757.1 M 72.1 761.6 L 49 761.6 M 49 773.4 L 64 773.4 M 64 785.3 L 49 785.3 M 49 797.1 L 60.8 797.1 M 63.3 749.7 L 49 749.7 M 49 737.9 L 63.2 737.9 M 63.2 726 L 49 726 M 49 714.2 L 63.2 714.2 M 63.2 702.3 L 49 702.3 M 49 690.5 L 66.9 690.5 M 68.1 691.1 L 64.4 689 L 61.4 686 L 59.3 682.4 L 58.2 678.3 L 58.2 659.9 L 91.2 659.9 L 91.2 692.2 L 72.1 692.2 L 68.1 691.1 M 58.3 678.6 L 49 678.6 M 49 666.8 L 58.2 666.8 M 49 654.9 L 91.2 654.9 M 91.2 651.2 L 91.2 659.9 L 99.8 659.9 L 99.8 692.2 L 118.9 692.2 L 122.9 691.1 L 126.6 689 L 129.6 686 L 131.7 682.4 L 132.8 678.3 L 132.8 659.9 L 99.8 659.9 L 99.8 651.2 L 99.8 618.9 L 118.9 618.9 L 122.9 620 L 126.6 622.1 L 129.6 625.1 L 131.7 628.7 L 132.8 632.8 L 132.8 651.2 L 99.8 651.2 L 91.2 651.2 L 91.2 618.9 L 72.1 618.9 L 68.1 620 L 64.4 622.1 L 61.4 625.1 L 59.3 628.7 L 58.2 632.8 L 58.2 651.2 L 91.2 651.2 M 91.2 643.1 L 99.8 643.1 M 99.8 654.9 L 171 654.9 M 171 666.8 L 132.8 666.8 M 132.7 678.6 L 171 678.6 M 171 669 L 194.9 669 L 171 669 M 173 690.5 L 124.1 690.5 M 127.8 702.3 L 137.3 702.3 M 134 714.2 L 127.8 714.2 M 127.8 726 L 136.6 726 M 127.8 737.9 L 150.5 737.9 M 166.7 749.7 L 168.7 749.7 M 179 736 L 158 715 M 178.7 702.3 L 255.7 702.3 M 261.9 690.5 L 267.6 690.5 M 265 678.6 L 276 678.6 M 276 666.8 L 265 666.8 M 265 654.9 L 276 654.9 M 278.5 643.1 L 263.1 643.1 M 275.7 631.2 L 280.3 631.2 M 282 619.4 L 292.1 619.4 M 280.9 607.5 L 304 607.5 M 320.5 615 L 408 615 L 433 640 L 433 668.4 L 433 677.5 L 458 702.5 L 498.9 702.5 L 532.4 669 M 551.3 666.8 L 564.7 666.8 M 564.7 678.6 L 551.3 678.6 M 548.2 690.5 L 567.8 690.5 M 583.6 669 L 649.5 669 L 683 702.5 L 683 840 M 705.2 797.1 L 716.2 797.1 M 716.2 785.3 L 700 785.3 M 700 773.4 L 716.2 773.4 M 716.2 761.6 L 700 761.6 M 700 749.7 L 716.2 749.7 M 716.2 737.9 L 700 737.9 M 700 726 L 716.2 726 M 716.2 714.2 L 700 714.2 M 700 702.3 L 716.2 702.3 M 716.2 690.5 L 695 690.5 M 683.1 678.6 L 716.2 678.6 M 716.2 666.8 L 671.3 666.8 M 659.4 654.9 L 716.2 654.9 M 716.2 643.1 L 504 643.1 M 502.5 654.9 L 513.5 654.9 M 510.7 666.8 L 502.5 666.8 M 483.6 669 L 483.6 639.4 L 583 540 M 616.1 572 L 642.8 572 M 632 560.1 L 628 560.1 M 629 548.3 L 632 548.3 M 629 536.4 L 679 536.4 M 679 548.3 L 687 548.3 M 687 560.1 L 679 560.1 M 679 572 L 687 572 M 687 583.8 L 679 583.8 M 654.7 583.8 L 604.3 583.8 M 629 524.6 L 632 524.6 M 638.2 512.7 L 620.8 512.7 M 551.4 595.7 L 716.2 595.7 M 716.2 607.5 L 539.5 607.5 M 527.7 619.4 L 716.2 619.4 M 716.2 631.2 L 515.8 631.2 M 491.5 607.5 L 424.5 607.5 M 436.4 619.4 L 479.6 619.4 M 467.8 631.2 L 448.2 631.2 M 450 643.1 L 466.6 643.1 M 433 668.4 L 432.4 669 M 408 665 L 395.5 652.5 M 408 665 L 408 711.6 L 432.4 736 M 458 736 L 458 752.5 M 483.6 749.7 L 483.6 749.7 M 483.6 737.9 L 483.6 737.9 M 483.6 736 L 483.6 736 M 483.6 761.6 L 483.6 761.6 M 532.4 736 L 532.4 790.6 M 600 785.3 L 666 785.3 M 660.8 797.1 L 605.2 797.1 M 564.7 654.9 L 551.3 654.9 M 503.3 595.7 L 272.6 595.7 M 261.7 583.8 L 213.3 583.8 M 216.1 572 L 249.9 572 M 238 560.1 L 228 560.1 M 229 548.3 L 237 548.3 M 237 536.4 L 229 536.4 M 229 524.6 L 237 524.6 M 245.2 512.7 L 220.8 512.7 M 183 540 L 183 577.5 L 220.5 615 L 220.5 669 M 194.9 669 L 194.9 698.8 L 194.9 669 L 194.9 669 L 194.9 669 M 194.9 666.8 L 194.9 666.8 M 194.9 678.6 L 194.9 678.6 M 194.9 690.5 L 194.9 690.5 M 210.3 714.2 L 230.7 714.2 M 227.2 726 L 213.8 726 M 213.8 737.9 L 227.2 737.9 M 224.3 749.7 L 213.8 749.7 M 194.9 736 L 179 736 M 170.5 777.5 L 220.5 777.5 L 246.1 751.9 L 246.1 736 L 294.9 687.1 L 294.9 669 L 295.5 668.4 L 295.5 640 L 320.5 615 M 304.3 583.8 L 361.7 583.8 M 349.9 572 L 316.1 572 M 328 560.1 L 338 560.1 M 337 548.3 L 329 548.3 M 329 536.4 L 337 536.4 M 337 524.6 L 329 524.6 M 320.8 512.7 L 345.2 512.7 M 404.3 583.8 L 461.7 583.8 M 449.9 572 L 416.1 572 M 428 560.1 L 438 560.1 M 437 548.3 L 429 548.3 M 429 536.4 L 437 536.4 M 437 524.6 L 429 524.6 M 420.8 512.7 L 445.2 512.7 M 504.3 583.8 L 515.2 583.8 M 516.1 572 L 527 572 M 528 560.1 L 538 560.1 M 537 548.3 L 529 548.3 M 529 536.4 L 537 536.4 M 537 524.6 L 529 524.6 M 520.8 512.7 L 545.2 512.7 M 583 365 L 583 315 L 558 290 L 558 261 M 532.4 261 L 532.4 315.6 L 483 365 M 445.5 290 L 408 290 M 432.4 265.6 L 433.6 265.6 L 408 240 L 408 196.3 L 395.5 183.8 M 383 215 L 383 365 M 445.5 290 L 458 277.5 L 458 261 M 458 227.5 L 498.9 227.5 L 532.4 194 M 583.6 194 L 649.5 194 L 683 227.5 L 683 365 M 711.3 583.8 L 716.2 583.8 M 458 227.5 L 432.4 201.9 L 432.4 194 L 432.4 176.9 L 395.5 140 L 320.5 140 L 294.9 165.6 L 294.9 194 L 294.9 212.1 L 246.1 261 L 246.1 264.4 L 245.5 264.4 L 245.5 277.5 L 220.5 302.5 L 170.5 302.5 L 158 290 L 95.5 290 M 158 240 L 179 261 L 194.9 261 M 220.5 194 L 220.5 140 L 183 102.5 L 183 65 M 258 152.5 L 245.5 165 L 245.5 189.4 L 246.1 189.4 L 246.1 194 M 294.9 261 L 294.9 265.6 L 195.5 365 L 183 365 M 283 365 L 283 315 L 320.5 277.5 L 320.5 261 M 346.1 194 L 362 194 L 383 215 M 432.4 261 L 432.4 265.6 M 483.6 194 L 483.6 164.4 L 583 65 M 243.4 595.7 L 225.2 595.7 M 246.1 626.9 L 258 615 M 246.1 626.9 L 246.1 669 M 203.5 631.2 L 132.3 631.2 M 120.6 619.4 L 200.8 619.4 M 189 607.5 L 49 607.5 M 49 595.7 L 177.1 595.7 M 161.7 583.8 L 104.3 583.8 M 116.1 572 L 149.9 572 M 138 560.1 L 128 560.1 M 129 548.3 L 137 548.3 M 137 536.4 L 129 536.4 M 129 524.6 L 137 524.6 M 145.2 512.7 L 120.8 512.7 M 61.7 583.8 L 49 583.8 M 49 572 L 49.9 572 M 49 619.4 L 70.4 619.4 M 58.7 631.2 L 49 631.2 M 49 643.1 L 58.2 643.1 M 91.2 631.2 L 99.8 631.2 M 99.8 619.4 L 91.2 619.4 M 91.2 666.8 L 99.8 666.8 M 99.8 678.6 L 91.2 678.6 M 91.2 690.5 L 99.8 690.5 M 132.8 643.1 L 176.6 643.1 M 194.9 643.1 L 194.9 643.1 M 194.9 654.9 L 194.9 654.9"/><path stroke-width="16" fill="none" d="M 95.5 724.4 L 95.5 765 L 83 777.5 L 83 840 M 83 365 L 83 302.5 L 95.5 290 L 95.5 249.4"/></g><g fill="currentColor" stroke="currentColor" id="bottom-bss_44"><path stroke-width="0" fill="none" d="M 33 15 L 33 414.5 L 64.3 414.5 L 68 414.7 L 71.7 415.2 L 75.3 416.1 L 78.8 417.4 L 82.1 419 L 85.3 420.9 L 88.3 423.1 L 91 425.6 L 93.5 428.3 L 95.7 431.3 L 97.6 434.5 L 99.2 437.8 L 100.5 441.3 L 101.4 444.9 L 101.9 448.6 L 102.1 452.3 L 101.9 456 L 101.4 459.7 L 100.5 463.3 L 99.2 466.8 L 97.6 470.1 L 95.7 473.3 L 93.5 476.3 L 91 479 L 88.3 481.5 L 85.3 483.7 L 82.1 485.6 L 78.8 487.2 L 75.3 488.5 L 71.7 489.4 L 68 489.9 L 64.3 490.1 M 64.3 490 L 33 490 L 33 889.5 L 732.2 889.5 L 732.2 490 L 701.8 490 M 701.8 490.1 L 698.1 489.9 L 694.4 489.4 L 690.8 488.5 L 687.3 487.2 L 684 485.6 L 680.8 483.7 L 677.8 481.5 L 675.1 479 L 672.6 476.3 L 670.4 473.3 L 668.5 470.1 L 666.9 466.8 L 665.6 463.3 L 664.7 459.7 L 664.2 456 L 664 452.3 L 664.2 448.6 L 664.7 444.9 L 665.6 441.3 L 666.9 437.8 L 668.5 434.5 L 670.4 431.3 L 672.6 428.3 L 675.1 425.6 L 677.8 423.1 L 680.8 420.9 L 684 419 L 687.3 417.4 L 690.8 416.1 L 694.4 415.2 L 698.1 414.7 L 701.8 414.5 L 732.2 414.5 L 732.2 15 L 33 15 M 201.8 414.5 L 564.3 414.5 L 568 414.7 L 571.7 415.2 L 575.3 416.1 L 578.8 417.4 L 582.1 419 L 585.3 420.9 L 588.3 423.1 L 591 425.6 L 593.5 428.3 L 595.7 431.3 L 597.6 434.5 L 599.2 437.8 L 600.5 441.3 L 601.4 444.9 L 601.9 448.6 L 602.1 452.3 L 601.9 456 L 601.4 459.7 L 600.5 463.3 L 599.2 466.8 L 597.6 470.1 L 595.7 473.3 L 593.5 476.3 L 591 479 L 588.3 481.5 L 585.3 483.7 L 582.1 485.6 L 578.8 487.2 L 575.3 488.5 L 571.7 489.4 L 568 489.9 L 564.3 490.1 M 564.3 490 L 201.8 490 M 201.8 490.1 L 198.1 489.9 L 194.4 489.4 L 190.8 488.5 L 187.3 487.2 L 184 485.6 L 180.8 483.7 L 177.8 481.5 L 175.1 479 L 172.6 476.3 L 170.4 473.3 L 168.5 470.1 L 166.9 466.8 L 165.6 463.3 L 164.7 459.7 L 164.2 456 L 164 452.3 L 164.2 448.6 L 164.7 444.9 L 165.6 441.3 L 166.9 437.8 L 168.5 434.5 L 170.4 431.3 L 172.6 428.3 L 175.1 425.6 L 177.8 423.1 L 180.8 420.9 L 184 419 L 187.3 417.4 L 190.8 416.1 L 194.4 415.2 L 198.1 414.7 L 201.8 414.5 M 143.9 427.5 L 144.1 429.3 L 144.7 430.9 L 145.6 432.4 L 146.9 433.7 L 148.4 434.6 L 150 435.2 L 151.8 435.4 L 153.6 435.2 L 155.2 434.6 L 156.7 433.7 L 158 432.4 L 158.9 430.9 L 159.5 429.3 L 159.7 427.5 L 159.5 425.7 L 158.9 424.1 L 158 422.6 L 156.7 421.3 L 155.2 420.4 L 153.6 419.8 L 151.8 419.6 L 150 419.8 L 148.4 420.4 L 146.9 421.3 L 145.6 422.6 L 144.7 424.1 L 144.1 425.7 L 143.9 427.5 M 106.4 427.5 L 106.6 429.3 L 107.2 430.9 L 108.1 432.4 L 109.4 433.7 L 110.9 434.6 L 112.5 435.2 L 114.3 435.4 L 116.1 435.2 L 117.7 434.6 L 119.2 433.7 L 120.5 432.4 L 121.4 430.9 L 122 429.3 L 122.2 427.5 L 122 425.7 L 121.4 424.1 L 120.5 422.6 L 119.2 421.3 L 117.7 420.4 L 116.1 419.8 L 114.3 419.6 L 112.5 419.8 L 110.9 420.4 L 109.4 421.3 L 108.1 422.6 L 107.2 424.1 L 106.6 425.7 L 106.4 427.5 M 106.4 477.5 L 106.6 479.3 L 107.2 480.9 L 108.1 482.4 L 109.4 483.7 L 110.9 484.6 L 112.5 485.2 L 114.3 485.4 L 116.1 485.2 L 117.7 484.6 L 119.2 483.7 L 120.5 482.4 L 121.4 480.9 L 122 479.3 L 122.2 477.5 L 122 475.7 L 121.4 474.1 L 120.5 472.6 L 119.2 471.3 L 117.7 470.4 L 116.1 469.8 L 114.3 469.6 L 112.5 469.8 L 110.9 470.4 L 109.4 471.3 L 108.1 472.6 L 107.2 474.1 L 106.6 475.7 L 106.4 477.5 M 143.9 477.5 L 144.1 479.3 L 144.7 480.9 L 145.6 482.4 L 146.9 483.7 L 148.4 484.6 L 150 485.2 L 151.8 485.4 L 153.6 485.2 L 155.2 484.6 L 156.7 483.7 L 158 482.4 L 158.9 480.9 L 159.5 479.3 L 159.7 477.5 L 159.5 475.7 L 158.9 474.1 L 158 472.6 L 156.7 471.3 L 155.2 470.4 L 153.6 469.8 L 151.8 469.6 L 150 469.8 L 148.4 470.4 L 146.9 471.3 L 145.6 472.6 L 144.7 474.1 L 144.1 475.7 L 143.9 477.5 M 606.4 477.5 L 606.6 479.3 L 607.2 480.9 L 608.1 482.4 L 609.4 483.7 L 610.9 484.6 L 612.5 485.2 L 614.3 485.4 L 616.1 485.2 L 617.7 484.6 L 619.2 483.7 L 620.5 482.4 L 621.4 480.9 L 622 479.3 L 622.2 477.5 L 622 475.7 L 621.4 474.1 L 620.5 472.6 L 619.2 471.3 L 617.7 470.4 L 616.1 469.8 L 614.3 469.6 L 612.5 469.8 L 610.9 470.4 L 609.4 471.3 L 608.1 472.6 L 607.2 474.1 L 606.6 475.7 L 606.4 477.5 M 606.4 427.5 L 606.6 429.3 L 607.2 430.9 L 608.1 432.4 L 609.4 433.7 L 610.9 434.6 L 612.5 435.2 L 614.3 435.4 L 616.1 435.2 L 617.7 434.6 L 619.2 433.7 L 620.5 432.4 L 621.4 430.9 L 622 429.3 L 622.2 427.5 L 622 425.7 L 621.4 424.1 L 620.5 422.6 L 619.2 421.3 L 617.7 420.4 L 616.1 419.8 L 614.3 419.6 L 612.5 419.8 L 610.9 420.4 L 609.4 421.3 L 608.1 422.6 L 607.2 424.1 L 606.6 425.7 L 606.4 427.5 M 643.9 427.5 L 644.1 429.3 L 644.7 430.9 L 645.6 432.4 L 646.9 433.7 L 648.4 434.6 L 650 435.2 L 651.8 435.4 L 653.6 435.2 L 655.2 434.6 L 656.7 433.7 L 658 432.4 L 658.9 430.9 L 659.5 429.3 L 659.7 427.5 L 659.5 425.7 L 658.9 424.1 L 658 422.6 L 656.7 421.3 L 655.2 420.4 L 653.6 419.8 L 651.8 419.6 L 650 419.8 L 648.4 420.4 L 646.9 421.3 L 645.6 422.6 L 644.7 424.1 L 644.1 425.7 L 643.9 427.5 M 643.9 477.5 L 644.1 479.3 L 644.7 480.9 L 645.6 482.4 L 646.9 483.7 L 648.4 484.6 L 650 485.2 L 651.8 485.4 L 653.6 485.2 L 655.2 484.6 L 656.7 483.7 L 658 482.4 L 658.9 480.9 L 659.5 479.3 L 659.7 477.5 L 659.5 475.7 L 658.9 474.1 L 658 472.6 L 656.7 471.3 L 655.2 470.4 L 653.6 469.8 L 651.8 469.6 L 650 469.8 L 648.4 470.4 L 646.9 471.3 L 645.6 472.6 L 644.7 474.1 L 644.1 475.7 L 643.9 477.5"/><path stroke-width="6" fill="none" d="M 617.3 592.7 L 611.7 592.7 L 606 598.3 L 606 626.7 L 623 626.7 L 628.7 621 L 628.7 609.7 L 623 604 L 606 604 M 591.9 604 L 580.5 604 M 586.2 604 L 586.2 626.7 L 591.9 626.7 M 586.2 638 L 586.2 643.7 M 567.3 621 L 567.3 609.7 L 561.6 604 L 544.6 604 M 530.5 604 L 513.5 604 L 507.8 609.7 L 507.8 621 L 513.5 626.7 L 530.5 626.7 M 530.5 638 L 530.5 604 M 544.6 626.7 L 561.6 626.7 L 567.3 621 M 642.8 621 L 642.8 609.7 L 648.5 604 L 659.8 604 L 665.5 609.7 L 665.5 621 L 659.8 626.7 L 648.5 626.7 L 642.8 621 M 679.7 604 L 702.4 604 L 702.4 638 M 493.6 638 L 488 638 L 488 604 M 493.6 604 L 482.3 604 M 469.1 609.7 L 463.4 604 L 452.1 604 L 446.4 609.7 L 446.4 621 L 452.1 626.7 L 463.4 626.7 L 469.1 621 L 469.1 609.7 M 432.3 609.7 L 426.6 604 L 409.6 604 M 395.4 604 L 395.4 638 M 409.6 626.7 L 426.6 626.7 L 432.3 621 L 432.3 609.7 M 395.4 615.3 L 378.4 626.7 M 395.4 615.3 L 378.4 604 M 364.7 604 L 359.1 604 L 359.1 609.7 L 364.7 609.7 L 364.7 604 M 346.3 604 L 346.3 626.7 L 340.6 626.7 L 335 621 L 329.3 626.7 L 323.6 621 L 323.6 604 M 335 604 L 335 621 M 309.5 621 L 309.5 609.7 L 303.8 604 L 292.5 604 M 286.8 615.3 L 309.5 615.3 M 309.5 621 L 303.8 626.7 L 292.5 626.7 L 286.8 621 L 286.8 615.3 M 586.2 168.7 L 586.2 163 M 586.2 151.7 L 586.2 129 M 591.9 129 L 580.5 129 M 567.3 134.7 L 561.6 129 L 544.6 129 M 530.5 129 L 513.5 129 L 507.8 134.7 L 507.8 146 L 513.5 151.7 L 530.5 151.7 M 530.5 163 L 530.5 129 M 544.6 151.7 L 561.6 151.7 L 567.3 146 L 567.3 134.7 M 586.2 151.7 L 591.9 151.7 M 606 151.7 L 623 151.7 L 628.7 146 L 628.7 134.7 L 623 129 L 606 129 M 606 123.3 L 606 151.7 M 606 123.3 L 611.7 117.7 L 617.3 117.7 M 642.8 134.7 L 642.8 146 L 648.5 151.7 L 659.8 151.7 L 665.5 146 L 665.5 134.7 L 659.8 129 L 648.5 129 L 642.8 134.7 M 679.7 129 L 702.4 129 L 702.4 163 M 493.6 163 L 488 163 L 488 129 M 493.6 129 L 482.3 129 M 469.1 134.7 L 463.4 129 L 452.1 129 L 446.4 134.7 L 446.4 146 L 452.1 151.7 L 463.4 151.7 L 469.1 146 L 469.1 134.7 M 432.3 134.7 L 426.6 129 L 409.6 129 M 395.4 129 L 395.4 163 M 409.6 151.7 L 426.6 151.7 L 432.3 146 L 432.3 134.7 M 395.4 140.3 L 378.4 151.7 M 395.4 140.3 L 378.4 129 M 364.7 129 L 359.1 129 L 359.1 134.7 L 364.7 134.7 L 364.7 129 M 346.3 129 L 346.3 151.7 L 340.6 151.7 L 335 146 L 329.3 151.7 L 323.6 146 L 323.6 129 M 335 129 L 335 146 M 309.5 146 L 309.5 134.7 L 303.8 129 L 292.5 129 M 286.8 140.3 L 309.5 140.3 M 309.5 146 L 303.8 151.7 L 292.5 151.7 L 286.8 146 L 286.8 140.3"/><path stroke-width="5" fill="none" d="M 283 208.8 L 283 246.3 M 258 246.3 L 258 208.8 M 233 246.3 L 208 246.3 M 183 246.3 L 183 208.8 M 120.5 202.5 L 120.5 227.5 M 70.5 227.5 L 70.5 202.5 M 308 208.8 L 333 208.8 M 358 208.8 L 358 246.3 M 420.5 246.3 L 420.5 208.8 M 445.5 208.8 L 470.5 208.8 M 495.5 208.8 L 495.5 246.3 M 520.5 246.3 L 520.5 208.8 M 545.5 208.8 L 570.5 208.8 M 595.5 208.8 L 595.5 215 M 595.5 240 L 595.5 246.3 M 595.5 683.8 L 595.5 690 M 595.5 715 L 595.5 721.3 M 570.5 683.8 L 545.5 683.8 M 520.5 683.8 L 520.5 721.3 M 495.5 721.3 L 495.5 683.8 M 470.5 683.8 L 445.5 683.8 M 420.5 683.8 L 420.5 721.3 M 358 721.3 L 358 683.8 M 333 683.8 L 308 683.8 M 283 683.8 L 283 721.3 M 258 721.3 L 258 683.8 M 233 721.3 L 208 721.3 M 183 721.3 L 183 683.8 M 120.5 677.5 L 120.5 702.5 M 70.5 702.5 L 70.5 677.5"/><path stroke-width="5.9" fill="none" d="M 604.4 695.3 L 623.4 693.4 L 625.5 687 L 628.6 681 L 616.5 666.1 L 626.6 656 L 641.5 668.1 L 647.5 665 L 655.9 685.4 L 652.2 687.6 L 649 690.5 L 646.6 694.1 L 645.1 698.2 L 644.5 702.5 L 645.1 706.9 L 646.6 711 L 649.1 714.7 L 652.4 717.6 L 656.3 719.7 L 660.6 720.8 L 665 720.8 L 669.3 719.8 L 673.2 717.8 L 676.6 715 L 679.2 711.4 L 680.8 707.3 L 681.4 702.9 L 681 698.5 L 679.5 694.3 L 677.1 690.6 L 673.9 687.6 L 670.1 685.4 L 678.5 665 L 684.5 668.1 L 699.4 656 L 709.5 666.1 L 697.4 681 L 700.5 687 L 702.6 693.4 L 721.6 695.3 L 721.6 709.7 L 702.6 711.6 L 700.5 718 L 697.4 724 L 709.5 738.9 L 699.4 749 L 684.5 736.9 L 678.5 740 L 672.1 742.1 L 670.2 761.1 L 655.8 761.1 L 653.9 742.1 L 647.5 740 L 641.5 736.9 L 626.6 749 L 616.5 738.9 L 628.6 724 L 625.5 718 L 623.4 711.6 L 604.4 709.7 L 604.4 695.3 M 604.4 699.9 L 644.8 699.9 M 644.9 705.7 L 604.4 705.7 M 615.7 694.2 L 646.5 694.2 M 651.3 688.4 L 625 688.4 M 627.7 682.6 L 654.8 682.6 M 652.4 676.9 L 625.2 676.9 M 620.5 671.1 L 650 671.1 M 647.6 665.4 L 646.7 665.4 M 638.2 665.4 L 617.2 665.4 M 623 659.6 L 631.1 659.6 M 673.6 676.9 L 700.8 676.9 M 698.3 682.6 L 671.2 682.6 M 674.7 688.4 L 701 688.4 M 710.3 694.2 L 679.4 694.2 M 681.2 699.9 L 721.6 699.9 M 721.6 705.7 L 681.1 705.7 M 679.1 711.4 L 704.7 711.4 M 700.8 717.2 L 674 717.2 M 651.9 717.2 L 625.2 717.2 M 628 722.9 L 698 722.9 M 701.2 728.7 L 624.8 728.7 M 620.1 734.4 L 705.9 734.4 M 708.2 740.2 L 688.5 740.2 M 695.6 746 L 702.4 746 M 678 740.2 L 648 740.2 M 654.3 746 L 671.7 746 M 671.2 751.7 L 654.8 751.7 M 655.4 757.5 L 670.6 757.5 M 637.5 740.2 L 617.8 740.2 M 623.6 746 L 630.4 746 M 621.3 711.4 L 646.9 711.4 M 676 671.1 L 705.5 671.1 M 708.8 665.4 L 687.8 665.4 M 679.3 665.4 L 678.4 665.4 M 694.9 659.6 L 703 659.6 M 670.2 286.1 L 655.8 286.1 L 653.9 267.1 L 647.5 265 L 641.5 261.9 L 626.6 274 L 626.7 274 M 626.6 274 L 616.5 263.9 L 628.6 249 L 625.5 243 L 623.4 236.6 L 604.4 234.7 L 604.4 220.3 L 623.4 218.4 L 625.5 212 L 628.6 206 L 616.5 191.1 L 626.6 181 L 641.5 193.1 L 647.5 190 L 655.9 210.4 L 652.2 212.6 L 649 215.5 L 646.6 219.1 L 645.1 223.2 L 644.5 227.5 L 645.1 231.9 L 646.6 236 L 649.1 239.7 L 652.4 242.6 L 656.3 244.7 L 660.6 245.8 L 665 245.8 L 669.3 244.8 L 673.2 242.8 L 676.6 240 L 679.2 236.4 L 680.8 232.3 L 681.4 227.9 L 681 223.5 L 679.5 219.3 L 677.1 215.6 L 673.9 212.6 L 670.1 210.4 L 678.5 190 L 684.5 193.1 L 699.4 181 L 709.5 191.1 L 697.4 206 L 700.5 212 L 702.6 218.4 L 721.6 220.3 L 721.6 234.7 L 702.6 236.6 L 700.5 243 L 697.4 249 L 709.5 263.9 L 699.4 274 L 699.3 274 M 699.4 274 L 684.5 261.9 L 678.5 265 L 672.1 267.1 L 670.2 286.1 M 670.3 285.5 L 655.7 285.5 M 655.2 279.8 L 670.8 279.8 M 671.4 274 L 654.6 274 M 654 268.2 L 672 268.2 M 683.4 262.5 L 642.6 262.5 M 640.8 262.5 L 617.6 262.5 M 620.8 268.2 L 633.7 268.2 M 622.3 256.7 L 703.7 256.7 M 699 251 L 627 251 M 626.6 245.2 L 658.4 245.2 M 649 239.5 L 624.3 239.5 M 604.4 233.7 L 645.8 233.7 M 644.6 228 L 604.4 228 M 604.4 222.2 L 645.4 222.2 M 648.3 216.4 L 624.1 216.4 M 626.1 210.7 L 655.5 210.7 M 653.7 204.9 L 627.7 204.9 M 623 199.2 L 651.3 199.2 M 648.9 193.4 L 618.3 193.4 M 619.9 187.7 L 634.9 187.7 M 627.8 181.9 L 625.7 181.9 M 672.3 204.9 L 698.3 204.9 M 699.9 210.7 L 670.5 210.7 M 677.7 216.4 L 701.9 216.4 M 703 199.2 L 674.7 199.2 M 677.1 193.4 L 707.7 193.4 M 706.1 187.7 L 691.1 187.7 M 698.2 181.9 L 700.3 181.9 M 680.6 222.2 L 721.6 222.2 M 721.6 228 L 681.4 228 M 680.2 233.7 L 721.6 233.7 M 701.7 239.5 L 677 239.5 M 667.7 245.2 L 699.4 245.2 M 708.4 262.5 L 685.2 262.5 M 692.3 268.2 L 705.2 268.2"/></g><g fill="currentColor" stroke="currentColor" id="bottom-out_45"><path stroke-width="0.2" fill="none" d="M 33 15 L 33 414.5 L 64.3 414.5 L 68 414.7 L 71.7 415.2 L 75.3 416.1 L 78.8 417.4 L 82.1 419 L 85.3 420.9 L 88.3 423.1 L 91 425.6 L 93.5 428.3 L 95.7 431.3 L 97.6 434.5 L 99.2 437.8 L 100.5 441.3 L 101.4 444.9 L 101.9 448.6 L 102.1 452.3 L 101.9 456 L 101.4 459.7 L 100.5 463.3 L 99.2 466.8 L 97.6 470.1 L 95.7 473.3 L 93.5 476.3 L 91 479 L 88.3 481.5 L 85.3 483.7 L 82.1 485.6 L 78.8 487.2 L 75.3 488.5 L 71.7 489.4 L 68 489.9 L 64.3 490.1 M 64.3 490 L 33 490 L 33 889.5 L 732.2 889.5 L 732.2 490 L 701.8 490 M 701.8 490.1 L 698.1 489.9 L 694.4 489.4 L 690.8 488.5 L 687.3 487.2 L 684 485.6 L 680.8 483.7 L 677.8 481.5 L 675.1 479 L 672.6 476.3 L 670.4 473.3 L 668.5 470.1 L 666.9 466.8 L 665.6 463.3 L 664.7 459.7 L 664.2 456 L 664 452.3 L 664.2 448.6 L 664.7 444.9 L 665.6 441.3 L 666.9 437.8 L 668.5 434.5 L 670.4 431.3 L 672.6 428.3 L 675.1 425.6 L 677.8 423.1 L 680.8 420.9 L 684 419 L 687.3 417.4 L 690.8 416.1 L 694.4 415.2 L 698.1 414.7 L 701.8 414.5 L 732.2 414.5 L 732.2 15 L 33 15 M 201.8 414.5 L 564.3 414.5 L 568 414.7 L 571.7 415.2 L 575.3 416.1 L 578.8 417.4 L 582.1 419 L 585.3 420.9 L 588.3 423.1 L 591 425.6 L 593.5 428.3 L 595.7 431.3 L 597.6 434.5 L 599.2 437.8 L 600.5 441.3 L 601.4 444.9 L 601.9 448.6 L 602.1 452.3 L 601.9 456 L 601.4 459.7 L 600.5 463.3 L 599.2 466.8 L 597.6 470.1 L 595.7 473.3 L 593.5 476.3 L 591 479 L 588.3 481.5 L 585.3 483.7 L 582.1 485.6 L 578.8 487.2 L 575.3 488.5 L 571.7 489.4 L 568 489.9 L 564.3 490.1 M 564.3 490 L 201.8 490 M 201.8 490.1 L 198.1 489.9 L 194.4 489.4 L 190.8 488.5 L 187.3 487.2 L 184 485.6 L 180.8 483.7 L 177.8 481.5 L 175.1 479 L 172.6 476.3 L 170.4 473.3 L 168.5 470.1 L 166.9 466.8 L 165.6 463.3 L 164.7 459.7 L 164.2 456 L 164 452.3 L 164.2 448.6 L 164.7 444.9 L 165.6 441.3 L 166.9 437.8 L 168.5 434.5 L 170.4 431.3 L 172.6 428.3 L 175.1 425.6 L 177.8 423.1 L 180.8 420.9 L 184 419 L 187.3 417.4 L 190.8 416.1 L 194.4 415.2 L 198.1 414.7 L 201.8 414.5"/><path stroke-width="0" fill="none" d="M 143.9 427.5 L 144.1 429.3 L 144.7 430.9 L 145.6 432.4 L 146.9 433.7 L 148.4 434.6 L 150 435.2 L 151.8 435.4 L 153.6 435.2 L 155.2 434.6 L 156.7 433.7 L 158 432.4 L 158.9 430.9 L 159.5 429.3 L 159.7 427.5 L 159.5 425.7 L 158.9 424.1 L 158 422.6 L 156.7 421.3 L 155.2 420.4 L 153.6 419.8 L 151.8 419.6 L 150 419.8 L 148.4 420.4 L 146.9 421.3 L 145.6 422.6 L 144.7 424.1 L 144.1 425.7 L 143.9 427.5 M 106.4 427.5 L 106.6 429.3 L 107.2 430.9 L 108.1 432.4 L 109.4 433.7 L 110.9 434.6 L 112.5 435.2 L 114.3 435.4 L 116.1 435.2 L 117.7 434.6 L 119.2 433.7 L 120.5 432.4 L 121.4 430.9 L 122 429.3 L 122.2 427.5 L 122 425.7 L 121.4 424.1 L 120.5 422.6 L 119.2 421.3 L 117.7 420.4 L 116.1 419.8 L 114.3 419.6 L 112.5 419.8 L 110.9 420.4 L 109.4 421.3 L 108.1 422.6 L 107.2 424.1 L 106.6 425.7 L 106.4 427.5 M 106.4 477.5 L 106.6 479.3 L 107.2 480.9 L 108.1 482.4 L 109.4 483.7 L 110.9 484.6 L 112.5 485.2 L 114.3 485.4 L 116.1 485.2 L 117.7 484.6 L 119.2 483.7 L 120.5 482.4 L 121.4 480.9 L 122 479.3 L 122.2 477.5 L 122 475.7 L 121.4 474.1 L 120.5 472.6 L 119.2 471.3 L 117.7 470.4 L 116.1 469.8 L 114.3 469.6 L 112.5 469.8 L 110.9 470.4 L 109.4 471.3 L 108.1 472.6 L 107.2 474.1 L 106.6 475.7 L 106.4 477.5 M 143.9 477.5 L 144.1 479.3 L 144.7 480.9 L 145.6 482.4 L 146.9 483.7 L 148.4 484.6 L 150 485.2 L 151.8 485.4 L 153.6 485.2 L 155.2 484.6 L 156.7 483.7 L 158 482.4 L 158.9 480.9 L 159.5 479.3 L 159.7 477.5 L 159.5 475.7 L 158.9 474.1 L 158 472.6 L 156.7 471.3 L 155.2 470.4 L 153.6 469.8 L 151.8 469.6 L 150 469.8 L 148.4 470.4 L 146.9 471.3 L 145.6 472.6 L 144.7 474.1 L 144.1 475.7 L 143.9 477.5 M 606.4 477.5 L 606.6 479.3 L 607.2 480.9 L 608.1 482.4 L 609.4 483.7 L 610.9 484.6 L 612.5 485.2 L 614.3 485.4 L 616.1 485.2 L 617.7 484.6 L 619.2 483.7 L 620.5 482.4 L 621.4 480.9 L 622 479.3 L 622.2 477.5 L 622 475.7 L 621.4 474.1 L 620.5 472.6 L 619.2 471.3 L 617.7 470.4 L 616.1 469.8 L 614.3 469.6 L 612.5 469.8 L 610.9 470.4 L 609.4 471.3 L 608.1 472.6 L 607.2 474.1 L 606.6 475.7 L 606.4 477.5 M 606.4 427.5 L 606.6 429.3 L 607.2 430.9 L 608.1 432.4 L 609.4 433.7 L 610.9 434.6 L 612.5 435.2 L 614.3 435.4 L 616.1 435.2 L 617.7 434.6 L 619.2 433.7 L 620.5 432.4 L 621.4 430.9 L 622 429.3 L 622.2 427.5 L 622 425.7 L 621.4 424.1 L 620.5 422.6 L 619.2 421.3 L 617.7 420.4 L 616.1 419.8 L 614.3 419.6 L 612.5 419.8 L 610.9 420.4 L 609.4 421.3 L 608.1 422.6 L 607.2 424.1 L 606.6 425.7 L 606.4 427.5 M 643.9 427.5 L 644.1 429.3 L 644.7 430.9 L 645.6 432.4 L 646.9 433.7 L 648.4 434.6 L 650 435.2 L 651.8 435.4 L 653.6 435.2 L 655.2 434.6 L 656.7 433.7 L 658 432.4 L 658.9 430.9 L 659.5 429.3 L 659.7 427.5 L 659.5 425.7 L 658.9 424.1 L 658 422.6 L 656.7 421.3 L 655.2 420.4 L 653.6 419.8 L 651.8 419.6 L 650 419.8 L 648.4 420.4 L 646.9 421.3 L 645.6 422.6 L 644.7 424.1 L 644.1 425.7 L 643.9 427.5 M 643.9 477.5 L 644.1 479.3 L 644.7 480.9 L 645.6 482.4 L 646.9 483.7 L 648.4 484.6 L 650 485.2 L 651.8 485.4 L 653.6 485.2 L 655.2 484.6 L 656.7 483.7 L 658 482.4 L 658.9 480.9 L 659.5 479.3 L 659.7 477.5 L 659.5 475.7 L 658.9 474.1 L 658 472.6 L 656.7 471.3 L 655.2 470.4 L 653.6 469.8 L 651.8 469.6 L 650 469.8 L 648.4 470.4 L 646.9 471.3 L 645.6 472.6 L 644.7 474.1 L 644.1 475.7 L 643.9 477.5"/></g><circle cx="0" cy="0" r="9.85" id="tool-D11-pad-1018"/><rect x="-23.25" y="-22.65" width="46.5" height="45.3" id="tool-D12-pad-1019"/><rect x="-9.85" y="-15.8" width="19.7" height="31.6" id="tool-D13-pad-1020"/><polygon points="36.99992478621099,15.32587065323303 15.325870653233034,36.99992478621099 -15.325870653233029,36.99992478621099 -36.99992478621099,15.325870653233036 -36.99992478621099,-15.325870653233027 -15.325870653233054,-36.999924786210975 15.32587065323304,-36.99992478621098 36.999924786210975,-15.325870653233055" id="tool-D14-pad-1021"/><g fill="currentColor" stroke="currentColor" id="bottom-bsm_46"><path stroke-width="0" fill="none" d="M 33 15 L 33 414.5 L 64.3 414.5 L 68 414.7 L 71.7 415.2 L 75.3 416.1 L 78.8 417.4 L 82.1 419 L 85.3 420.9 L 88.3 423.1 L 91 425.6 L 93.5 428.3 L 95.7 431.3 L 97.6 434.5 L 99.2 437.8 L 100.5 441.3 L 101.4 444.9 L 101.9 448.6 L 102.1 452.3 L 101.9 456 L 101.4 459.7 L 100.5 463.3 L 99.2 466.8 L 97.6 470.1 L 95.7 473.3 L 93.5 476.3 L 91 479 L 88.3 481.5 L 85.3 483.7 L 82.1 485.6 L 78.8 487.2 L 75.3 488.5 L 71.7 489.4 L 68 489.9 L 64.3 490.1 M 64.3 490 L 33 490 L 33 889.5 L 732.2 889.5 L 732.2 490 L 701.8 490 M 701.8 490.1 L 698.1 489.9 L 694.4 489.4 L 690.8 488.5 L 687.3 487.2 L 684 485.6 L 680.8 483.7 L 677.8 481.5 L 675.1 479 L 672.6 476.3 L 670.4 473.3 L 668.5 470.1 L 666.9 466.8 L 665.6 463.3 L 664.7 459.7 L 664.2 456 L 664 452.3 L 664.2 448.6 L 664.7 444.9 L 665.6 441.3 L 666.9 437.8 L 668.5 434.5 L 670.4 431.3 L 672.6 428.3 L 675.1 425.6 L 677.8 423.1 L 680.8 420.9 L 684 419 L 687.3 417.4 L 690.8 416.1 L 694.4 415.2 L 698.1 414.7 L 701.8 414.5 L 732.2 414.5 L 732.2 15 L 33 15 M 201.8 414.5 L 564.3 414.5 L 568 414.7 L 571.7 415.2 L 575.3 416.1 L 578.8 417.4 L 582.1 419 L 585.3 420.9 L 588.3 423.1 L 591 425.6 L 593.5 428.3 L 595.7 431.3 L 597.6 434.5 L 599.2 437.8 L 600.5 441.3 L 601.4 444.9 L 601.9 448.6 L 602.1 452.3 L 601.9 456 L 601.4 459.7 L 600.5 463.3 L 599.2 466.8 L 597.6 470.1 L 595.7 473.3 L 593.5 476.3 L 591 479 L 588.3 481.5 L 585.3 483.7 L 582.1 485.6 L 578.8 487.2 L 575.3 488.5 L 571.7 489.4 L 568 489.9 L 564.3 490.1 M 564.3 490 L 201.8 490 M 201.8 490.1 L 198.1 489.9 L 194.4 489.4 L 190.8 488.5 L 187.3 487.2 L 184 485.6 L 180.8 483.7 L 177.8 481.5 L 175.1 479 L 172.6 476.3 L 170.4 473.3 L 168.5 470.1 L 166.9 466.8 L 165.6 463.3 L 164.7 459.7 L 164.2 456 L 164 452.3 L 164.2 448.6 L 164.7 444.9 L 165.6 441.3 L 166.9 437.8 L 168.5 434.5 L 170.4 431.3 L 172.6 428.3 L 175.1 425.6 L 177.8 423.1 L 180.8 420.9 L 184 419 L 187.3 417.4 L 190.8 416.1 L 194.4 415.2 L 198.1 414.7 L 201.8 414.5 M 143.9 427.5 L 144.1 429.3 L 144.7 430.9 L 145.6 432.4 L 146.9 433.7 L 148.4 434.6 L 150 435.2 L 151.8 435.4 L 153.6 435.2 L 155.2 434.6 L 156.7 433.7 L 158 432.4 L 158.9 430.9 L 159.5 429.3 L 159.7 427.5 L 159.5 425.7 L 158.9 424.1 L 158 422.6 L 156.7 421.3 L 155.2 420.4 L 153.6 419.8 L 151.8 419.6 L 150 419.8 L 148.4 420.4 L 146.9 421.3 L 145.6 422.6 L 144.7 424.1 L 144.1 425.7 L 143.9 427.5 M 106.4 427.5 L 106.6 429.3 L 107.2 430.9 L 108.1 432.4 L 109.4 433.7 L 110.9 434.6 L 112.5 435.2 L 114.3 435.4 L 116.1 435.2 L 117.7 434.6 L 119.2 433.7 L 120.5 432.4 L 121.4 430.9 L 122 429.3 L 122.2 427.5 L 122 425.7 L 121.4 424.1 L 120.5 422.6 L 119.2 421.3 L 117.7 420.4 L 116.1 419.8 L 114.3 419.6 L 112.5 419.8 L 110.9 420.4 L 109.4 421.3 L 108.1 422.6 L 107.2 424.1 L 106.6 425.7 L 106.4 427.5 M 106.4 477.5 L 106.6 479.3 L 107.2 480.9 L 108.1 482.4 L 109.4 483.7 L 110.9 484.6 L 112.5 485.2 L 114.3 485.4 L 116.1 485.2 L 117.7 484.6 L 119.2 483.7 L 120.5 482.4 L 121.4 480.9 L 122 479.3 L 122.2 477.5 L 122 475.7 L 121.4 474.1 L 120.5 472.6 L 119.2 471.3 L 117.7 470.4 L 116.1 469.8 L 114.3 469.6 L 112.5 469.8 L 110.9 470.4 L 109.4 471.3 L 108.1 472.6 L 107.2 474.1 L 106.6 475.7 L 106.4 477.5 M 143.9 477.5 L 144.1 479.3 L 144.7 480.9 L 145.6 482.4 L 146.9 483.7 L 148.4 484.6 L 150 485.2 L 151.8 485.4 L 153.6 485.2 L 155.2 484.6 L 156.7 483.7 L 158 482.4 L 158.9 480.9 L 159.5 479.3 L 159.7 477.5 L 159.5 475.7 L 158.9 474.1 L 158 472.6 L 156.7 471.3 L 155.2 470.4 L 153.6 469.8 L 151.8 469.6 L 150 469.8 L 148.4 470.4 L 146.9 471.3 L 145.6 472.6 L 144.7 474.1 L 144.1 475.7 L 143.9 477.5 M 606.4 477.5 L 606.6 479.3 L 607.2 480.9 L 608.1 482.4 L 609.4 483.7 L 610.9 484.6 L 612.5 485.2 L 614.3 485.4 L 616.1 485.2 L 617.7 484.6 L 619.2 483.7 L 620.5 482.4 L 621.4 480.9 L 622 479.3 L 622.2 477.5 L 622 475.7 L 621.4 474.1 L 620.5 472.6 L 619.2 471.3 L 617.7 470.4 L 616.1 469.8 L 614.3 469.6 L 612.5 469.8 L 610.9 470.4 L 609.4 471.3 L 608.1 472.6 L 607.2 474.1 L 606.6 475.7 L 606.4 477.5 M 606.4 427.5 L 606.6 429.3 L 607.2 430.9 L 608.1 432.4 L 609.4 433.7 L 610.9 434.6 L 612.5 435.2 L 614.3 435.4 L 616.1 435.2 L 617.7 434.6 L 619.2 433.7 L 620.5 432.4 L 621.4 430.9 L 622 429.3 L 622.2 427.5 L 622 425.7 L 621.4 424.1 L 620.5 422.6 L 619.2 421.3 L 617.7 420.4 L 616.1 419.8 L 614.3 419.6 L 612.5 419.8 L 610.9 420.4 L 609.4 421.3 L 608.1 422.6 L 607.2 424.1 L 606.6 425.7 L 606.4 427.5 M 643.9 427.5 L 644.1 429.3 L 644.7 430.9 L 645.6 432.4 L 646.9 433.7 L 648.4 434.6 L 650 435.2 L 651.8 435.4 L 653.6 435.2 L 655.2 434.6 L 656.7 433.7 L 658 432.4 L 658.9 430.9 L 659.5 429.3 L 659.7 427.5 L 659.5 425.7 L 658.9 424.1 L 658 422.6 L 656.7 421.3 L 655.2 420.4 L 653.6 419.8 L 651.8 419.6 L 650 419.8 L 648.4 420.4 L 646.9 421.3 L 645.6 422.6 L 644.7 424.1 L 644.1 425.7 L 643.9 427.5 M 643.9 477.5 L 644.1 479.3 L 644.7 480.9 L 645.6 482.4 L 646.9 483.7 L 648.4 484.6 L 650 485.2 L 651.8 485.4 L 653.6 485.2 L 655.2 484.6 L 656.7 483.7 L 658 482.4 L 658.9 480.9 L 659.5 479.3 L 659.7 477.5 L 659.5 475.7 L 658.9 474.1 L 658 472.6 L 656.7 471.3 L 655.2 470.4 L 653.6 469.8 L 651.8 469.6 L 650 469.8 L 648.4 470.4 L 646.9 471.3 L 645.6 472.6 L 644.7 474.1 L 644.1 475.7 L 643.9 477.5"/><use x="651.8" y="477.5" xlink:href="#tool-D11-pad-1018"/><use x="614.3" y="477.5" xlink:href="#tool-D11-pad-1018"/><use x="614.3" y="427.5" xlink:href="#tool-D11-pad-1018"/><use x="651.8" y="427.5" xlink:href="#tool-D11-pad-1018"/><use x="151.8" y="427.5" xlink:href="#tool-D11-pad-1018"/><use x="114.3" y="427.5" xlink:href="#tool-D11-pad-1018"/><use x="114.3" y="477.5" xlink:href="#tool-D11-pad-1018"/><use x="151.8" y="477.5" xlink:href="#tool-D11-pad-1018"/><use x="95.5" y="655.6" xlink:href="#tool-D12-pad-1019"/><use x="95.5" y="724.4" xlink:href="#tool-D12-pad-1019"/><use x="95.5" y="249.4" xlink:href="#tool-D12-pad-1019"/><use x="95.5" y="180.6" xlink:href="#tool-D12-pad-1019"/><use x="194.9" y="194" xlink:href="#tool-D13-pad-1020"/><use x="220.5" y="194" xlink:href="#tool-D13-pad-1020"/><use x="246.1" y="194" xlink:href="#tool-D13-pad-1020"/><use x="294.9" y="194" xlink:href="#tool-D13-pad-1020"/><use x="346.1" y="194" xlink:href="#tool-D13-pad-1020"/><use x="346.1" y="261" xlink:href="#tool-D13-pad-1020"/><use x="320.5" y="261" xlink:href="#tool-D13-pad-1020"/><use x="294.9" y="261" xlink:href="#tool-D13-pad-1020"/><use x="246.1" y="261" xlink:href="#tool-D13-pad-1020"/><use x="194.9" y="261" xlink:href="#tool-D13-pad-1020"/><use x="432.4" y="261" xlink:href="#tool-D13-pad-1020"/><use x="458" y="261" xlink:href="#tool-D13-pad-1020"/><use x="483.6" y="261" xlink:href="#tool-D13-pad-1020"/><use x="532.4" y="261" xlink:href="#tool-D13-pad-1020"/><use x="558" y="261" xlink:href="#tool-D13-pad-1020"/><use x="583.6" y="261" xlink:href="#tool-D13-pad-1020"/><use x="583.6" y="194" xlink:href="#tool-D13-pad-1020"/><use x="532.4" y="194" xlink:href="#tool-D13-pad-1020"/><use x="483.6" y="194" xlink:href="#tool-D13-pad-1020"/><use x="432.4" y="194" xlink:href="#tool-D13-pad-1020"/><use x="432.4" y="669" xlink:href="#tool-D13-pad-1020"/><use x="483.6" y="669" xlink:href="#tool-D13-pad-1020"/><use x="532.4" y="669" xlink:href="#tool-D13-pad-1020"/><use x="583.6" y="669" xlink:href="#tool-D13-pad-1020"/><use x="583.6" y="736" xlink:href="#tool-D13-pad-1020"/><use x="558" y="736" xlink:href="#tool-D13-pad-1020"/><use x="532.4" y="736" xlink:href="#tool-D13-pad-1020"/><use x="483.6" y="736" xlink:href="#tool-D13-pad-1020"/><use x="458" y="736" xlink:href="#tool-D13-pad-1020"/><use x="432.4" y="736" xlink:href="#tool-D13-pad-1020"/><use x="346.1" y="736" xlink:href="#tool-D13-pad-1020"/><use x="320.5" y="736" xlink:href="#tool-D13-pad-1020"/><use x="294.9" y="736" xlink:href="#tool-D13-pad-1020"/><use x="246.1" y="736" xlink:href="#tool-D13-pad-1020"/><use x="194.9" y="736" xlink:href="#tool-D13-pad-1020"/><use x="194.9" y="669" xlink:href="#tool-D13-pad-1020"/><use x="220.5" y="669" xlink:href="#tool-D13-pad-1020"/><use x="246.1" y="669" xlink:href="#tool-D13-pad-1020"/><use x="294.9" y="669" xlink:href="#tool-D13-pad-1020"/><use x="346.1" y="669" xlink:href="#tool-D13-pad-1020"/><use x="383" y="540" xlink:href="#tool-D14-pad-1021"/><use x="483" y="540" xlink:href="#tool-D14-pad-1021"/><use x="583" y="540" xlink:href="#tool-D14-pad-1021"/><use x="683" y="540" xlink:href="#tool-D14-pad-1021"/><use x="683" y="365" xlink:href="#tool-D14-pad-1021"/><use x="583" y="365" xlink:href="#tool-D14-pad-1021"/><use x="483" y="365" xlink:href="#tool-D14-pad-1021"/><use x="383" y="365" xlink:href="#tool-D14-pad-1021"/><use x="283" y="365" xlink:href="#tool-D14-pad-1021"/><use x="183" y="365" xlink:href="#tool-D14-pad-1021"/><use x="83" y="365" xlink:href="#tool-D14-pad-1021"/><use x="83" y="540" xlink:href="#tool-D14-pad-1021"/><use x="183" y="540" xlink:href="#tool-D14-pad-1021"/><use x="283" y="540" xlink:href="#tool-D14-pad-1021"/><use x="283" y="840" xlink:href="#tool-D14-pad-1021"/><use x="183" y="840" xlink:href="#tool-D14-pad-1021"/><use x="83" y="840" xlink:href="#tool-D14-pad-1021"/><use x="383" y="840" xlink:href="#tool-D14-pad-1021"/><use x="483" y="840" xlink:href="#tool-D14-pad-1021"/><use x="583" y="840" xlink:href="#tool-D14-pad-1021"/><use x="683" y="840" xlink:href="#tool-D14-pad-1021"/><use x="683" y="65" xlink:href="#tool-D14-pad-1021"/><use x="583" y="65" xlink:href="#tool-D14-pad-1021"/><use x="483" y="65" xlink:href="#tool-D14-pad-1021"/><use x="383" y="65" xlink:href="#tool-D14-pad-1021"/><use x="283" y="65" xlink:href="#tool-D14-pad-1021"/><use x="183" y="65" xlink:href="#tool-D14-pad-1021"/><use x="83" y="65" xlink:href="#tool-D14-pad-1021"/></g><circle cx="0" cy="0" r="7" id="tool-T1-pad-1038"/><circle cx="0" cy="0" r="7.85" id="tool-T2-pad-1039"/><circle cx="0" cy="0" r="20" id="tool-T3-pad-1040"/><g fill="currentColor" stroke="currentColor" id="bottom-drl_47"><use x="133" y="327.5" xlink:href="#tool-T1-pad-1038"/><use x="158" y="240" xlink:href="#tool-T1-pad-1038"/><use x="158" y="202.5" xlink:href="#tool-T1-pad-1038"/><use x="220.5" y="227.5" xlink:href="#tool-T1-pad-1038"/><use x="258" y="152.5" xlink:href="#tool-T1-pad-1038"/><use x="233" y="102.5" xlink:href="#tool-T1-pad-1038"/><use x="333" y="102.5" xlink:href="#tool-T1-pad-1038"/><use x="395.5" y="183.8" xlink:href="#tool-T1-pad-1038"/><use x="320.5" y="227.5" xlink:href="#tool-T1-pad-1038"/><use x="333" y="327.5" xlink:href="#tool-T1-pad-1038"/><use x="408" y="290" xlink:href="#tool-T1-pad-1038"/><use x="433" y="327.5" xlink:href="#tool-T1-pad-1038"/><use x="558" y="227.5" xlink:href="#tool-T1-pad-1038"/><use x="633" y="327.5" xlink:href="#tool-T1-pad-1038"/><use x="558" y="702.5" xlink:href="#tool-T1-pad-1038"/><use x="633" y="802.5" xlink:href="#tool-T1-pad-1038"/><use x="433" y="802.5" xlink:href="#tool-T1-pad-1038"/><use x="408" y="765" xlink:href="#tool-T1-pad-1038"/><use x="333" y="802.5" xlink:href="#tool-T1-pad-1038"/><use x="320.5" y="702.5" xlink:href="#tool-T1-pad-1038"/><use x="258" y="615" xlink:href="#tool-T1-pad-1038"/><use x="233" y="577.5" xlink:href="#tool-T1-pad-1038"/><use x="158" y="677.5" xlink:href="#tool-T1-pad-1038"/><use x="158" y="715" xlink:href="#tool-T1-pad-1038"/><use x="220.5" y="702.5" xlink:href="#tool-T1-pad-1038"/><use x="133" y="802.5" xlink:href="#tool-T1-pad-1038"/><use x="333" y="577.5" xlink:href="#tool-T1-pad-1038"/><use x="395.5" y="652.5" xlink:href="#tool-T1-pad-1038"/><use x="114.3" y="427.5" xlink:href="#tool-T2-pad-1039"/><use x="151.8" y="427.5" xlink:href="#tool-T2-pad-1039"/><use x="151.8" y="477.5" xlink:href="#tool-T2-pad-1039"/><use x="114.3" y="477.5" xlink:href="#tool-T2-pad-1039"/><use x="614.3" y="477.5" xlink:href="#tool-T2-pad-1039"/><use x="651.8" y="477.5" xlink:href="#tool-T2-pad-1039"/><use x="651.8" y="427.5" xlink:href="#tool-T2-pad-1039"/><use x="614.3" y="427.5" xlink:href="#tool-T2-pad-1039"/><use x="83" y="365" xlink:href="#tool-T3-pad-1040"/><use x="183" y="365" xlink:href="#tool-T3-pad-1040"/><use x="283" y="365" xlink:href="#tool-T3-pad-1040"/><use x="383" y="365" xlink:href="#tool-T3-pad-1040"/><use x="483" y="365" xlink:href="#tool-T3-pad-1040"/><use x="583" y="365" xlink:href="#tool-T3-pad-1040"/><use x="583" y="540" xlink:href="#tool-T3-pad-1040"/><use x="683" y="365" xlink:href="#tool-T3-pad-1040"/><use x="683" y="540" xlink:href="#tool-T3-pad-1040"/><use x="483" y="540" xlink:href="#tool-T3-pad-1040"/><use x="383" y="540" xlink:href="#tool-T3-pad-1040"/><use x="283" y="540" xlink:href="#tool-T3-pad-1040"/><use x="183" y="540" xlink:href="#tool-T3-pad-1040"/><use x="83" y="540" xlink:href="#tool-T3-pad-1040"/><use x="83" y="840" xlink:href="#tool-T3-pad-1040"/><use x="183" y="840" xlink:href="#tool-T3-pad-1040"/><use x="283" y="840" xlink:href="#tool-T3-pad-1040"/><use x="383" y="840" xlink:href="#tool-T3-pad-1040"/><use x="483" y="840" xlink:href="#tool-T3-pad-1040"/><use x="583" y="840" xlink:href="#tool-T3-pad-1040"/><use x="683" y="840" xlink:href="#tool-T3-pad-1040"/><use x="683" y="65" xlink:href="#tool-T3-pad-1040"/><use x="583" y="65" xlink:href="#tool-T3-pad-1040"/><use x="483" y="65" xlink:href="#tool-T3-pad-1040"/><use x="383" y="65" xlink:href="#tool-T3-pad-1040"/><use x="283" y="65" xlink:href="#tool-T3-pad-1040"/><use x="183" y="65" xlink:href="#tool-T3-pad-1040"/><use x="83" y="65" xlink:href="#tool-T3-pad-1040"/></g><mask id="bottom-sm_48" color="#fff"><use xlink:href="#bottom-bcu_43"/></mask><mask id="bottom-sm_49" color="#000"><rect class="Board--cover" fill="#fff" x="32.9" y="14.9" width="699.4000000000001" height="874.7"/><use xlink:href="#bottom-bsm_46"/></mask><mask id="bottom-mech_50" color="#000"><rect class="Board--cover" fill="#fff" x="32.9" y="14.9" width="699.4000000000001" height="874.7"/><use xlink:href="#bottom-drl_47"/></mask></defs><g transform="translate(765.2,904.5) scale(-1,-1)" mask="url(#bottom-mech_50)"><rect class="Board--board" fill="currentColor" x="32.9" y="14.9" width="699.4000000000001" height="874.7"/><use class="Board--cu" xlink:href="#bottom-bcu_43"/><use class="Board--cf" mask="url(#bottom-sm_48)" xlink:href="#bottom-bsm_46"/><g mask="url(#bottom-sm_49)"><rect class="Board--sm" fill="currentColor" x="32.9" y="14.9" width="699.4000000000001" height="874.7"/><use class="Board--ss" xlink:href="#bottom-bss_44"/></g><use class="Board--out" xlink:href="#bottom-out_45"/></g></svg>