<svg xmlns="http://www.w3.org/2000/svg" version="1.1" xmlns:xlink="http://www.w3.org/1999/xlink" width="0.6992in" height="0.5995in" viewBox="33 15 699.2 599.5" stroke-linecap="round" stroke-linejoin="round" stroke-width="0" stroke="#000" class="Board"><style type="text/css"> .Board--board { color: dimgrey; } .Board--cu { color: lightgrey; } .Board--cf { color: goldenrod; } .Board--sm { color: black; opacity: 0.75; } .Board--ss { color: white; } .Board--sp { color: silver; } .Board--out { color: black; } </style><defs><g fill="currentColor" stroke="currentColor" id="bottom-bss_8"><path stroke-width="0" fill="none" d="M 33 15 L 33 614.5 L 732.2 614.5 L 732.2 15 L 33 15"/><path stroke-width="16" fill="none" d="M 228 277.5 L 228.2 278.8 L 228.7 280.1 L 229.6 281.2 L 230.7 281.9 L 232 282.4 L 233.3 282.5 L 234.7 282.2 L 235.9 281.6 L 236.9 280.7 L 237.6 279.5 L 238 278.2 L 238 276.8 L 237.6 275.5 L 236.9 274.3 L 235.9 273.4 L 234.7 272.8 L 233.3 272.5 L 232 272.6 L 230.7 273.1 L 229.6 273.8 L 228.7 274.9 L 228.2 276.2 L 228 277.5"/><path stroke-width="6" fill="none" d="M 604.3 411.8 L 610 411.8 M 621.3 411.8 L 644 411.8 M 644 406.2 L 644 417.5 M 644 431.6 L 644 448.7 L 638.3 454.3 L 627 454.3 L 621.3 448.7 L 621.3 431.6 L 649.7 431.6 L 655.3 437.3 L 655.3 443 M 638.3 468.5 L 627 468.5 L 621.3 474.1 L 621.3 485.5 L 627 491.2 L 638.3 491.2 L 644 485.5 L 644 474.1 L 638.3 468.5 M 644 504.4 L 644 515.7 M 644 510 L 610 510 L 610 515.7 M 621.3 417.5 L 621.3 411.8 M 627 392.9 L 638.3 392.9 L 644 387.3 L 644 370.3 M 644 356.1 L 644 339.1 L 638.3 333.4 L 627 333.4 L 621.3 339.1 L 621.3 356.1 M 610 356.1 L 644 356.1 M 621.3 370.3 L 621.3 387.3 L 627 392.9 M 644 319.3 L 644 307.9 M 644 313.6 L 610 313.6 L 610 319.3 M 627 294.7 L 638.3 294.7 L 644 289.1 L 644 277.7 L 638.3 272 L 627 272 L 621.3 277.7 L 621.3 289.1 L 627 294.7 M 627 257.9 L 638.3 257.9 L 644 252.2 L 644 235.2 M 644 221.1 L 610 221.1 M 621.3 235.2 L 621.3 252.2 L 627 257.9 M 632.7 221.1 L 621.3 204 M 632.7 221.1 L 644 204 M 644 190.4 L 638.3 190.4 L 638.3 184.7 L 644 184.7 L 644 190.4 M 644 172 L 621.3 172 L 621.3 166.3 L 627 160.6 L 621.3 154.9 L 627 149.3 L 644 149.3 M 644 160.6 L 627 160.6 M 627 135.1 L 621.3 129.4 L 621.3 118.1 L 627 112.4 L 632.7 112.4 L 632.7 135.1 M 638.3 135.1 L 627 135.1 M 638.3 135.1 L 644 129.4 L 644 118.1"/><path stroke-width="5.9" fill="none" d="M 179.5 203.6 L 167.4 218.5 L 170.5 224.5 L 150.1 232.9 L 147.9 229.2 L 145 226 L 141.4 223.6 L 137.3 222.1 L 133 221.5 L 128.6 222.1 L 124.5 223.6 L 120.8 226.1 L 117.9 229.4 L 115.8 233.3 L 114.7 237.6 L 114.7 242 L 115.7 246.3 L 117.7 250.2 L 120.5 253.6 L 124.1 256.2 L 128.2 257.8 L 132.6 258.4 L 137 258 L 141.2 256.5 L 144.9 254.1 L 147.9 250.9 L 150.1 247.1 L 170.5 255.5 L 167.4 261.5 L 179.5 276.4 L 169.4 286.5 L 154.5 274.4 L 148.5 277.5 L 142.1 279.6 L 140.2 298.6 L 125.8 298.6 L 123.9 279.6 L 117.5 277.5 L 111.5 274.4 L 96.6 286.5 L 86.5 276.4 L 98.6 261.5 L 95.5 255.5 L 93.4 249.1 L 74.4 247.2 L 74.4 232.8 L 93.4 230.9 L 95.5 224.5 L 98.6 218.5 L 86.5 203.6 L 96.6 193.5 L 111.5 205.6 L 117.5 202.5 L 123.9 200.4 L 125.8 181.4 L 140.2 181.4 L 142.1 200.4 L 148.5 202.5 L 154.5 205.6 L 169.4 193.5 L 179.5 203.6 M 178.5 204.9 L 155.3 204.9 M 153.3 204.9 L 112.7 204.9 M 110.7 204.9 L 87.5 204.9 M 90.9 199.2 L 103.6 199.2 M 92.2 210.7 L 173.8 210.7 M 169.1 216.4 L 96.9 216.4 M 96.7 222.2 L 128.3 222.2 M 137.7 222.2 L 169.3 222.2 M 162.1 228 L 146.8 228 M 147.8 251 L 159.5 251 M 169.9 256.7 L 140.6 256.7 M 125.5 256.7 L 96.1 256.7 M 97.8 262.5 L 168.2 262.5 M 172.9 268.2 L 93.1 268.2 M 88.4 274 L 177.6 274 M 176.1 279.8 L 161 279.8 M 168.1 285.5 L 170.4 285.5 M 142.1 279.8 L 123.9 279.8 M 124.5 285.5 L 141.5 285.5 M 140.9 291.3 L 125.1 291.3 M 125.6 297 L 140.4 297 M 105 279.8 L 89.9 279.8 M 95.6 285.5 L 97.9 285.5 M 94 251 L 118.3 251 M 115.4 245.2 L 74.4 245.2 M 74.4 239.5 L 114.7 239.5 M 115.7 233.7 L 74.4 233.7 M 94.4 228 L 119.2 228 M 124 199.2 L 142 199.2 M 141.4 193.4 L 124.6 193.4 M 125.2 187.7 L 140.8 187.7 M 140.3 181.9 L 125.7 181.9 M 162.4 199.2 L 175.1 199.2"/></g><rect x="-13" y="-40" width="26" height="80" id="tool-D11-pad-1005"/><rect x="-25.6" y="-31.5" width="51.2" height="63" id="tool-D12-pad-1006"/><g fill="currentColor" stroke="currentColor" id="bottom-bsp_9"><path stroke-width="0" fill="none" d="M 33 15 L 33 614.5 L 732.2 614.5 L 732.2 15 L 33 15"/><use x="233" y="193.5" xlink:href="#tool-D11-pad-1005"/><use x="283" y="193.5" xlink:href="#tool-D11-pad-1005"/><use x="333" y="193.5" xlink:href="#tool-D11-pad-1005"/><use x="383" y="193.5" xlink:href="#tool-D11-pad-1005"/><use x="433" y="193.5" xlink:href="#tool-D11-pad-1005"/><use x="483" y="193.5" xlink:href="#tool-D11-pad-1005"/><use x="533" y="193.5" xlink:href="#tool-D11-pad-1005"/><use x="533" y="435.5" xlink:href="#tool-D11-pad-1005"/><use x="483" y="435.5" xlink:href="#tool-D11-pad-1005"/><use x="433" y="435.5" xlink:href="#tool-D11-pad-1005"/><use x="383" y="435.5" xlink:href="#tool-D11-pad-1005"/><use x="333" y="435.5" xlink:href="#tool-D11-pad-1005"/><use x="283" y="435.5" xlink:href="#tool-D11-pad-1005"/><use x="233" y="435.5" xlink:href="#tool-D11-pad-1005"/><use x="167.4" y="445" xlink:href="#tool-D12-pad-1006"/><use x="88.6" y="445" xlink:href="#tool-D12-pad-1006"/></g><rect x="-15" y="-42" width="30" height="84" id="tool-D11-pad-1008"/><polygon points="36.99992478621099,15.32587065323303 15.325870653233034,36.99992478621099 -15.325870653233029,36.99992478621099 -36.99992478621099,15.325870653233036 -36.99992478621099,-15.325870653233027 -15.325870653233054,-36.999924786210975 15.32587065323304,-36.99992478621098 36.999924786210975,-15.325870653233055" id="tool-D12-pad-1009"/><rect x="-27.6" y="-33.5" width="55.2" height="67" id="tool-D13-pad-1010"/><g fill="currentColor" stroke="currentColor" id="bottom-bsm_10"><path stroke-width="0" fill="none" d="M 33 15 L 33 614.5 L 732.2 614.5 L 732.2 15 L 33 15"/><use x="233" y="193.5" xlink:href="#tool-D11-pad-1008"/><use x="283" y="193.5" xlink:href="#tool-D11-pad-1008"/><use x="333" y="193.5" xlink:href="#tool-D11-pad-1008"/><use x="383" y="193.5" xlink:href="#tool-D11-pad-1008"/><use x="433" y="193.5" xlink:href="#tool-D11-pad-1008"/><use x="483" y="193.5" xlink:href="#tool-D11-pad-1008"/><use x="533" y="193.5" xlink:href="#tool-D11-pad-1008"/><use x="533" y="435.5" xlink:href="#tool-D11-pad-1008"/><use x="483" y="435.5" xlink:href="#tool-D11-pad-1008"/><use x="433" y="435.5" xlink:href="#tool-D11-pad-1008"/><use x="383" y="435.5" xlink:href="#tool-D11-pad-1008"/><use x="333" y="435.5" xlink:href="#tool-D11-pad-1008"/><use x="283" y="435.5" xlink:href="#tool-D11-pad-1008"/><use x="233" y="435.5" xlink:href="#tool-D11-pad-1008"/><use x="183" y="564.5" xlink:href="#tool-D12-pad-1009"/><use x="83" y="564.5" xlink:href="#tool-D12-pad-1009"/><use x="283" y="564.5" xlink:href="#tool-D12-pad-1009"/><use x="383" y="564.5" xlink:href="#tool-D12-pad-1009"/><use x="483" y="564.5" xlink:href="#tool-D12-pad-1009"/><use x="583" y="564.5" xlink:href="#tool-D12-pad-1009"/><use x="683" y="564.5" xlink:href="#tool-D12-pad-1009"/><use x="683" y="64.5" xlink:href="#tool-D12-pad-1009"/><use x="583" y="64.5" xlink:href="#tool-D12-pad-1009"/><use x="483" y="64.5" xlink:href="#tool-D12-pad-1009"/><use x="383" y="64.5" xlink:href="#tool-D12-pad-1009"/><use x="283" y="64.5" xlink:href="#tool-D12-pad-1009"/><use x="183" y="64.5" xlink:href="#tool-D12-pad-1009"/><use x="83" y="64.5" xlink:href="#tool-D12-pad-1009"/><use x="88.6" y="445" xlink:href="#tool-D13-pad-1010"/><use x="167.4" y="445" xlink:href="#tool-D13-pad-1010"/></g><circle cx="0" cy="0" r="6.9" id="tool-T1-pad-1013"/><circle cx="0" cy="0" r="20" id="tool-T2-pad-1014"/><g fill="currentColor" stroke="currentColor" id="bottom-drl_11"><use x="233" y="251" xlink:href="#tool-T1-pad-1013"/><use x="283" y="251" xlink:href="#tool-T1-pad-1013"/><use x="333" y="240.5" xlink:href="#tool-T1-pad-1013"/><use x="383" y="251" xlink:href="#tool-T1-pad-1013"/><use x="433" y="238.5" xlink:href="#tool-T1-pad-1013"/><use x="483" y="251" xlink:href="#tool-T1-pad-1013"/><use x="533" y="253" xlink:href="#tool-T1-pad-1013"/><use x="433" y="102.5" xlink:href="#tool-T1-pad-1013"/><use x="433" y="515" xlink:href="#tool-T1-pad-1013"/><use x="333" y="515" xlink:href="#tool-T1-pad-1013"/><use x="233" y="527.5" xlink:href="#tool-T1-pad-1013"/><use x="133" y="515" xlink:href="#tool-T1-pad-1013"/><use x="533" y="527.5" xlink:href="#tool-T1-pad-1013"/><use x="633" y="527.5" xlink:href="#tool-T1-pad-1013"/><use x="83" y="564.5" xlink:href="#tool-T2-pad-1014"/><use x="183" y="564.5" xlink:href="#tool-T2-pad-1014"/><use x="283" y="564.5" xlink:href="#tool-T2-pad-1014"/><use x="383" y="564.5" xlink:href="#tool-T2-pad-1014"/><use x="483" y="564.5" xlink:href="#tool-T2-pad-1014"/><use x="583" y="564.5" xlink:href="#tool-T2-pad-1014"/><use x="683" y="564.5" xlink:href="#tool-T2-pad-1014"/><use x="683" y="64.5" xlink:href="#tool-T2-pad-1014"/><use x="583" y="64.5" xlink:href="#tool-T2-pad-1014"/><use x="483" y="64.5" xlink:href="#tool-T2-pad-1014"/><use x="383" y="64.5" xlink:href="#tool-T2-pad-1014"/><use x="283" y="64.5" xlink:href="#tool-T2-pad-1014"/><use x="183" y="64.5" xlink:href="#tool-T2-pad-1014"/><use x="83" y="64.5" xlink:href="#tool-T2-pad-1014"/></g><rect x="-13" y="-40" width="26" height="80" id="tool-D11-pad-1069"/><polygon points="34.99992885182121,14.497445212517734 14.497445212517738,34.99992885182121 -14.497445212517732,34.99992885182121 -34.99992885182121,14.49744521251774 -34.99992885182122,-14.49744521251773 -14.497445212517755,-34.9999288518212 14.497445212517743,-34.99992885182121 34.9999288518212,-14.497445212517757" id="tool-D12-pad-1070"/><rect x="-25.6" y="-31.5" width="51.2" height="63" id="tool-D13-pad-1071"/><circle cx="0" cy="0" r="12.9" id="tool-D16-pad-1074"/><g fill="currentColor" stroke="currentColor" id="bottom-bcu_12"><path stroke-width="0" fill="none" d="M 33 15 L 33 614.5 L 732.2 614.5 L 732.2 15 L 33 15"/><use x="233" y="193.5" xlink:href="#tool-D11-pad-1069"/><use x="283" y="193.5" xlink:href="#tool-D11-pad-1069"/><use x="333" y="193.5" xlink:href="#tool-D11-pad-1069"/><use x="383" y="193.5" xlink:href="#tool-D11-pad-1069"/><use x="433" y="193.5" xlink:href="#tool-D11-pad-1069"/><use x="483" y="193.5" xlink:href="#tool-D11-pad-1069"/><use x="533" y="193.5" xlink:href="#tool-D11-pad-1069"/><use x="533" y="435.5" xlink:href="#tool-D11-pad-1069"/><use x="483" y="435.5" xlink:href="#tool-D11-pad-1069"/><use x="433" y="435.5" xlink:href="#tool-D11-pad-1069"/><use x="383" y="435.5" xlink:href="#tool-D11-pad-1069"/><use x="333" y="435.5" xlink:href="#tool-D11-pad-1069"/><use x="283" y="435.5" xlink:href="#tool-D11-pad-1069"/><use x="233" y="435.5" xlink:href="#tool-D11-pad-1069"/><use x="183" y="564.5" xlink:href="#tool-D12-pad-1070"/><use x="83" y="564.5" xlink:href="#tool-D12-pad-1070"/><use x="283" y="564.5" xlink:href="#tool-D12-pad-1070"/><use x="383" y="564.5" xlink:href="#tool-D12-pad-1070"/><use x="483" y="564.5" xlink:href="#tool-D12-pad-1070"/><use x="583" y="564.5" xlink:href="#tool-D12-pad-1070"/><use x="683" y="564.5" xlink:href="#tool-D12-pad-1070"/><use x="683" y="64.5" xlink:href="#tool-D12-pad-1070"/><use x="583" y="64.5" xlink:href="#tool-D12-pad-1070"/><use x="483" y="64.5" xlink:href="#tool-D12-pad-1070"/><use x="383" y="64.5" xlink:href="#tool-D12-pad-1070"/><use x="283" y="64.5" xlink:href="#tool-D12-pad-1070"/><use x="183" y="64.5" xlink:href="#tool-D12-pad-1070"/><use x="83" y="64.5" xlink:href="#tool-D12-pad-1070"/><use x="88.6" y="445" xlink:href="#tool-D13-pad-1071"/><use x="167.4" y="445" xlink:href="#tool-D13-pad-1071"/><path stroke-width="12" fill="none" d="M 233 435.5 L 233 389.5 L 220.5 377 L 158 377 L 83 302 L 83 64.5 M 108 139.5 L 108 289.5 L 170.5 352 L 245.5 352 L 283 389.5 L 283 435.5 M 333 435.5 L 333 389.5 L 270.5 327 L 183 327 L 133 277 L 133 152 L 170.5 114.5 L 233 114.5 L 283 64.5 M 270.5 114.5 L 245.5 139.5 L 183 139.5 L 158 164.5 L 158 264.5 L 195.5 302 L 295.5 302 L 383 389.5 L 383 435.5 M 433 435.5 L 433 389.5 L 495.5 327 L 595.5 327 L 633 289.5 L 633 152 L 595.5 114.5 L 533 114.5 L 483 64.5 M 383 64.5 L 333 114.5 L 270.5 114.5 M 283 193.5 L 283 251 M 233 251 L 233 193.5 M 333 193.5 L 333 240.5 M 383 251 L 383 193.5 M 433 193.5 L 433 238.5 M 483 251 L 483 193.5 M 533 193.5 L 533 253 M 520.5 352 L 483 389.5 L 483 435.5 M 533 435.5 L 533 389.5 L 545.5 377 L 620.5 377 L 683 314.5 L 683 64.5 M 658 138.5 L 658 302 L 608 352 L 520.5 352 M 658 138.5 L 583 64.5 M 183 64.5 L 108 139.5 M 88.6 445 L 83 445 L 83 564.5"/><path stroke-width="10" fill="none" d="M 115 596.2 L 151 596.2 M 154.4 599.5 L 138 583.1 L 138 545.9 L 164.4 519.5 L 201.6 519.5 L 228 545.9 L 228 583.1 L 211.6 599.5 L 254.4 599.5 L 238 583.1 L 238 545.9 L 264.4 519.5 L 301.6 519.5 L 328 545.9 L 328 583.1 L 311.6 599.5 L 354.4 599.5 L 338 583.1 L 338 545.9 L 364.4 519.5 L 401.6 519.5 L 428 545.9 L 428 583.1 L 411.6 599.5 L 454.4 599.5 L 438 583.1 L 438 545.9 L 464.4 519.5 L 501.6 519.5 L 528 545.9 L 528 583.1 L 511.6 599.5 L 554.4 599.5 L 538 583.1 L 538 545.9 L 564.4 519.5 L 601.6 519.5 L 628 545.9 L 628 583.1 L 611.6 599.5 L 654.4 599.5 L 638 583.1 L 638 545.9 L 664.4 519.5 L 701.6 519.5 L 717.2 535.1 L 717.2 101 L 703.7 114.5 L 688 114.5 L 688 69.5 L 678 69.5 L 678 114.5 L 662.3 114.5 L 648.8 101 L 642.8 101 L 664.6 122.5 L 669.3 127.1 L 674 131.8 L 674 131.9 L 674 138.4 L 674 145 L 674 145.1 L 674 308.6 L 624 358.6 L 614.6 368 L 527.1 368 L 512.8 382.3 L 514.2 381.5 L 518 380.5 L 531.5 380.5 L 531.5 434 L 534.5 434 L 534.5 437 L 561 437 L 561 477.5 L 560 481.3 L 558 484.7 L 555.2 487.5 L 551.8 489.5 L 548 490.5 L 534.5 490.5 L 534.5 437 L 531.5 437 L 531.5 490.5 L 518 490.5 L 514.2 489.5 L 510.8 487.5 L 508 484.7 L 506 481.3 L 505.7 480 L 500.1 485.5 L 465.9 485.5 L 460 479.6 L 460 403 L 456 403 L 456 479.6 L 450.1 485.5 L 415.9 485.5 L 410 479.6 L 410 391.4 L 415.9 385.5 L 417 385.5 L 417 382.9 L 426.4 373.5 L 488.9 311 L 588.9 311 L 617 282.9 L 617 158.6 L 588.9 130.5 L 526.4 130.5 L 517 121.1 L 503.5 107.6 L 501.6 109.5 L 464.4 109.5 L 440.9 86 L 425.1 86 L 401.6 109.5 L 364.4 109.5 L 362.5 107.6 L 349 121.1 L 349 121.1 L 339.6 130.5 L 277.1 130.5 L 261.5 146.1 L 256 151.6 L 256 237.6 L 254 239.6 L 255.9 241.5 L 255.9 260.5 L 242.5 273.9 L 223.5 273.9 L 210.1 260.5 L 210.1 241.5 L 212 239.6 L 210 237.6 L 210 155.5 L 189.6 155.5 L 174 171.1 L 174 257.9 L 202.1 286 L 302.1 286 L 389.6 373.5 L 399 382.9 L 399 385.5 L 400.1 385.5 L 406 391.4 L 406 479.6 L 400.1 485.5 L 365.9 485.5 L 360 479.6 L 360 403 L 356 403 L 356 479.6 L 350.1 485.5 L 315.9 485.5 L 310 479.6 L 310 403 L 306 403 L 306 479.6 L 300.1 485.5 L 265.9 485.5 L 260 479.6 L 260 403 L 256 403 L 256 479.6 L 250.1 485.5 L 215.9 485.5 L 210 479.6 L 210 393 L 151.4 393 L 142 383.6 L 67 308.6 L 67 109.5 L 64.4 109.5 L 48 93.1 L 48 535.9 L 64.4 519.5 L 67 519.5 L 67 486.5 L 58.9 486.5 L 53 480.6 L 53 409.4 L 58.9 403.5 L 118.4 403.5 L 124.2 409.4 L 124.2 480.6 L 118.4 486.5 L 99 486.5 L 99 519.5 L 101.6 519.5 L 128 545.9 L 128 583.1 L 111.6 599.5 L 154.4 599.5 M 141.2 586.3 L 124.8 586.3 M 128 576.5 L 138 576.5 M 138 566.6 L 128 566.6 M 128 556.8 L 138 556.8 M 138 546.9 L 128 546.9 M 119.2 537.1 L 146.8 537.1 M 156.7 527.2 L 109.3 527.2 M 99 517.4 L 717.2 517.4 M 717.2 527.2 L 709.3 527.2 M 717.2 507.5 L 99 507.5 M 99 497.7 L 717.2 497.7 M 717.2 487.8 L 554.7 487.8 M 560.9 478 L 717.2 478 M 717.2 468.1 L 561 468.1 M 561 458.3 L 717.2 458.3 M 717.2 448.4 L 561 448.4 M 561 438.6 L 717.2 438.6 M 717.2 428.7 L 561 428.7 M 561 434 L 534.5 434 L 534.5 380.5 L 548 380.5 L 551.8 381.5 L 555.2 383.5 L 558 386.3 L 560 389.7 L 561 393.5 L 561 434 M 561 418.9 L 717.2 418.9 M 717.2 409 L 561 409 M 561 399.2 L 717.2 399.2 M 717.2 389.3 L 559.7 389.3 M 534.5 389.3 L 531.5 389.3 M 531.5 399.2 L 534.5 399.2 M 534.5 409 L 531.5 409 M 531.5 418.9 L 534.5 418.9 M 534.5 428.7 L 531.5 428.7 M 531.5 438.6 L 534.5 438.6 M 534.5 448.4 L 531.5 448.4 M 531.5 458.3 L 534.5 458.3 M 534.5 468.1 L 531.5 468.1 M 531.5 478 L 534.5 478 M 534.5 487.8 L 531.5 487.8 M 511.3 487.8 L 202.9 487.8 M 202.2 488.5 L 198.8 490.5 L 194.9 491.5 L 172.4 491.5 L 172.4 450 L 208 450 L 208 478.5 L 206.9 482.3 L 205 485.7 L 202.2 488.5 M 208 478 L 210 478 M 210 468.1 L 208 468.1 M 208 458.3 L 210 458.3 M 210 448.4 L 172.4 448.4 M 172.4 450 L 172.4 440 L 208 440 L 208 411.5 L 206.9 407.7 L 205 404.3 L 202.2 401.5 L 198.8 399.5 L 194.9 398.5 L 172.4 398.5 L 172.4 440 L 162.4 440 L 162.4 398.5 L 139.8 398.5 L 136 399.5 L 132.6 401.5 L 129.8 404.3 L 127.8 407.7 L 126.8 411.5 L 126.8 440 L 162.4 440 L 162.4 450 L 162.4 491.5 L 139.8 491.5 L 136 490.5 L 132.6 488.5 L 129.8 485.7 L 127.8 482.3 L 126.8 478.5 L 126.8 450 L 162.4 450 L 172.4 450 M 172.4 458.3 L 162.4 458.3 M 162.4 468.1 L 172.4 468.1 M 172.4 478 L 162.4 478 M 162.4 487.8 L 172.4 487.8 M 209.3 527.2 L 256.7 527.2 M 246.8 537.1 L 219.2 537.1 M 228 546.9 L 238 546.9 M 238 556.8 L 228 556.8 M 228 566.6 L 238 566.6 M 238 576.5 L 228 576.5 M 224.8 586.3 L 241.2 586.3 M 251 596.2 L 215 596.2 M 309.3 527.2 L 356.7 527.2 M 346.8 537.1 L 319.2 537.1 M 328 546.9 L 338 546.9 M 338 556.8 L 328 556.8 M 328 566.6 L 338 566.6 M 338 576.5 L 328 576.5 M 324.8 586.3 L 341.2 586.3 M 351 596.2 L 315 596.2 M 409.3 527.2 L 456.7 527.2 M 446.8 537.1 L 419.2 537.1 M 428 546.9 L 438 546.9 M 438 556.8 L 428 556.8 M 428 566.6 L 438 566.6 M 438 576.5 L 428 576.5 M 424.8 586.3 L 441.2 586.3 M 451 596.2 L 415 596.2 M 515 596.2 L 551 596.2 M 541.2 586.3 L 524.8 586.3 M 528 576.5 L 538 576.5 M 538 566.6 L 528 566.6 M 528 556.8 L 538 556.8 M 538 546.9 L 528 546.9 M 519.2 537.1 L 546.8 537.1 M 556.7 527.2 L 509.3 527.2 M 460 478 L 456 478 M 456 468.1 L 460 468.1 M 460 458.3 L 456 458.3 M 456 448.4 L 460 448.4 M 460 438.6 L 456 438.6 M 456 428.7 L 460 428.7 M 460 418.9 L 456 418.9 M 456 409 L 460 409 M 420.4 379.5 L 395.6 379.5 M 403.9 389.3 L 412.1 389.3 M 410 399.2 L 406 399.2 M 406 409 L 410 409 M 410 418.9 L 406 418.9 M 406 428.7 L 410 428.7 M 410 438.6 L 406 438.6 M 406 448.4 L 410 448.4 M 410 458.3 L 406 458.3 M 406 468.1 L 410 468.1 M 410 478 L 406 478 M 360 478 L 356 478 M 356 468.1 L 360 468.1 M 360 458.3 L 356 458.3 M 356 448.4 L 360 448.4 M 360 438.6 L 356 438.6 M 356 428.7 L 360 428.7 M 360 418.9 L 356 418.9 M 356 409 L 360 409 M 385.7 369.6 L 430.3 369.6 M 440.1 359.8 L 375.9 359.8 M 366 349.9 L 450 349.9 M 459.8 340.1 L 356.2 340.1 M 346.3 330.2 L 469.7 330.2 M 479.5 320.4 L 336.5 320.4 M 326.6 310.5 L 589.4 310.5 M 599.2 300.7 L 316.8 300.7 M 306.9 290.8 L 609.1 290.8 M 617 281 L 197.1 281 M 187.2 271.1 L 220.7 271.1 M 210.9 261.3 L 177.4 261.3 M 174 251.4 L 210.1 251.4 M 210.1 241.6 L 174 241.6 M 174 231.7 L 210 231.7 M 210 221.9 L 174 221.9 M 174 212 L 210 212 M 210 202.2 L 174 202.2 M 174 192.3 L 210 192.3 M 210 182.5 L 174 182.5 M 174 172.6 L 210 172.6 M 210 162.8 L 182.4 162.8 M 256 162.8 L 260 162.8 M 260 152.9 L 256 152.9 M 260 149.4 L 265.9 143.5 L 300.1 143.5 L 306 149.4 L 306 237.6 L 304 239.6 L 305.9 241.5 L 305.9 260.5 L 292.5 273.9 L 273.5 273.9 L 260.1 260.5 L 260.1 241.5 L 262 239.6 L 260 237.6 L 260 149.4 M 264.6 143.1 L 601.4 143.1 M 611.3 152.9 L 556 152.9 M 556 149.4 L 550.1 143.5 L 515.9 143.5 L 510 149.4 L 510 237.6 L 513 240.6 L 510.1 243.5 L 510.1 262.5 L 523.5 275.9 L 542.5 275.9 L 555.9 262.5 L 555.9 243.5 L 553 240.6 L 556 237.6 L 556 149.4 M 556 162.8 L 617 162.8 M 617 172.6 L 556 172.6 M 556 182.5 L 617 182.5 M 617 192.3 L 556 192.3 M 556 202.2 L 617 202.2 M 617 212 L 556 212 M 556 221.9 L 617 221.9 M 617 231.7 L 556 231.7 M 553.9 241.6 L 617 241.6 M 617 251.4 L 555.9 251.4 M 555.9 261.3 L 617 261.3 M 617 271.1 L 547.3 271.1 M 518.7 271.1 L 495.3 271.1 M 492.5 273.9 L 473.5 273.9 L 460.1 260.5 L 460.1 241.5 L 462 239.6 L 460 237.6 L 460 149.4 L 465.9 143.5 L 500.1 143.5 L 506 149.4 L 506 237.6 L 504 239.6 L 505.9 241.5 L 505.9 260.5 L 492.5 273.9 M 505.1 261.3 L 510.1 261.3 M 510.1 251.4 L 505.9 251.4 M 505.9 241.6 L 512.1 241.6 M 510 231.7 L 506 231.7 M 506 221.9 L 510 221.9 M 510 212 L 506 212 M 506 202.2 L 510 202.2 M 510 192.3 L 506 192.3 M 506 182.5 L 510 182.5 M 510 172.6 L 506 172.6 M 506 162.8 L 510 162.8 M 510 152.9 L 506 152.9 M 519.2 123.4 L 346.8 123.4 M 356.6 113.5 L 509.4 113.5 M 458.5 103.7 L 407.5 103.7 M 417.3 93.8 L 448.7 93.8 M 450.1 143.5 L 415.9 143.5 L 410 149.4 L 410 237.6 L 410.1 237.8 L 410.1 248 L 423.5 261.4 L 442.5 261.4 L 455.9 248 L 455.9 237.8 L 456 237.6 L 456 149.4 L 450.1 143.5 M 456 152.9 L 460 152.9 M 460 162.8 L 456 162.8 M 456 172.6 L 460 172.6 M 460 182.5 L 456 182.5 M 456 192.3 L 460 192.3 M 460 202.2 L 456 202.2 M 456 212 L 460 212 M 460 221.9 L 456 221.9 M 456 231.7 L 460 231.7 M 460.1 241.6 L 455.9 241.6 M 452.5 251.4 L 460.1 251.4 M 460.9 261.3 L 442.6 261.3 M 423.4 261.3 L 405.1 261.3 M 405.9 260.5 L 392.5 273.9 L 373.5 273.9 L 360.1 260.5 L 360.1 241.5 L 362 239.6 L 360 237.6 L 360 149.4 L 365.9 143.5 L 400.1 143.5 L 406 149.4 L 406 237.6 L 404 239.6 L 405.9 241.5 L 405.9 260.5 M 405.9 251.4 L 413.5 251.4 M 410.1 241.6 L 405.9 241.6 M 406 231.7 L 410 231.7 M 410 221.9 L 406 221.9 M 406 212 L 410 212 M 410 202.2 L 406 202.2 M 406 192.3 L 410 192.3 M 410 182.5 L 406 182.5 M 406 172.6 L 410 172.6 M 410 162.8 L 406 162.8 M 406 152.9 L 410 152.9 M 360 152.9 L 356 152.9 M 356 149.4 L 350.1 143.5 L 315.9 143.5 L 310 149.4 L 310 237.6 L 310.1 237.8 L 310.1 250 L 323.5 263.4 L 342.5 263.4 L 355.9 250 L 355.9 237.8 L 356 237.6 L 356 149.4 M 356 162.8 L 360 162.8 M 360 172.6 L 356 172.6 M 356 182.5 L 360 182.5 M 360 192.3 L 356 192.3 M 356 202.2 L 360 202.2 M 360 212 L 356 212 M 356 221.9 L 360 221.9 M 360 231.7 L 356 231.7 M 355.9 241.6 L 360.1 241.6 M 360.1 251.4 L 354.5 251.4 M 360.9 261.3 L 344.6 261.3 M 370.7 271.1 L 295.3 271.1 M 305.1 261.3 L 321.4 261.3 M 311.5 251.4 L 305.9 251.4 M 305.9 241.6 L 310.1 241.6 M 310 231.7 L 306 231.7 M 306 221.9 L 310 221.9 M 310 212 L 306 212 M 306 202.2 L 310 202.2 M 310 192.3 L 306 192.3 M 306 182.5 L 310 182.5 M 310 172.6 L 306 172.6 M 306 162.8 L 310 162.8 M 310 152.9 L 306 152.9 M 274.4 133.2 L 591.6 133.2 M 645.5 103.7 L 651.4 103.7 M 655.4 113.5 L 661.3 113.5 M 664.6 122.5 L 664.6 122.5 M 665.5 123.4 L 717.2 123.4 M 717.2 133.2 L 674 133.2 M 674 131.8 L 674 131.8 M 674 143.1 L 717.2 143.1 M 717.2 152.9 L 674 152.9 M 674 162.8 L 717.2 162.8 M 717.2 172.6 L 674 172.6 M 674 182.5 L 717.2 182.5 M 717.2 192.3 L 674 192.3 M 674 202.2 L 717.2 202.2 M 717.2 212 L 674 212 M 674 221.9 L 717.2 221.9 M 717.2 231.7 L 674 231.7 M 674 241.6 L 717.2 241.6 M 717.2 251.4 L 674 251.4 M 674 261.3 L 717.2 261.3 M 717.2 271.1 L 674 271.1 M 674 281 L 717.2 281 M 717.2 290.8 L 674 290.8 M 674 300.7 L 717.2 300.7 M 717.2 310.5 L 672.1 310.5 M 662.3 320.4 L 717.2 320.4 M 717.2 330.2 L 652.4 330.2 M 642.6 340.1 L 717.2 340.1 M 717.2 349.9 L 632.7 349.9 M 622.9 359.8 L 717.2 359.8 M 717.2 369.6 L 525.5 369.6 M 515.7 379.5 L 717.2 379.5 M 656.7 527.2 L 609.3 527.2 M 619.2 537.1 L 646.8 537.1 M 638 546.9 L 628 546.9 M 628 556.8 L 638 556.8 M 638 566.6 L 628 566.6 M 628 576.5 L 638 576.5 M 641.2 586.3 L 624.8 586.3 M 615 596.2 L 651 596.2 M 470.7 271.1 L 395.3 271.1 M 270.7 271.1 L 245.3 271.1 M 255.1 261.3 L 260.9 261.3 M 260.1 251.4 L 255.9 251.4 M 255.9 241.6 L 260.1 241.6 M 260 231.7 L 256 231.7 M 256 221.9 L 260 221.9 M 260 212 L 256 212 M 256 202.2 L 260 202.2 M 260 192.3 L 256 192.3 M 256 182.5 L 260 182.5 M 260 172.6 L 256 172.6 M 88.6 330.2 L 48 330.2 M 48 340.1 L 98.4 340.1 M 108.3 349.9 L 48 349.9 M 48 359.8 L 118.1 359.8 M 128 369.6 L 48 369.6 M 48 379.5 L 137.8 379.5 M 147.7 389.3 L 48 389.3 M 48 399.2 L 137.4 399.2 M 127.5 409 L 123.9 409 M 124.2 418.9 L 126.8 418.9 M 126.8 428.7 L 124.2 428.7 M 124.2 438.6 L 126.8 438.6 M 124.2 448.4 L 162.4 448.4 M 162.4 438.6 L 172.4 438.6 M 172.4 428.7 L 162.4 428.7 M 162.4 418.9 L 172.4 418.9 M 172.4 409 L 162.4 409 M 162.4 399.2 L 172.4 399.2 M 197.3 399.2 L 210 399.2 M 210 409 L 207.3 409 M 208 418.9 L 210 418.9 M 210 428.7 L 208 428.7 M 208 438.6 L 210 438.6 M 256 438.6 L 260 438.6 M 260 448.4 L 256 448.4 M 256 458.3 L 260 458.3 M 260 468.1 L 256 468.1 M 256 478 L 260 478 M 306 478 L 310 478 M 310 468.1 L 306 468.1 M 306 458.3 L 310 458.3 M 310 448.4 L 306 448.4 M 306 438.6 L 310 438.6 M 310 428.7 L 306 428.7 M 306 418.9 L 310 418.9 M 310 409 L 306 409 M 260 409 L 256 409 M 256 418.9 L 260 418.9 M 260 428.7 L 256 428.7 M 131.9 487.8 L 99 487.8 M 124.2 478 L 126.8 478 M 126.8 468.1 L 124.2 468.1 M 124.2 458.3 L 126.8 458.3 M 67 487.8 L 48 487.8 M 48 478 L 53 478 M 53 468.1 L 48 468.1 M 48 458.3 L 53 458.3 M 53 448.4 L 48 448.4 M 48 438.6 L 53 438.6 M 53 428.7 L 48 428.7 M 48 418.9 L 53 418.9 M 53.4 409 L 48 409 M 48 497.7 L 67 497.7 M 67 507.5 L 48 507.5 M 48 517.4 L 67 517.4 M 56.7 527.2 L 48 527.2 M 48 320.4 L 78.7 320.4 M 68.9 310.5 L 48 310.5 M 48 300.7 L 67 300.7 M 67 290.8 L 48 290.8 M 48 281 L 67 281 M 67 271.1 L 48 271.1 M 48 261.3 L 67 261.3 M 67 251.4 L 48 251.4 M 48 241.6 L 67 241.6 M 67 231.7 L 48 231.7 M 48 221.9 L 67 221.9 M 67 212 L 48 212 M 48 202.2 L 67 202.2 M 67 192.3 L 48 192.3 M 48 182.5 L 67 182.5 M 67 172.6 L 48 172.6 M 48 162.8 L 67 162.8 M 67 152.9 L 48 152.9 M 48 143.1 L 67 143.1 M 67 133.2 L 48 133.2 M 48 123.4 L 67 123.4 M 67 113.5 L 48 113.5 M 48 103.7 L 58.5 103.7 M 48.7 93.8 L 48 93.8 M 678 93.8 L 688 93.8 M 688 103.7 L 678 103.7 M 678 113.5 L 688 113.5 M 704.7 113.5 L 717.2 113.5 M 717.2 103.7 L 714.6 103.7 M 688 84 L 678 84 M 678 74.1 L 688 74.1"/><use x="533" y="253" xlink:href="#tool-D16-pad-1074"/><use x="483" y="251" xlink:href="#tool-D16-pad-1074"/><use x="433" y="238.5" xlink:href="#tool-D16-pad-1074"/><use x="383" y="251" xlink:href="#tool-D16-pad-1074"/><use x="333" y="240.5" xlink:href="#tool-D16-pad-1074"/><use x="283" y="251" xlink:href="#tool-D16-pad-1074"/><use x="233" y="251" xlink:href="#tool-D16-pad-1074"/><use x="433" y="102.5" xlink:href="#tool-D16-pad-1074"/><use x="433" y="515" xlink:href="#tool-D16-pad-1074"/><use x="333" y="515" xlink:href="#tool-D16-pad-1074"/><use x="233" y="527.5" xlink:href="#tool-D16-pad-1074"/><use x="133" y="515" xlink:href="#tool-D16-pad-1074"/><use x="533" y="527.5" xlink:href="#tool-D16-pad-1074"/><use x="633" y="527.5" xlink:href="#tool-D16-pad-1074"/></g><mask id="bottom-sm_13" color="#fff"><use xlink:href="#bottom-bcu_12"/></mask><mask id="bottom-sm_14" color="#000"><rect class="Board--cover" fill="#fff" x="33" y="15" width="699.2" height="599.5"/><use xlink:href="#bottom-bsm_10"/></mask><mask id="bottom-mech_15" color="#000"><rect class="Board--cover" fill="#fff" x="33" y="15" width="699.2" height="599.5"/><use xlink:href="#bottom-drl_11"/></mask></defs><g transform="translate(765.2,629.5) scale(-1,-1)" mask="url(#bottom-mech_15)"><rect class="Board--board" fill="currentColor" x="33" y="15" width="699.2" height="599.5"/><use class="Board--cu" xlink:href="#bottom-bcu_12"/><use class="Board--cf" mask="url(#bottom-sm_13)" xlink:href="#bottom-bsm_10"/><g mask="url(#bottom-sm_14)"><rect class="Board--sm" fill="currentColor" x="33" y="15" width="699.2" height="599.5"/><use class="Board--ss" xlink:href="#bottom-bss_8"/></g><use class="Board--sp" xlink:href="#bottom-bsp_9"/></g></svg>