<svg xmlns="http://www.w3.org/2000/svg" version="1.1" xmlns:xlink="http://www.w3.org/1999/xlink" width="0.6992in" height="0.5995in" viewBox="33 15 699.2 599.5" stroke-linecap="round" stroke-linejoin="round" stroke-width="0" stroke="#000" class="Board"><style type="text/css"> .Board--board { color: dimgrey; } .Board--cu { color: lightgrey; } .Board--cf { color: goldenrod; } .Board--sm { color: black; opacity: 0.75; } .Board--ss { color: white; } .Board--sp { color: silver; } .Board--out { color: black; } </style><defs><polygon points="34.99992885182121,14.497445212517734 14.497445212517738,34.99992885182121 -14.497445212517732,34.99992885182121 -34.99992885182121,14.49744521251774 -34.99992885182122,-14.49744521251773 -14.497445212517755,-34.9999288518212 14.497445212517743,-34.99992885182121 34.9999288518212,-14.497445212517757" id="tool-D11-pad-1006"/><circle cx="0" cy="0" r="12.9" id="tool-D13-pad-1008"/><g fill="currentColor" stroke="currentColor" id="top-tcu_0"><path stroke-width="0" fill="none" d="M 33 15 L 33 614.5 L 732.2 614.5 L 732.2 15 L 33 15"/><use x="83" y="64.5" xlink:href="#tool-D11-pad-1006"/><use x="183" y="64.5" xlink:href="#tool-D11-pad-1006"/><use x="283" y="64.5" xlink:href="#tool-D11-pad-1006"/><use x="383" y="64.5" xlink:href="#tool-D11-pad-1006"/><use x="483" y="64.5" xlink:href="#tool-D11-pad-1006"/><use x="583" y="64.5" xlink:href="#tool-D11-pad-1006"/><use x="683" y="64.5" xlink:href="#tool-D11-pad-1006"/><use x="683" y="564.5" xlink:href="#tool-D11-pad-1006"/><use x="583" y="564.5" xlink:href="#tool-D11-pad-1006"/><use x="483" y="564.5" xlink:href="#tool-D11-pad-1006"/><use x="383" y="564.5" xlink:href="#tool-D11-pad-1006"/><use x="283" y="564.5" xlink:href="#tool-D11-pad-1006"/><use x="183" y="564.5" xlink:href="#tool-D11-pad-1006"/><use x="83" y="564.5" xlink:href="#tool-D11-pad-1006"/><path stroke-width="10" fill="none" d="M 115 596.2 L 151 596.2 M 154.4 599.5 L 138 583.1 L 138 545.9 L 164.4 519.5 L 167 519.5 L 167 344.4 L 176.4 335 L 237.5 273.9 L 232.7 273.9 L 99 407.6 L 99 519.5 L 101.6 519.5 L 128 545.9 L 128 583.1 L 111.6 599.5 L 154.4 599.5 M 141.2 586.3 L 124.8 586.3 M 128 576.5 L 138 576.5 M 138 566.6 L 128 566.6 M 128 556.8 L 138 556.8 M 138 546.9 L 128 546.9 M 119.2 537.1 L 146.8 537.1 M 156.7 527.2 L 109.3 527.2 M 99 517.4 L 167 517.4 M 167 507.5 L 99 507.5 M 99 497.7 L 167 497.7 M 167 487.8 L 99 487.8 M 99 478 L 167 478 M 167 468.1 L 99 468.1 M 99 458.3 L 167 458.3 M 167 448.4 L 99 448.4 M 99 438.6 L 167 438.6 M 167 428.7 L 99 428.7 M 99 418.9 L 167 418.9 M 167 409 L 99 409 M 107.5 399.2 L 167 399.2 M 167 389.3 L 117.3 389.3 M 127.2 379.5 L 167 379.5 M 167 369.6 L 137 369.6 M 146.9 359.8 L 167 359.8 M 167 349.9 L 156.7 349.9 M 166.6 340.1 L 171.3 340.1 M 176.4 330.2 L 181.2 330.2 M 186.3 320.4 L 191 320.4 M 196.1 310.5 L 200.9 310.5 M 206 300.7 L 210.7 300.7 M 215.8 290.8 L 220.6 290.8 M 225.7 281 L 230.4 281 M 256 300.7 L 267 300.7 M 267 310.5 L 246.1 310.5 M 236.3 320.4 L 267 320.4 M 267 330.2 L 226.4 330.2 M 216.6 340.1 L 267 340.1 M 267 349.9 L 206.7 349.9 M 199 357.6 L 199 519.5 L 201.6 519.5 L 228 545.9 L 228 583.1 L 211.6 599.5 L 254.4 599.5 L 238 583.1 L 238 545.9 L 264.4 519.5 L 267 519.5 L 267 289.6 L 199 357.6 M 199 359.8 L 267 359.8 M 267 369.6 L 199 369.6 M 199 379.5 L 267 379.5 M 267 389.3 L 199 389.3 M 199 399.2 L 267 399.2 M 267 409 L 199 409 M 199 418.9 L 267 418.9 M 267 428.7 L 199 428.7 M 199 438.6 L 267 438.6 M 267 448.4 L 199 448.4 M 199 458.3 L 267 458.3 M 267 468.1 L 199 468.1 M 199 478 L 267 478 M 267 487.8 L 199 487.8 M 199 497.7 L 267 497.7 M 267 507.5 L 199 507.5 M 199 517.4 L 267 517.4 M 256.7 527.2 L 209.3 527.2 M 219.2 537.1 L 246.8 537.1 M 238 546.9 L 228 546.9 M 228 556.8 L 238 556.8 M 238 566.6 L 228 566.6 M 228 576.5 L 238 576.5 M 241.2 586.3 L 224.8 586.3 M 215 596.2 L 251 596.2 M 311.6 599.5 L 354.4 599.5 L 338 583.1 L 338 545.9 L 364.4 519.5 L 367 519.5 L 367 267.4 L 360.1 260.5 L 360.1 241.5 L 373.5 228.1 L 392.5 228.1 L 405.9 241.5 L 405.9 260.5 L 399 267.4 L 399 519.5 L 401.6 519.5 L 428 545.9 L 428 583.1 L 411.6 599.5 L 454.4 599.5 L 438 583.1 L 438 545.9 L 464.4 519.5 L 467 519.5 L 467 295.1 L 433.3 261.4 L 423.5 261.4 L 410.1 248 L 410.1 229 L 423.5 215.6 L 442.5 215.6 L 455.9 229 L 455.9 238.8 L 460.1 243 L 460.1 241.5 L 473.5 228.1 L 492.5 228.1 L 505.9 241.5 L 505.9 251.3 L 510.1 255.5 L 510.1 243.5 L 523.5 230.1 L 542.5 230.1 L 555.9 243.5 L 555.9 253.3 L 689.6 387 L 699 396.4 L 699 519.5 L 701.6 519.5 L 717.2 535.1 L 717.2 101 L 703.7 114.5 L 688 114.5 L 688 69.5 L 678 69.5 L 678 114.5 L 662.3 114.5 L 633 85.2 L 633 69.5 L 678 69.5 L 678 59.5 L 633 59.5 L 633 43.8 L 646.8 30 L 612.1 30 L 628 45.9 L 628 83.1 L 601.6 109.5 L 564.4 109.5 L 538 83.1 L 538 45.9 L 553.9 30 L 512.1 30 L 528 45.9 L 528 83.1 L 501.6 109.5 L 464.4 109.5 L 438 83.1 L 438 45.9 L 453.9 30 L 412.1 30 L 428 45.9 L 428 83.1 L 401.6 109.5 L 364.4 109.5 L 338 83.1 L 338 45.9 L 353.9 30 L 312.1 30 L 328 45.9 L 328 83.1 L 301.6 109.5 L 264.4 109.5 L 238 83.1 L 238 45.9 L 253.9 30 L 212.1 30 L 228 45.9 L 228 83.1 L 201.6 109.5 L 164.4 109.5 L 138 83.1 L 138 45.9 L 153.9 30 L 112.1 30 L 128 45.9 L 128 83.1 L 101.6 109.5 L 64.4 109.5 L 48 93.1 L 48 535.9 L 64.4 519.5 L 67 519.5 L 67 394.4 L 76.4 385 L 210.1 251.3 L 210.1 241.5 L 223.5 228.1 L 242.5 228.1 L 255.9 241.5 L 255.9 255.5 L 260.1 251.3 L 260.1 241.5 L 273.5 228.1 L 292.5 228.1 L 305.9 241.5 L 305.9 245 L 310.1 240.8 L 310.1 231 L 323.5 217.6 L 342.5 217.6 L 355.9 231 L 355.9 250 L 342.5 263.4 L 332.7 263.4 L 299 297.1 L 299 519.5 L 301.6 519.5 L 328 545.9 L 328 583.1 L 311.6 599.5 M 315 596.2 L 351 596.2 M 341.2 586.3 L 324.8 586.3 M 328 576.5 L 338 576.5 M 338 566.6 L 328 566.6 M 328 556.8 L 338 556.8 M 338 546.9 L 328 546.9 M 319.2 537.1 L 346.8 537.1 M 356.7 527.2 L 309.3 527.2 M 299 517.4 L 367 517.4 M 367 507.5 L 299 507.5 M 299 497.7 L 367 497.7 M 367 487.8 L 299 487.8 M 299 478 L 367 478 M 367 468.1 L 299 468.1 M 299 458.3 L 367 458.3 M 367 448.4 L 299 448.4 M 299 438.6 L 367 438.6 M 367 428.7 L 299 428.7 M 299 418.9 L 367 418.9 M 367 409 L 299 409 M 299 399.2 L 367 399.2 M 367 389.3 L 299 389.3 M 299 379.5 L 367 379.5 M 367 369.6 L 299 369.6 M 299 359.8 L 367 359.8 M 367 349.9 L 299 349.9 M 299 340.1 L 367 340.1 M 367 330.2 L 299 330.2 M 299 320.4 L 367 320.4 M 367 310.5 L 299 310.5 M 299 300.7 L 367 300.7 M 367 290.8 L 305.3 290.8 M 315.2 281 L 367 281 M 367 271.1 L 325 271.1 M 344.6 261.3 L 360.9 261.3 M 360.1 251.4 L 354.5 251.4 M 355.9 241.6 L 360.1 241.6 M 355.9 231.7 L 369.9 231.7 M 346.7 221.9 L 417.3 221.9 M 410.1 231.7 L 396.1 231.7 M 405.9 241.6 L 410.1 241.6 M 413.5 251.4 L 405.9 251.4 M 405.1 261.3 L 423.4 261.3 M 443 271.1 L 399 271.1 M 399 281 L 452.8 281 M 462.7 290.8 L 399 290.8 M 399 300.7 L 467 300.7 M 467 310.5 L 399 310.5 M 399 320.4 L 467 320.4 M 467 330.2 L 399 330.2 M 399 340.1 L 467 340.1 M 467 349.9 L 399 349.9 M 399 359.8 L 467 359.8 M 467 369.6 L 399 369.6 M 399 379.5 L 467 379.5 M 467 389.3 L 399 389.3 M 399 399.2 L 467 399.2 M 467 409 L 399 409 M 399 418.9 L 467 418.9 M 467 428.7 L 399 428.7 M 399 438.6 L 467 438.6 M 467 448.4 L 399 448.4 M 399 458.3 L 467 458.3 M 467 468.1 L 399 468.1 M 399 478 L 467 478 M 467 487.8 L 399 487.8 M 399 497.7 L 467 497.7 M 467 507.5 L 399 507.5 M 399 517.4 L 467 517.4 M 456.7 527.2 L 409.3 527.2 M 419.2 537.1 L 446.8 537.1 M 438 546.9 L 428 546.9 M 428 556.8 L 438 556.8 M 438 566.6 L 428 566.6 M 428 576.5 L 438 576.5 M 441.2 586.3 L 424.8 586.3 M 415 596.2 L 451 596.2 M 511.6 599.5 L 554.4 599.5 L 538 583.1 L 538 545.9 L 564.4 519.5 L 567 519.5 L 567 357.6 L 499 289.6 L 499 519.5 L 501.6 519.5 L 528 545.9 L 528 583.1 L 511.6 599.5 M 515 596.2 L 551 596.2 M 541.2 586.3 L 524.8 586.3 M 528 576.5 L 538 576.5 M 538 566.6 L 528 566.6 M 528 556.8 L 538 556.8 M 538 546.9 L 528 546.9 M 519.2 537.1 L 546.8 537.1 M 556.7 527.2 L 509.3 527.2 M 499 517.4 L 567 517.4 M 567 507.5 L 499 507.5 M 499 497.7 L 567 497.7 M 567 487.8 L 499 487.8 M 499 478 L 567 478 M 567 468.1 L 499 468.1 M 499 458.3 L 567 458.3 M 567 448.4 L 499 448.4 M 499 438.6 L 567 438.6 M 567 428.7 L 499 428.7 M 499 418.9 L 567 418.9 M 567 409 L 499 409 M 499 399.2 L 567 399.2 M 567 389.3 L 499 389.3 M 499 379.5 L 567 379.5 M 567 369.6 L 499 369.6 M 499 359.8 L 567 359.8 M 559.3 349.9 L 499 349.9 M 499 340.1 L 549.4 340.1 M 539.6 330.2 L 499 330.2 M 499 320.4 L 529.7 320.4 M 519.9 310.5 L 499 310.5 M 499 300.7 L 510 300.7 M 500.2 290.8 L 499 290.8 M 530.5 275.9 L 589.6 335 L 599 344.4 L 599 519.5 L 601.6 519.5 L 628 545.9 L 628 583.1 L 611.6 599.5 L 654.4 599.5 L 638 583.1 L 638 545.9 L 664.4 519.5 L 667 519.5 L 667 409.6 L 533.3 275.9 L 530.5 275.9 M 535.6 281 L 538.3 281 M 545.4 290.8 L 548.2 290.8 M 555.3 300.7 L 558 300.7 M 565.1 310.5 L 567.9 310.5 M 575 320.4 L 577.7 320.4 M 584.8 330.2 L 587.6 330.2 M 594.7 340.1 L 597.4 340.1 M 599 349.9 L 607.3 349.9 M 599 359.8 L 617.1 359.8 M 627 369.6 L 599 369.6 M 599 379.5 L 636.8 379.5 M 646.7 389.3 L 599 389.3 M 599 399.2 L 656.5 399.2 M 666.4 409 L 599 409 M 599 418.9 L 667 418.9 M 667 428.7 L 599 428.7 M 599 438.6 L 667 438.6 M 667 448.4 L 599 448.4 M 599 458.3 L 667 458.3 M 667 468.1 L 599 468.1 M 599 478 L 667 478 M 667 487.8 L 599 487.8 M 599 497.7 L 667 497.7 M 667 507.5 L 599 507.5 M 599 517.4 L 667 517.4 M 656.7 527.2 L 609.3 527.2 M 619.2 537.1 L 646.8 537.1 M 638 546.9 L 628 546.9 M 628 556.8 L 638 556.8 M 638 566.6 L 628 566.6 M 628 576.5 L 638 576.5 M 641.2 586.3 L 624.8 586.3 M 615 596.2 L 651 596.2 M 709.3 527.2 L 717.2 527.2 M 717.2 517.4 L 699 517.4 M 699 507.5 L 717.2 507.5 M 717.2 497.7 L 699 497.7 M 699 487.8 L 717.2 487.8 M 717.2 478 L 699 478 M 699 468.1 L 717.2 468.1 M 717.2 458.3 L 699 458.3 M 699 448.4 L 717.2 448.4 M 717.2 438.6 L 699 438.6 M 699 428.7 L 717.2 428.7 M 717.2 418.9 L 699 418.9 M 699 409 L 717.2 409 M 717.2 399.2 L 699 399.2 M 691.9 389.3 L 717.2 389.3 M 717.2 379.5 L 682.1 379.5 M 672.2 369.6 L 717.2 369.6 M 717.2 359.8 L 662.4 359.8 M 652.5 349.9 L 717.2 349.9 M 717.2 340.1 L 642.7 340.1 M 632.8 330.2 L 717.2 330.2 M 717.2 320.4 L 623 320.4 M 613.1 310.5 L 717.2 310.5 M 717.2 300.7 L 603.3 300.7 M 593.4 290.8 L 717.2 290.8 M 717.2 281 L 583.6 281 M 573.7 271.1 L 717.2 271.1 M 717.2 261.3 L 563.9 261.3 M 555.9 251.4 L 717.2 251.4 M 717.2 241.6 L 553.9 241.6 M 544.1 231.7 L 717.2 231.7 M 717.2 221.9 L 448.7 221.9 M 455.9 231.7 L 469.9 231.7 M 460.1 241.6 L 458.7 241.6 M 496.1 231.7 L 521.9 231.7 M 512.1 241.6 L 505.9 241.6 M 506 251.4 L 510.1 251.4 M 661.3 113.5 L 48 113.5 M 48 103.7 L 58.5 103.7 M 48.7 93.8 L 48 93.8 M 48 123.4 L 717.2 123.4 M 717.2 133.2 L 48 133.2 M 48 143.1 L 717.2 143.1 M 717.2 152.9 L 48 152.9 M 48 162.8 L 717.2 162.8 M 717.2 172.6 L 48 172.6 M 48 182.5 L 717.2 182.5 M 717.2 192.3 L 48 192.3 M 48 202.2 L 717.2 202.2 M 717.2 212 L 48 212 M 48 221.9 L 319.3 221.9 M 310.1 231.7 L 296.1 231.7 M 305.9 241.6 L 309.3 241.6 M 269.9 231.7 L 246.1 231.7 M 255.9 241.6 L 260.1 241.6 M 260 251.4 L 255.9 251.4 M 265.8 290.8 L 267 290.8 M 210 251.4 L 48 251.4 M 48 261.3 L 200.1 261.3 M 190.3 271.1 L 48 271.1 M 48 281 L 180.4 281 M 170.6 290.8 L 48 290.8 M 48 300.7 L 160.7 300.7 M 150.9 310.5 L 48 310.5 M 48 320.4 L 141 320.4 M 131.2 330.2 L 48 330.2 M 48 340.1 L 121.3 340.1 M 111.5 349.9 L 48 349.9 M 48 359.8 L 101.6 359.8 M 91.8 369.6 L 48 369.6 M 48 379.5 L 81.9 379.5 M 72.1 389.3 L 48 389.3 M 48 399.2 L 67 399.2 M 67 409 L 48 409 M 48 418.9 L 67 418.9 M 67 428.7 L 48 428.7 M 48 438.6 L 67 438.6 M 67 448.4 L 48 448.4 M 48 458.3 L 67 458.3 M 67 468.1 L 48 468.1 M 48 478 L 67 478 M 67 487.8 L 48 487.8 M 48 497.7 L 67 497.7 M 67 507.5 L 48 507.5 M 48 517.4 L 67 517.4 M 56.7 527.2 L 48 527.2 M 48 241.6 L 210.1 241.6 M 219.9 231.7 L 48 231.7 M 107.5 103.7 L 158.5 103.7 M 148.7 93.8 L 117.3 93.8 M 127.2 84 L 138.8 84 M 138 74.1 L 128 74.1 M 128 64.3 L 138 64.3 M 138 54.4 L 128 54.4 M 126.7 44.6 L 139.3 44.6 M 149.2 34.7 L 116.8 34.7 M 207.5 103.7 L 258.5 103.7 M 248.7 93.8 L 217.3 93.8 M 227.2 84 L 238.8 84 M 238 74.1 L 228 74.1 M 228 64.3 L 238 64.3 M 238 54.4 L 228 54.4 M 226.7 44.6 L 239.3 44.6 M 249.2 34.7 L 216.8 34.7 M 307.5 103.7 L 358.5 103.7 M 348.7 93.8 L 317.3 93.8 M 327.2 84 L 338.8 84 M 338 74.1 L 328 74.1 M 328 64.3 L 338 64.3 M 338 54.4 L 328 54.4 M 326.7 44.6 L 339.3 44.6 M 349.2 34.7 L 316.8 34.7 M 407.5 103.7 L 458.5 103.7 M 448.7 93.8 L 417.3 93.8 M 427.2 84 L 438.8 84 M 438 74.1 L 428 74.1 M 428 64.3 L 438 64.3 M 438 54.4 L 428 54.4 M 426.7 44.6 L 439.3 44.6 M 449.2 34.7 L 416.8 34.7 M 507.5 103.7 L 558.5 103.7 M 548.7 93.8 L 517.3 93.8 M 527.2 84 L 538.8 84 M 538 74.1 L 528 74.1 M 528 64.3 L 538 64.3 M 538 54.4 L 528 54.4 M 526.7 44.6 L 539.3 44.6 M 549.2 34.7 L 516.8 34.7 M 607.5 103.7 L 651.4 103.7 M 641.6 93.8 L 617.3 93.8 M 627.2 84 L 633 84 M 633 74.1 L 628 74.1 M 628 64.3 L 678 64.3 M 678 74.1 L 688 74.1 M 688 84 L 678 84 M 678 93.8 L 688 93.8 M 688 103.7 L 678 103.7 M 678 113.5 L 688 113.5 M 704.7 113.5 L 717.2 113.5 M 717.2 103.7 L 714.6 103.7 M 642.1 34.7 L 616.8 34.7 M 626.7 44.6 L 633 44.6 M 633 54.4 L 628 54.4"/><use x="433" y="102.5" xlink:href="#tool-D13-pad-1008"/><use x="433" y="238.5" xlink:href="#tool-D13-pad-1008"/><use x="383" y="251" xlink:href="#tool-D13-pad-1008"/><use x="333" y="240.5" xlink:href="#tool-D13-pad-1008"/><use x="283" y="251" xlink:href="#tool-D13-pad-1008"/><use x="233" y="251" xlink:href="#tool-D13-pad-1008"/><use x="483" y="251" xlink:href="#tool-D13-pad-1008"/><use x="533" y="253" xlink:href="#tool-D13-pad-1008"/><use x="533" y="515" xlink:href="#tool-D13-pad-1008"/><use x="633" y="527.5" xlink:href="#tool-D13-pad-1008"/><use x="433" y="515" xlink:href="#tool-D13-pad-1008"/><use x="333" y="527.5" xlink:href="#tool-D13-pad-1008"/><use x="233" y="515" xlink:href="#tool-D13-pad-1008"/><use x="133" y="515" xlink:href="#tool-D13-pad-1008"/><path stroke-width="12" fill="none" d="M 83 564.5 L 83 401 L 233 251 M 283 251 L 183 351 L 183 564.5 M 283 564.5 L 283 290.5 L 333 240.5 M 383 251 L 383 564.5 M 483 564.5 L 483 288.5 L 433 238.5 M 483 251 L 583 351 L 583 564.5 M 683 564.5 L 683 403 L 533 253"/></g><rect x="-1" y="-7" width="2" height="14" id="tool-D11-pad-1011"/><rect x="-1" y="-8" width="2" height="16" id="tool-D12-pad-1012"/><rect x="-1" y="-2" width="2" height="4" id="tool-D13-pad-1013"/><rect x="-1" y="-11" width="2" height="22" id="tool-D14-pad-1014"/><rect x="-1" y="-3" width="2" height="6" id="tool-D15-pad-1015"/><rect x="-1" y="-13" width="2" height="26" id="tool-D16-pad-1016"/><rect x="-8" y="-1" width="16" height="2" id="tool-D17-pad-1017"/><rect x="-1" y="-4" width="2" height="8" id="tool-D18-pad-1018"/><rect x="-1" y="-14" width="2" height="28" id="tool-D19-pad-1019"/><rect x="-2" y="-1" width="4" height="2" id="tool-D20-pad-1020"/><rect x="-1" y="-5" width="2" height="10" id="tool-D21-pad-1021"/><rect x="-1" y="-6" width="2" height="12" id="tool-D22-pad-1022"/><rect x="-6" y="-1" width="12" height="2" id="tool-D23-pad-1023"/><rect x="-1" y="-12" width="2" height="24" id="tool-D24-pad-1024"/><rect x="-10" y="-1" width="20" height="2" id="tool-D25-pad-1025"/><rect x="-11" y="-1" width="22" height="2" id="tool-D26-pad-1026"/><rect x="-4" y="-1" width="8" height="2" id="tool-D27-pad-1027"/><rect x="-22" y="-1" width="44" height="2" id="tool-D28-pad-1028"/><rect x="-16" y="-1" width="32" height="2" id="tool-D29-pad-1029"/><rect x="-18" y="-1" width="36" height="2" id="tool-D30-pad-1030"/><rect x="-26" y="-1" width="52" height="2" id="tool-D31-pad-1031"/><rect x="-20" y="-1" width="40" height="2" id="tool-D32-pad-1032"/><rect x="-24" y="-1" width="48" height="2" id="tool-D33-pad-1033"/><rect x="-9" y="-1" width="18" height="2" id="tool-D34-pad-1034"/><rect x="-28" y="-1" width="56" height="2" id="tool-D35-pad-1035"/><rect x="-30" y="-1" width="60" height="2" id="tool-D36-pad-1036"/><rect x="-32" y="-1" width="64" height="2" id="tool-D37-pad-1037"/><rect x="-34" y="-1" width="68" height="2" id="tool-D38-pad-1038"/><rect x="-36" y="-1" width="72" height="2" id="tool-D39-pad-1039"/><rect x="-38" y="-1" width="76" height="2" id="tool-D40-pad-1040"/><rect x="-14" y="-1" width="28" height="2" id="tool-D41-pad-1041"/><rect x="-15" y="-1" width="30" height="2" id="tool-D42-pad-1042"/><rect x="-12" y="-1" width="24" height="2" id="tool-D43-pad-1043"/><rect x="-13" y="-1" width="26" height="2" id="tool-D44-pad-1044"/><rect x="-40" y="-1" width="80" height="2" id="tool-D45-pad-1045"/><rect x="-42" y="-1" width="84" height="2" id="tool-D46-pad-1046"/><rect x="-43" y="-1" width="86" height="2" id="tool-D47-pad-1047"/><rect x="-39" y="-1" width="78" height="2" id="tool-D48-pad-1048"/><rect x="-21" y="-1" width="42" height="2" id="tool-D49-pad-1049"/><rect x="-19" y="-1" width="38" height="2" id="tool-D50-pad-1050"/><rect x="-41" y="-1" width="82" height="2" id="tool-D51-pad-1051"/><rect x="-31" y="-1" width="62" height="2" id="tool-D52-pad-1052"/><rect x="-17" y="-1" width="34" height="2" id="tool-D53-pad-1053"/><g fill="currentColor" stroke="currentColor" id="top-tss_1"><path stroke-width="0" fill="none" d="M 33 15 L 33 614.5 L 732.2 614.5 L 732.2 15 L 33 15"/><use x="99" y="469" xlink:href="#tool-D11-pad-1011"/><use x="99" y="505" xlink:href="#tool-D11-pad-1011"/><use x="697" y="123" xlink:href="#tool-D11-pad-1011"/><use x="685" y="129.9" xlink:href="#tool-D12-pad-1012"/><use x="685" y="129.9" xlink:href="#tool-D12-pad-1012"/><use x="683" y="130" xlink:href="#tool-D12-pad-1012"/><use x="681.1" y="130" xlink:href="#tool-D12-pad-1012"/><use x="73" y="418" xlink:href="#tool-D12-pad-1012"/><use x="71" y="418" xlink:href="#tool-D12-pad-1012"/><use x="69" y="418" xlink:href="#tool-D12-pad-1012"/><use x="69" y="440" xlink:href="#tool-D12-pad-1012"/><use x="71" y="440" xlink:href="#tool-D12-pad-1012"/><use x="73" y="440" xlink:href="#tool-D12-pad-1012"/><use x="91" y="480" xlink:href="#tool-D13-pad-1013"/><use x="91" y="516" xlink:href="#tool-D13-pad-1013"/><use x="683" y="160" xlink:href="#tool-D13-pad-1013"/><use x="697" y="170" xlink:href="#tool-D13-pad-1013"/><use x="697" y="189" xlink:href="#tool-D14-pad-1014"/><use x="667" y="189" xlink:href="#tool-D14-pad-1014"/><use x="695" y="123" xlink:href="#tool-D14-pad-1014"/><use x="97" y="469" xlink:href="#tool-D14-pad-1014"/><use x="97" y="505" xlink:href="#tool-D14-pad-1014"/><use x="89" y="491" xlink:href="#tool-D15-pad-1015"/><use x="87" y="491" xlink:href="#tool-D15-pad-1015"/><use x="85" y="491" xlink:href="#tool-D15-pad-1015"/><use x="83" y="491" xlink:href="#tool-D15-pad-1015"/><use x="81" y="491" xlink:href="#tool-D15-pad-1015"/><use x="79" y="491" xlink:href="#tool-D15-pad-1015"/><use x="77" y="493" xlink:href="#tool-D15-pad-1015"/><use x="77" y="479" xlink:href="#tool-D15-pad-1015"/><use x="79" y="479" xlink:href="#tool-D15-pad-1015"/><use x="69.9" y="476.7" xlink:href="#tool-D15-pad-1015"/><use x="77" y="457" xlink:href="#tool-D15-pad-1015"/><use x="79" y="455" xlink:href="#tool-D15-pad-1015"/><use x="81" y="455" xlink:href="#tool-D15-pad-1015"/><use x="83" y="455" xlink:href="#tool-D15-pad-1015"/><use x="85" y="455" xlink:href="#tool-D15-pad-1015"/><use x="87" y="455" xlink:href="#tool-D15-pad-1015"/><use x="89" y="455" xlink:href="#tool-D15-pad-1015"/><use x="83" y="437" xlink:href="#tool-D15-pad-1015"/><use x="81" y="437" xlink:href="#tool-D15-pad-1015"/><use x="77" y="439" xlink:href="#tool-D15-pad-1015"/><use x="75" y="439" xlink:href="#tool-D15-pad-1015"/><use x="85" y="435" xlink:href="#tool-D15-pad-1015"/><use x="87" y="435" xlink:href="#tool-D15-pad-1015"/><use x="89" y="433" xlink:href="#tool-D15-pad-1015"/><use x="91" y="433" xlink:href="#tool-D15-pad-1015"/><use x="97" y="429" xlink:href="#tool-D15-pad-1015"/><use x="99" y="429" xlink:href="#tool-D15-pad-1015"/><use x="91" y="425" xlink:href="#tool-D15-pad-1015"/><use x="89" y="425" xlink:href="#tool-D15-pad-1015"/><use x="87" y="423" xlink:href="#tool-D15-pad-1015"/><use x="85" y="423" xlink:href="#tool-D15-pad-1015"/><use x="83" y="421" xlink:href="#tool-D15-pad-1015"/><use x="81" y="421" xlink:href="#tool-D15-pad-1015"/><use x="77" y="419" xlink:href="#tool-D15-pad-1015"/><use x="75" y="419" xlink:href="#tool-D15-pad-1015"/><use x="69.9" y="512.7" xlink:href="#tool-D15-pad-1015"/><use x="77" y="515" xlink:href="#tool-D15-pad-1015"/><use x="79" y="515" xlink:href="#tool-D15-pad-1015"/><use x="673" y="185" xlink:href="#tool-D15-pad-1015"/><use x="675" y="185" xlink:href="#tool-D15-pad-1015"/><use x="677" y="185" xlink:href="#tool-D15-pad-1015"/><use x="679" y="185" xlink:href="#tool-D15-pad-1015"/><use x="681" y="185" xlink:href="#tool-D15-pad-1015"/><use x="683" y="185" xlink:href="#tool-D15-pad-1015"/><use x="685" y="185" xlink:href="#tool-D15-pad-1015"/><use x="687" y="185" xlink:href="#tool-D15-pad-1015"/><use x="689" y="185" xlink:href="#tool-D15-pad-1015"/><use x="691" y="185" xlink:href="#tool-D15-pad-1015"/><use x="695" y="169" xlink:href="#tool-D15-pad-1015"/><use x="685" y="169" xlink:href="#tool-D15-pad-1015"/><use x="683" y="169" xlink:href="#tool-D15-pad-1015"/><use x="681" y="169" xlink:href="#tool-D15-pad-1015"/><use x="679" y="169" xlink:href="#tool-D15-pad-1015"/><use x="677" y="169" xlink:href="#tool-D15-pad-1015"/><use x="675" y="169" xlink:href="#tool-D15-pad-1015"/><use x="673" y="169" xlink:href="#tool-D15-pad-1015"/><use x="679" y="157" xlink:href="#tool-D15-pad-1015"/><use x="681" y="159" xlink:href="#tool-D15-pad-1015"/><use x="685" y="161" xlink:href="#tool-D15-pad-1015"/><use x="685" y="149" xlink:href="#tool-D15-pad-1015"/><use x="683" y="149" xlink:href="#tool-D15-pad-1015"/><use x="681" y="149" xlink:href="#tool-D15-pad-1015"/><use x="679" y="149" xlink:href="#tool-D15-pad-1015"/><use x="687" y="149" xlink:href="#tool-D15-pad-1015"/><use x="689" y="149" xlink:href="#tool-D15-pad-1015"/><use x="691" y="149" xlink:href="#tool-D15-pad-1015"/><use x="689" y="133" xlink:href="#tool-D15-pad-1015"/><use x="687" y="133" xlink:href="#tool-D15-pad-1015"/><use x="675" y="133" xlink:href="#tool-D15-pad-1015"/><use x="667" y="133" xlink:href="#tool-D15-pad-1015"/><use x="675" y="111" xlink:href="#tool-D15-pad-1015"/><use x="677" y="109" xlink:href="#tool-D15-pad-1015"/><use x="679" y="109" xlink:href="#tool-D15-pad-1015"/><use x="681" y="109" xlink:href="#tool-D15-pad-1015"/><use x="683" y="109" xlink:href="#tool-D15-pad-1015"/><use x="685" y="109" xlink:href="#tool-D15-pad-1015"/><use x="687" y="109" xlink:href="#tool-D15-pad-1015"/><use x="675" y="205" xlink:href="#tool-D15-pad-1015"/><use x="679" y="207" xlink:href="#tool-D15-pad-1015"/><use x="681" y="207" xlink:href="#tool-D15-pad-1015"/><use x="683" y="207" xlink:href="#tool-D15-pad-1015"/><use x="685" y="207" xlink:href="#tool-D15-pad-1015"/><use x="687" y="207" xlink:href="#tool-D15-pad-1015"/><use x="695" y="191" xlink:href="#tool-D16-pad-1016"/><use x="669" y="191" xlink:href="#tool-D16-pad-1016"/><use x="671" y="123" xlink:href="#tool-D16-pad-1016"/><use x="693" y="123" xlink:href="#tool-D16-pad-1016"/><use x="95" y="469" xlink:href="#tool-D16-pad-1016"/><use x="73" y="469" xlink:href="#tool-D16-pad-1016"/><use x="73" y="505" xlink:href="#tool-D16-pad-1016"/><use x="95" y="505" xlink:href="#tool-D16-pad-1016"/><use x="152" y="347" xlink:href="#tool-D17-pad-1017"/><use x="152" y="345" xlink:href="#tool-D17-pad-1017"/><use x="184" y="259" xlink:href="#tool-D17-pad-1017"/><use x="62" y="113" xlink:href="#tool-D17-pad-1017"/><use x="62" y="111" xlink:href="#tool-D17-pad-1017"/><use x="79" y="420" xlink:href="#tool-D18-pad-1018"/><use x="79" y="438" xlink:href="#tool-D18-pad-1018"/><use x="91" y="456" xlink:href="#tool-D18-pad-1018"/><use x="93" y="478" xlink:href="#tool-D18-pad-1018"/><use x="91" y="492" xlink:href="#tool-D18-pad-1018"/><use x="75" y="478" xlink:href="#tool-D18-pad-1018"/><use x="75" y="514" xlink:href="#tool-D18-pad-1018"/><use x="93" y="514" xlink:href="#tool-D18-pad-1018"/><use x="673" y="204" xlink:href="#tool-D18-pad-1018"/><use x="677" y="206" xlink:href="#tool-D18-pad-1018"/><use x="689" y="206" xlink:href="#tool-D18-pad-1018"/><use x="691" y="204" xlink:href="#tool-D18-pad-1018"/><use x="691" y="168" xlink:href="#tool-D18-pad-1018"/><use x="693" y="168" xlink:href="#tool-D18-pad-1018"/><use x="667" y="146" xlink:href="#tool-D18-pad-1018"/><use x="673" y="132" xlink:href="#tool-D18-pad-1018"/><use x="691" y="132" xlink:href="#tool-D18-pad-1018"/><use x="691" y="112" xlink:href="#tool-D18-pad-1018"/><use x="689" y="110" xlink:href="#tool-D18-pad-1018"/><use x="673" y="112" xlink:href="#tool-D18-pad-1018"/><use x="671" y="192" xlink:href="#tool-D19-pad-1019"/><use x="693" y="192" xlink:href="#tool-D19-pad-1019"/><use x="62" y="135" xlink:href="#tool-D20-pad-1020"/><use x="62" y="129" xlink:href="#tool-D20-pad-1020"/><use x="62" y="127" xlink:href="#tool-D20-pad-1020"/><use x="62" y="125" xlink:href="#tool-D20-pad-1020"/><use x="62" y="123" xlink:href="#tool-D20-pad-1020"/><use x="62" y="121" xlink:href="#tool-D20-pad-1020"/><use x="62" y="119" xlink:href="#tool-D20-pad-1020"/><use x="62" y="117" xlink:href="#tool-D20-pad-1020"/><use x="62" y="115" xlink:href="#tool-D20-pad-1020"/><use x="93" y="429" xlink:href="#tool-D21-pad-1021"/><use x="95" y="429" xlink:href="#tool-D21-pad-1021"/><use x="93" y="459" xlink:href="#tool-D21-pad-1021"/><use x="75" y="459" xlink:href="#tool-D21-pad-1021"/><use x="75" y="495" xlink:href="#tool-D21-pad-1021"/><use x="93" y="495" xlink:href="#tool-D21-pad-1021"/><use x="669" y="147" xlink:href="#tool-D21-pad-1021"/><use x="673" y="151" xlink:href="#tool-D21-pad-1021"/><use x="675" y="151" xlink:href="#tool-D21-pad-1021"/><use x="689" y="167" xlink:href="#tool-D21-pad-1021"/><use x="687" y="166" xlink:href="#tool-D22-pad-1022"/><use x="671" y="168.9" xlink:href="#tool-D22-pad-1022"/><use x="669" y="168.9" xlink:href="#tool-D22-pad-1022"/><use x="667" y="168.9" xlink:href="#tool-D22-pad-1022"/><use x="677" y="152" xlink:href="#tool-D22-pad-1022"/><use x="671" y="148" xlink:href="#tool-D22-pad-1022"/><use x="693" y="149.2" xlink:href="#tool-D22-pad-1022"/><use x="695" y="149.2" xlink:href="#tool-D22-pad-1022"/><use x="697" y="149.2" xlink:href="#tool-D22-pad-1022"/><use x="667" y="122" xlink:href="#tool-D22-pad-1022"/><use x="69" y="468" xlink:href="#tool-D22-pad-1022"/><use x="69" y="504" xlink:href="#tool-D22-pad-1022"/><use x="58" y="133" xlink:href="#tool-D23-pad-1023"/><use x="58" y="131" xlink:href="#tool-D23-pad-1023"/><use x="71" y="470" xlink:href="#tool-D24-pad-1024"/><use x="71" y="506" xlink:href="#tool-D24-pad-1024"/><use x="669" y="124" xlink:href="#tool-D24-pad-1024"/><use x="596" y="285" xlink:href="#tool-D25-pad-1025"/><use x="596" y="287" xlink:href="#tool-D25-pad-1025"/><use x="596" y="289" xlink:href="#tool-D25-pad-1025"/><use x="596" y="291" xlink:href="#tool-D25-pad-1025"/><use x="596" y="293" xlink:href="#tool-D25-pad-1025"/><use x="594" y="335" xlink:href="#tool-D25-pad-1025"/><use x="596" y="337" xlink:href="#tool-D25-pad-1025"/><use x="596" y="339" xlink:href="#tool-D25-pad-1025"/><use x="596" y="341" xlink:href="#tool-D25-pad-1025"/><use x="596" y="343" xlink:href="#tool-D25-pad-1025"/><use x="596" y="345" xlink:href="#tool-D25-pad-1025"/><use x="596" y="347" xlink:href="#tool-D25-pad-1025"/><use x="564" y="377" xlink:href="#tool-D25-pad-1025"/><use x="532" y="347" xlink:href="#tool-D25-pad-1025"/><use x="532" y="345" xlink:href="#tool-D25-pad-1025"/><use x="532" y="343" xlink:href="#tool-D25-pad-1025"/><use x="532" y="341" xlink:href="#tool-D25-pad-1025"/><use x="532" y="339" xlink:href="#tool-D25-pad-1025"/><use x="532" y="337" xlink:href="#tool-D25-pad-1025"/><use x="534" y="335" xlink:href="#tool-D25-pad-1025"/><use x="532" y="293" xlink:href="#tool-D25-pad-1025"/><use x="532" y="291" xlink:href="#tool-D25-pad-1025"/><use x="532" y="289" xlink:href="#tool-D25-pad-1025"/><use x="532" y="287" xlink:href="#tool-D25-pad-1025"/><use x="532" y="285" xlink:href="#tool-D25-pad-1025"/><use x="470" y="297" xlink:href="#tool-D25-pad-1025"/><use x="470" y="299" xlink:href="#tool-D25-pad-1025"/><use x="470" y="301" xlink:href="#tool-D25-pad-1025"/><use x="470" y="303" xlink:href="#tool-D25-pad-1025"/><use x="470" y="305" xlink:href="#tool-D25-pad-1025"/><use x="470" y="307" xlink:href="#tool-D25-pad-1025"/><use x="470" y="309" xlink:href="#tool-D25-pad-1025"/><use x="470" y="311" xlink:href="#tool-D25-pad-1025"/><use x="470" y="313" xlink:href="#tool-D25-pad-1025"/><use x="470" y="315" xlink:href="#tool-D25-pad-1025"/><use x="470" y="317" xlink:href="#tool-D25-pad-1025"/><use x="470" y="319" xlink:href="#tool-D25-pad-1025"/><use x="470" y="321" xlink:href="#tool-D25-pad-1025"/><use x="470" y="323" xlink:href="#tool-D25-pad-1025"/><use x="470" y="325" xlink:href="#tool-D25-pad-1025"/><use x="470" y="327" xlink:href="#tool-D25-pad-1025"/><use x="470" y="329" xlink:href="#tool-D25-pad-1025"/><use x="470" y="331" xlink:href="#tool-D25-pad-1025"/><use x="470" y="333" xlink:href="#tool-D25-pad-1025"/><use x="470" y="335" xlink:href="#tool-D25-pad-1025"/><use x="468" y="339" xlink:href="#tool-D25-pad-1025"/><use x="468" y="341" xlink:href="#tool-D25-pad-1025"/><use x="466" y="345" xlink:href="#tool-D25-pad-1025"/><use x="438" y="377" xlink:href="#tool-D25-pad-1025"/><use x="408" y="341" xlink:href="#tool-D25-pad-1025"/><use x="408" y="339" xlink:href="#tool-D25-pad-1025"/><use x="406" y="335" xlink:href="#tool-D25-pad-1025"/><use x="406" y="333" xlink:href="#tool-D25-pad-1025"/><use x="406" y="331" xlink:href="#tool-D25-pad-1025"/><use x="406" y="329" xlink:href="#tool-D25-pad-1025"/><use x="406" y="327" xlink:href="#tool-D25-pad-1025"/><use x="406" y="325" xlink:href="#tool-D25-pad-1025"/><use x="406" y="323" xlink:href="#tool-D25-pad-1025"/><use x="406" y="321" xlink:href="#tool-D25-pad-1025"/><use x="406" y="319" xlink:href="#tool-D25-pad-1025"/><use x="406" y="317" xlink:href="#tool-D25-pad-1025"/><use x="406" y="315" xlink:href="#tool-D25-pad-1025"/><use x="406" y="313" xlink:href="#tool-D25-pad-1025"/><use x="406" y="311" xlink:href="#tool-D25-pad-1025"/><use x="406" y="309" xlink:href="#tool-D25-pad-1025"/><use x="406" y="307" xlink:href="#tool-D25-pad-1025"/><use x="406" y="305" xlink:href="#tool-D25-pad-1025"/><use x="406" y="303" xlink:href="#tool-D25-pad-1025"/><use x="406" y="301" xlink:href="#tool-D25-pad-1025"/><use x="406" y="299" xlink:href="#tool-D25-pad-1025"/><use x="406" y="297" xlink:href="#tool-D25-pad-1025"/><use x="408" y="293" xlink:href="#tool-D25-pad-1025"/><use x="408" y="291" xlink:href="#tool-D25-pad-1025"/><use x="410" y="287" xlink:href="#tool-D25-pad-1025"/><use x="438" y="255" xlink:href="#tool-D25-pad-1025"/><use x="468" y="291" xlink:href="#tool-D25-pad-1025"/><use x="468" y="293" xlink:href="#tool-D25-pad-1025"/><use x="330" y="283" xlink:href="#tool-D25-pad-1025"/><use x="330" y="281" xlink:href="#tool-D25-pad-1025"/><use x="330" y="279" xlink:href="#tool-D25-pad-1025"/><use x="330" y="277" xlink:href="#tool-D25-pad-1025"/><use x="330" y="305" xlink:href="#tool-D25-pad-1025"/><use x="330" y="307" xlink:href="#tool-D25-pad-1025"/><use x="330" y="309" xlink:href="#tool-D25-pad-1025"/><use x="330" y="311" xlink:href="#tool-D25-pad-1025"/><use x="330" y="313" xlink:href="#tool-D25-pad-1025"/><use x="330" y="315" xlink:href="#tool-D25-pad-1025"/><use x="330" y="317" xlink:href="#tool-D25-pad-1025"/><use x="330" y="319" xlink:href="#tool-D25-pad-1025"/><use x="330" y="321" xlink:href="#tool-D25-pad-1025"/><use x="330" y="323" xlink:href="#tool-D25-pad-1025"/><use x="330" y="325" xlink:href="#tool-D25-pad-1025"/><use x="330" y="327" xlink:href="#tool-D25-pad-1025"/><use x="330" y="329" xlink:href="#tool-D25-pad-1025"/><use x="330" y="331" xlink:href="#tool-D25-pad-1025"/><use x="330" y="333" xlink:href="#tool-D25-pad-1025"/><use x="330" y="335" xlink:href="#tool-D25-pad-1025"/><use x="330" y="337" xlink:href="#tool-D25-pad-1025"/><use x="330" y="339" xlink:href="#tool-D25-pad-1025"/><use x="330" y="341" xlink:href="#tool-D25-pad-1025"/><use x="330" y="343" xlink:href="#tool-D25-pad-1025"/><use x="330" y="345" xlink:href="#tool-D25-pad-1025"/><use x="212" y="351" xlink:href="#tool-D25-pad-1025"/><use x="210" y="345" xlink:href="#tool-D25-pad-1025"/><use x="208" y="339" xlink:href="#tool-D25-pad-1025"/><use x="206" y="333" xlink:href="#tool-D25-pad-1025"/><use x="204" y="327" xlink:href="#tool-D25-pad-1025"/><use x="202" y="321" xlink:href="#tool-D25-pad-1025"/><use x="200" y="315" xlink:href="#tool-D25-pad-1025"/><use x="198" y="309" xlink:href="#tool-D25-pad-1025"/><use x="198" y="307" xlink:href="#tool-D25-pad-1025"/><use x="196" y="301" xlink:href="#tool-D25-pad-1025"/><use x="194" y="295" xlink:href="#tool-D25-pad-1025"/><use x="192" y="289" xlink:href="#tool-D25-pad-1025"/><use x="190" y="283" xlink:href="#tool-D25-pad-1025"/><use x="188" y="277" xlink:href="#tool-D25-pad-1025"/><use x="186" y="271" xlink:href="#tool-D25-pad-1025"/><use x="184" y="265" xlink:href="#tool-D25-pad-1025"/><use x="184" y="263" xlink:href="#tool-D25-pad-1025"/><use x="152" y="349" xlink:href="#tool-D25-pad-1025"/><use x="152" y="351" xlink:href="#tool-D25-pad-1025"/><use x="152" y="353" xlink:href="#tool-D25-pad-1025"/><use x="152" y="355" xlink:href="#tool-D25-pad-1025"/><use x="201" y="319" xlink:href="#tool-D26-pad-1026"/><use x="201" y="317" xlink:href="#tool-D26-pad-1026"/><use x="199" y="313" xlink:href="#tool-D26-pad-1026"/><use x="199" y="311" xlink:href="#tool-D26-pad-1026"/><use x="197" y="305" xlink:href="#tool-D26-pad-1026"/><use x="197" y="303" xlink:href="#tool-D26-pad-1026"/><use x="195" y="299" xlink:href="#tool-D26-pad-1026"/><use x="195" y="297" xlink:href="#tool-D26-pad-1026"/><use x="193" y="293" xlink:href="#tool-D26-pad-1026"/><use x="193" y="291" xlink:href="#tool-D26-pad-1026"/><use x="191" y="287" xlink:href="#tool-D26-pad-1026"/><use x="191" y="285" xlink:href="#tool-D26-pad-1026"/><use x="189" y="281" xlink:href="#tool-D26-pad-1026"/><use x="189" y="279" xlink:href="#tool-D26-pad-1026"/><use x="187" y="275" xlink:href="#tool-D26-pad-1026"/><use x="187" y="273" xlink:href="#tool-D26-pad-1026"/><use x="185" y="269" xlink:href="#tool-D26-pad-1026"/><use x="185" y="267" xlink:href="#tool-D26-pad-1026"/><use x="203" y="323" xlink:href="#tool-D26-pad-1026"/><use x="203" y="325" xlink:href="#tool-D26-pad-1026"/><use x="205" y="329" xlink:href="#tool-D26-pad-1026"/><use x="205" y="331" xlink:href="#tool-D26-pad-1026"/><use x="207" y="335" xlink:href="#tool-D26-pad-1026"/><use x="207" y="337" xlink:href="#tool-D26-pad-1026"/><use x="209" y="341" xlink:href="#tool-D26-pad-1026"/><use x="209" y="343" xlink:href="#tool-D26-pad-1026"/><use x="211" y="347" xlink:href="#tool-D26-pad-1026"/><use x="211" y="349" xlink:href="#tool-D26-pad-1026"/><use x="213" y="353" xlink:href="#tool-D26-pad-1026"/><use x="213" y="355" xlink:href="#tool-D26-pad-1026"/><use x="285" y="309" xlink:href="#tool-D26-pad-1026"/><use x="291" y="319" xlink:href="#tool-D26-pad-1026"/><use x="297" y="329" xlink:href="#tool-D26-pad-1026"/><use x="303" y="339" xlink:href="#tool-D26-pad-1026"/><use x="407" y="337" xlink:href="#tool-D26-pad-1026"/><use x="409" y="343" xlink:href="#tool-D26-pad-1026"/><use x="409" y="345" xlink:href="#tool-D26-pad-1026"/><use x="411" y="347" xlink:href="#tool-D26-pad-1026"/><use x="411" y="349" xlink:href="#tool-D26-pad-1026"/><use x="413" y="351" xlink:href="#tool-D26-pad-1026"/><use x="463" y="351" xlink:href="#tool-D26-pad-1026"/><use x="465" y="349" xlink:href="#tool-D26-pad-1026"/><use x="465" y="347" xlink:href="#tool-D26-pad-1026"/><use x="467" y="343" xlink:href="#tool-D26-pad-1026"/><use x="469" y="337" xlink:href="#tool-D26-pad-1026"/><use x="469" y="295" xlink:href="#tool-D26-pad-1026"/><use x="467" y="289" xlink:href="#tool-D26-pad-1026"/><use x="467" y="287" xlink:href="#tool-D26-pad-1026"/><use x="465" y="285" xlink:href="#tool-D26-pad-1026"/><use x="465" y="283" xlink:href="#tool-D26-pad-1026"/><use x="463" y="281" xlink:href="#tool-D26-pad-1026"/><use x="413" y="281" xlink:href="#tool-D26-pad-1026"/><use x="411" y="283" xlink:href="#tool-D26-pad-1026"/><use x="411" y="285" xlink:href="#tool-D26-pad-1026"/><use x="409" y="289" xlink:href="#tool-D26-pad-1026"/><use x="407" y="295" xlink:href="#tool-D26-pad-1026"/><use x="533" y="295" xlink:href="#tool-D26-pad-1026"/><use x="535" y="297" xlink:href="#tool-D26-pad-1026"/><use x="535" y="299" xlink:href="#tool-D26-pad-1026"/><use x="533" y="283" xlink:href="#tool-D26-pad-1026"/><use x="533" y="281" xlink:href="#tool-D26-pad-1026"/><use x="535" y="279" xlink:href="#tool-D26-pad-1026"/><use x="563" y="255" xlink:href="#tool-D26-pad-1026"/><use x="593" y="279" xlink:href="#tool-D26-pad-1026"/><use x="595" y="281" xlink:href="#tool-D26-pad-1026"/><use x="595" y="283" xlink:href="#tool-D26-pad-1026"/><use x="595" y="295" xlink:href="#tool-D26-pad-1026"/><use x="593" y="297" xlink:href="#tool-D26-pad-1026"/><use x="593" y="299" xlink:href="#tool-D26-pad-1026"/><use x="593" y="333" xlink:href="#tool-D26-pad-1026"/><use x="595" y="349" xlink:href="#tool-D26-pad-1026"/><use x="593" y="351" xlink:href="#tool-D26-pad-1026"/><use x="535" y="351" xlink:href="#tool-D26-pad-1026"/><use x="533" y="349" xlink:href="#tool-D26-pad-1026"/><use x="535" y="333" xlink:href="#tool-D26-pad-1026"/><use x="184" y="257" xlink:href="#tool-D27-pad-1027"/><use x="152" y="343" xlink:href="#tool-D27-pad-1027"/><use x="318" y="347" xlink:href="#tool-D28-pad-1028"/><use x="326" y="275" xlink:href="#tool-D28-pad-1028"/><use x="326" y="257" xlink:href="#tool-D28-pad-1028"/><use x="438" y="261" xlink:href="#tool-D28-pad-1028"/><use x="438" y="371" xlink:href="#tool-D28-pad-1028"/><use x="564" y="373" xlink:href="#tool-D28-pad-1028"/><use x="438" y="375" xlink:href="#tool-D29-pad-1029"/><use x="324" y="367" xlink:href="#tool-D29-pad-1029"/><use x="324" y="365" xlink:href="#tool-D29-pad-1029"/><use x="438" y="257" xlink:href="#tool-D29-pad-1029"/><use x="322" y="359" xlink:href="#tool-D30-pad-1030"/><use x="322" y="361" xlink:href="#tool-D30-pad-1030"/><use x="564" y="375" xlink:href="#tool-D30-pad-1030"/><use x="564" y="257" xlink:href="#tool-D30-pad-1030"/><use x="564" y="371" xlink:href="#tool-D31-pad-1031"/><use x="438" y="367" xlink:href="#tool-D31-pad-1031"/><use x="438" y="265" xlink:href="#tool-D31-pad-1031"/><use x="326" y="261" xlink:href="#tool-D31-pad-1031"/><use x="326" y="259" xlink:href="#tool-D31-pad-1031"/><use x="326" y="271" xlink:href="#tool-D31-pad-1031"/><use x="326" y="273" xlink:href="#tool-D31-pad-1031"/><use x="320" y="353" xlink:href="#tool-D32-pad-1032"/><use x="438" y="373" xlink:href="#tool-D32-pad-1032"/><use x="438" y="259" xlink:href="#tool-D32-pad-1032"/><use x="438" y="263" xlink:href="#tool-D33-pad-1033"/><use x="438" y="369" xlink:href="#tool-D33-pad-1033"/><use x="564" y="259" xlink:href="#tool-D33-pad-1033"/><use x="185" y="261" xlink:href="#tool-D34-pad-1034"/><use x="326" y="263" xlink:href="#tool-D35-pad-1035"/><use x="326" y="265" xlink:href="#tool-D35-pad-1035"/><use x="326" y="267" xlink:href="#tool-D35-pad-1035"/><use x="326" y="269" xlink:href="#tool-D35-pad-1035"/><use x="438" y="267" xlink:href="#tool-D35-pad-1035"/><use x="438" y="365" xlink:href="#tool-D35-pad-1035"/><use x="564" y="369" xlink:href="#tool-D35-pad-1035"/><use x="564" y="317" xlink:href="#tool-D35-pad-1035"/><use x="564" y="315" xlink:href="#tool-D35-pad-1035"/><use x="564" y="261" xlink:href="#tool-D35-pad-1035"/><use x="564" y="263" xlink:href="#tool-D36-pad-1036"/><use x="564" y="319" xlink:href="#tool-D36-pad-1036"/><use x="564" y="367" xlink:href="#tool-D36-pad-1036"/><use x="438" y="363" xlink:href="#tool-D36-pad-1036"/><use x="438" y="269" xlink:href="#tool-D36-pad-1036"/><use x="438" y="271" xlink:href="#tool-D37-pad-1037"/><use x="438" y="273" xlink:href="#tool-D37-pad-1037"/><use x="438" y="359" xlink:href="#tool-D37-pad-1037"/><use x="564" y="365" xlink:href="#tool-D37-pad-1037"/><use x="564" y="321" xlink:href="#tool-D37-pad-1037"/><use x="564" y="313" xlink:href="#tool-D37-pad-1037"/><use x="564" y="265" xlink:href="#tool-D37-pad-1037"/><use x="564" y="267" xlink:href="#tool-D38-pad-1038"/><use x="564" y="309" xlink:href="#tool-D38-pad-1038"/><use x="564" y="311" xlink:href="#tool-D38-pad-1038"/><use x="564" y="323" xlink:href="#tool-D38-pad-1038"/><use x="564" y="363" xlink:href="#tool-D38-pad-1038"/><use x="564" y="361" xlink:href="#tool-D39-pad-1039"/><use x="564" y="325" xlink:href="#tool-D39-pad-1039"/><use x="564" y="307" xlink:href="#tool-D39-pad-1039"/><use x="564" y="269" xlink:href="#tool-D39-pad-1039"/><use x="564" y="271" xlink:href="#tool-D40-pad-1040"/><use x="564" y="273" xlink:href="#tool-D40-pad-1040"/><use x="564" y="359" xlink:href="#tool-D40-pad-1040"/><use x="458" y="357" xlink:href="#tool-D41-pad-1041"/><use x="418" y="357" xlink:href="#tool-D41-pad-1041"/><use x="418" y="275" xlink:href="#tool-D41-pad-1041"/><use x="458" y="275" xlink:href="#tool-D41-pad-1041"/><use x="326" y="373" xlink:href="#tool-D41-pad-1041"/><use x="325" y="371" xlink:href="#tool-D42-pad-1042"/><use x="325" y="369" xlink:href="#tool-D42-pad-1042"/><use x="541" y="357" xlink:href="#tool-D42-pad-1042"/><use x="541" y="327" xlink:href="#tool-D42-pad-1042"/><use x="541" y="305" xlink:href="#tool-D42-pad-1042"/><use x="539" y="275" xlink:href="#tool-D42-pad-1042"/><use x="589" y="275" xlink:href="#tool-D42-pad-1042"/><use x="587" y="305" xlink:href="#tool-D42-pad-1042"/><use x="587" y="327" xlink:href="#tool-D42-pad-1042"/><use x="587" y="357" xlink:href="#tool-D42-pad-1042"/><use x="592" y="353" xlink:href="#tool-D43-pad-1043"/><use x="592" y="331" xlink:href="#tool-D43-pad-1043"/><use x="590" y="329" xlink:href="#tool-D43-pad-1043"/><use x="538" y="329" xlink:href="#tool-D43-pad-1043"/><use x="536" y="331" xlink:href="#tool-D43-pad-1043"/><use x="536" y="353" xlink:href="#tool-D43-pad-1043"/><use x="462" y="353" xlink:href="#tool-D43-pad-1043"/><use x="460" y="355" xlink:href="#tool-D43-pad-1043"/><use x="416" y="355" xlink:href="#tool-D43-pad-1043"/><use x="414" y="353" xlink:href="#tool-D43-pad-1043"/><use x="414" y="279" xlink:href="#tool-D43-pad-1043"/><use x="416" y="277" xlink:href="#tool-D43-pad-1043"/><use x="460" y="277" xlink:href="#tool-D43-pad-1043"/><use x="462" y="279" xlink:href="#tool-D43-pad-1043"/><use x="306" y="343" xlink:href="#tool-D43-pad-1043"/><use x="306" y="345" xlink:href="#tool-D43-pad-1043"/><use x="304" y="341" xlink:href="#tool-D43-pad-1043"/><use x="302" y="337" xlink:href="#tool-D43-pad-1043"/><use x="300" y="335" xlink:href="#tool-D43-pad-1043"/><use x="300" y="333" xlink:href="#tool-D43-pad-1043"/><use x="298" y="331" xlink:href="#tool-D43-pad-1043"/><use x="296" y="327" xlink:href="#tool-D43-pad-1043"/><use x="294" y="325" xlink:href="#tool-D43-pad-1043"/><use x="294" y="323" xlink:href="#tool-D43-pad-1043"/><use x="292" y="321" xlink:href="#tool-D43-pad-1043"/><use x="290" y="317" xlink:href="#tool-D43-pad-1043"/><use x="288" y="315" xlink:href="#tool-D43-pad-1043"/><use x="288" y="313" xlink:href="#tool-D43-pad-1043"/><use x="286" y="311" xlink:href="#tool-D43-pad-1043"/><use x="284" y="307" xlink:href="#tool-D43-pad-1043"/><use x="282" y="305" xlink:href="#tool-D43-pad-1043"/><use x="327" y="375" xlink:href="#tool-D44-pad-1044"/><use x="537" y="355" xlink:href="#tool-D44-pad-1044"/><use x="539" y="303" xlink:href="#tool-D44-pad-1044"/><use x="537" y="301" xlink:href="#tool-D44-pad-1044"/><use x="537" y="277" xlink:href="#tool-D44-pad-1044"/><use x="589" y="303" xlink:href="#tool-D44-pad-1044"/><use x="591" y="301" xlink:href="#tool-D44-pad-1044"/><use x="591" y="277" xlink:href="#tool-D44-pad-1044"/><use x="591" y="355" xlink:href="#tool-D44-pad-1044"/><use x="308" y="285" xlink:href="#tool-D45-pad-1045"/><use x="310" y="287" xlink:href="#tool-D46-pad-1046"/><use x="310" y="289" xlink:href="#tool-D46-pad-1046"/><use x="310" y="299" xlink:href="#tool-D46-pad-1046"/><use x="310" y="301" xlink:href="#tool-D46-pad-1046"/><use x="311" y="297" xlink:href="#tool-D47-pad-1047"/><use x="311" y="295" xlink:href="#tool-D47-pad-1047"/><use x="311" y="293" xlink:href="#tool-D47-pad-1047"/><use x="311" y="291" xlink:href="#tool-D47-pad-1047"/><use x="309" y="303" xlink:href="#tool-D48-pad-1048"/><use x="319" y="349" xlink:href="#tool-D49-pad-1049"/><use x="319" y="351" xlink:href="#tool-D49-pad-1049"/><use x="321" y="355" xlink:href="#tool-D50-pad-1050"/><use x="321" y="357" xlink:href="#tool-D50-pad-1050"/><use x="183" y="357" xlink:href="#tool-D51-pad-1051"/><use x="183" y="359" xlink:href="#tool-D51-pad-1051"/><use x="183" y="361" xlink:href="#tool-D51-pad-1051"/><use x="183" y="363" xlink:href="#tool-D51-pad-1051"/><use x="183" y="365" xlink:href="#tool-D51-pad-1051"/><use x="183" y="367" xlink:href="#tool-D51-pad-1051"/><use x="183" y="369" xlink:href="#tool-D51-pad-1051"/><use x="183" y="371" xlink:href="#tool-D51-pad-1051"/><use x="183" y="373" xlink:href="#tool-D51-pad-1051"/><use x="183" y="375" xlink:href="#tool-D51-pad-1051"/><use x="437" y="361" xlink:href="#tool-D52-pad-1052"/><use x="323" y="363" xlink:href="#tool-D53-pad-1053"/><path stroke-width="10" fill="none" d="M 320.5 415 L 258 415 M 220.5 452.5 L 220.7 456.2 L 221.2 459.8 L 222.1 463.4 L 223.4 466.9 L 224.9 470.2 L 226.8 473.3 L 229 476.3 L 231.5 479 L 234.2 481.5 L 237.2 483.7 L 240.3 485.6 L 243.6 487.1 L 247.1 488.4 L 250.7 489.3 L 254.3 489.8 L 258 490 L 320.5 490 L 320.5 471.3 L 345.5 471.3 L 345.5 508.8 L 283 508.8 L 283 540 M 320.5 471.3 L 320.5 433.8 L 383 433.8 L 383 540 M 483 540 L 483 452.5 L 520.5 452.5 L 520.7 456.2 L 521.2 459.8 L 522.1 463.4 L 523.4 466.9 L 524.9 470.2 L 526.8 473.3 L 529 476.3 L 531.5 479 L 534.2 481.5 L 537.2 483.7 L 540.3 485.6 L 543.6 487.1 L 547.1 488.4 L 550.7 489.3 L 554.3 489.8 L 558 490 L 620.5 490 L 620.5 471.3 L 645.5 471.3 L 645.5 508.8 L 583 508.8 L 583 540 M 620.5 471.3 L 620.5 433.8 L 683 433.8 L 683 540 M 620.5 433.8 L 620.5 415 L 558 415 L 554.3 415.2 L 550.7 415.7 L 547.1 416.6 L 543.6 417.9 L 540.3 419.4 L 537.2 421.3 L 534.2 423.5 L 531.5 426 L 529 428.7 L 526.8 431.7 L 524.9 434.8 L 523.4 438.1 L 522.1 441.6 L 521.2 445.2 L 520.7 448.8 L 520.5 452.5 M 320.5 433.8 L 320.5 415 M 258 415 L 254.3 415.2 L 250.7 415.7 L 247.1 416.6 L 243.6 417.9 L 240.3 419.4 L 237.2 421.3 L 234.2 423.5 L 231.5 426 L 229 428.7 L 226.8 431.7 L 224.9 434.8 L 223.4 438.1 L 222.1 441.6 L 221.2 445.2 L 220.7 448.8 L 220.5 452.5 L 183 452.5 L 183 540 M 208 215 L 145.5 215 L 145.5 196.3 L 83 196.3 L 83 90 M 120.5 121.3 L 183 121.3 L 183 90 M 208 140 L 145.5 140 L 145.5 158.8 L 120.5 158.8 L 120.5 121.3 M 145.5 158.8 L 145.5 196.3 M 208 140 L 211.7 140.2 L 215.3 140.7 L 218.9 141.6 L 222.4 142.9 L 225.7 144.4 L 228.8 146.3 L 231.8 148.5 L 234.5 151 L 237 153.7 L 239.2 156.7 L 241.1 159.8 L 242.6 163.1 L 243.9 166.6 L 244.8 170.2 L 245.3 173.8 L 245.5 177.5 L 283 177.5 L 283 90 M 245.5 177.5 L 245.3 181.2 L 244.8 184.8 L 243.9 188.4 L 242.6 191.9 L 241.1 195.2 L 239.2 198.3 L 237 201.3 L 234.5 204 L 231.8 206.5 L 228.8 208.7 L 225.7 210.6 L 222.4 212.1 L 218.9 213.4 L 215.3 214.3 L 211.7 214.8 L 208 215 M 383 196.3 L 383 90 M 420.5 121.3 L 483 121.3 L 483 90 M 508 140 L 445.5 140 L 445.5 158.8 L 420.5 158.8 L 420.5 121.3 M 445.5 158.8 L 445.5 196.3 L 383 196.3 M 445.5 196.3 L 445.5 215 L 508 215 M 545.5 177.5 L 545.3 173.8 L 544.8 170.2 L 543.9 166.6 L 542.6 163.1 L 541.1 159.8 L 539.2 156.7 L 537 153.7 L 534.5 151 L 531.8 148.5 L 528.8 146.3 L 525.7 144.4 L 522.4 142.9 L 518.9 141.6 L 515.3 140.7 L 511.7 140.2 L 508 140 M 545.5 177.5 L 545.3 181.2 L 544.8 184.8 L 543.9 188.4 L 542.6 191.9 L 541.1 195.2 L 539.2 198.3 L 537 201.3 L 534.5 204 L 531.8 206.5 L 528.8 208.7 L 525.7 210.6 L 522.4 212.1 L 518.9 213.4 L 515.3 214.3 L 511.7 214.8 L 508 215 M 545.5 177.5 L 583 177.5 L 583 90"/><path stroke-width="1" fill="none" d="M 69.5 302.2 L 66.7 296.3 L 63 290.9 L 58.4 286.3 L 53 282.5 L 47.1 279.8 L 40.8 278.1 L 34.3 277.5 L 34.3 352.5 L 40.8 351.9 L 47.1 350.2 L 53 347.5 L 58.4 343.7 L 63 339.1 L 66.7 333.8 L 34.3 333.8 M 34.3 334.6 L 66.1 334.6 M 65.5 335.5 L 34.3 335.5 M 34.3 336.3 L 64.9 336.3 M 64.3 337.2 L 34.3 337.2 M 34.3 338 L 63.7 338 M 63.1 338.9 L 34.3 338.9 M 34.3 339.7 L 62.4 339.7 M 61.5 340.6 L 34.3 340.6 M 34.3 341.4 L 60.7 341.4 M 59.8 342.3 L 34.3 342.3 M 34.3 343.1 L 59 343.1 M 58 344 L 34.3 344 M 34.3 344.8 L 56.8 344.8 M 55.6 345.7 L 34.3 345.7 M 34.3 346.5 L 54.4 346.5 M 53.2 347.4 L 34.3 347.4 M 34.3 348.2 L 51.4 348.2 M 49.6 349.1 L 34.3 349.1 M 34.3 349.9 L 47.8 349.9 M 45.1 350.8 L 34.3 350.8 M 34.3 351.6 L 42 351.6 M 34.7 352.5 L 34.3 352.5 M 34.3 332.9 L 67.1 332.9 M 66.7 333.8 L 69.5 327.8 L 34.3 327.8 M 34.3 327 L 69.7 327 M 69.5 327.8 L 71.2 321.5 L 71.8 315 L 71.2 308.5 L 69.5 302.2 M 69.5 302.3 L 34.3 302.3 M 34.3 301.5 L 69.2 301.5 M 68.8 300.6 L 34.3 300.6 M 34.3 299.8 L 68.4 299.8 M 68 298.9 L 34.3 298.9 M 34.3 298.1 L 67.6 298.1 M 67.2 297.2 L 34.3 297.2 M 34.3 296.4 L 66.8 296.4 M 66.2 295.5 L 34.3 295.5 M 34.3 294.7 L 65.6 294.7 M 65 293.8 L 34.3 293.8 M 34.3 293 L 64.4 293 M 63.8 292.1 L 34.3 292.1 M 34.3 291.3 L 63.2 291.3 M 62.5 290.4 L 34.3 290.4 M 34.3 289.6 L 61.6 289.6 M 60.8 288.7 L 34.3 288.7 M 34.3 287.9 L 59.9 287.9 M 59.1 287 L 34.3 287 M 34.3 286.2 L 58.2 286.2 M 57 285.3 L 34.3 285.3 M 34.3 284.5 L 55.8 284.5 M 54.5 283.6 L 34.3 283.6 M 34.3 282.8 L 53.3 282.8 M 51.7 281.9 L 34.3 281.9 M 34.3 281.1 L 49.9 281.1 M 48 280.2 L 34.3 280.2 M 34.3 279.4 L 45.6 279.4 M 42.4 278.5 L 34.3 278.5 M 34.3 277.7 L 36.1 277.7 M 34.3 303.2 L 69.8 303.2 M 70 304 L 34.3 304 M 34.3 304.9 L 70.2 304.9 M 70.4 305.7 L 34.3 305.7 M 34.3 306.6 L 70.7 306.6 M 70.9 307.4 L 34.3 307.4 M 34.3 308.3 L 71.1 308.3 M 71.2 309.1 L 34.3 309.1 M 34.3 310 L 71.3 310 M 71.4 310.8 L 34.3 310.8 M 34.3 311.7 L 71.5 311.7 M 71.5 312.5 L 34.3 312.5 M 34.3 313.4 L 71.6 313.4 M 71.7 314.2 L 34.3 314.2 M 34.3 315.1 L 71.7 315.1 M 71.7 315.9 L 34.3 315.9 M 34.3 316.8 L 71.6 316.8 M 71.5 317.6 L 34.3 317.6 M 34.3 318.5 L 71.4 318.5 M 71.4 319.3 L 34.3 319.3 M 34.3 320.2 L 71.3 320.2 M 71.2 321 L 34.3 321 M 34.3 321.9 L 71.1 321.9 M 70.9 322.7 L 34.3 322.7 M 34.3 323.6 L 70.6 323.6 M 70.4 324.4 L 34.3 324.4 M 34.3 325.3 L 70.2 325.3 M 69.9 326.1 L 34.3 326.1 M 34.3 328.7 L 69.1 328.7 M 68.7 329.5 L 34.3 329.5 M 34.3 330.4 L 68.3 330.4 M 67.9 331.2 L 34.3 331.2 M 34.3 332.1 L 67.5 332.1"/></g><g fill="currentColor" stroke="currentColor" id="top-tsp_2"><path stroke-width="0" fill="none" d="M 33 15 L 33 614.5 L 732.2 614.5 L 732.2 15 L 33 15"/></g><polygon points="36.99992478621099,15.32587065323303 15.325870653233034,36.99992478621099 -15.325870653233029,36.99992478621099 -36.99992478621099,15.325870653233036 -36.99992478621099,-15.325870653233027 -15.325870653233054,-36.999924786210975 15.32587065323304,-36.99992478621098 36.999924786210975,-15.325870653233055" id="tool-D11-pad-1058"/><g fill="currentColor" stroke="currentColor" id="top-tsm_3"><path stroke-width="0" fill="none" d="M 33 15 L 33 614.5 L 732.2 614.5 L 732.2 15 L 33 15"/><use x="83" y="64.5" xlink:href="#tool-D11-pad-1058"/><use x="183" y="64.5" xlink:href="#tool-D11-pad-1058"/><use x="283" y="64.5" xlink:href="#tool-D11-pad-1058"/><use x="383" y="64.5" xlink:href="#tool-D11-pad-1058"/><use x="483" y="64.5" xlink:href="#tool-D11-pad-1058"/><use x="583" y="64.5" xlink:href="#tool-D11-pad-1058"/><use x="683" y="64.5" xlink:href="#tool-D11-pad-1058"/><use x="683" y="564.5" xlink:href="#tool-D11-pad-1058"/><use x="583" y="564.5" xlink:href="#tool-D11-pad-1058"/><use x="483" y="564.5" xlink:href="#tool-D11-pad-1058"/><use x="383" y="564.5" xlink:href="#tool-D11-pad-1058"/><use x="283" y="564.5" xlink:href="#tool-D11-pad-1058"/><use x="183" y="564.5" xlink:href="#tool-D11-pad-1058"/><use x="83" y="564.5" xlink:href="#tool-D11-pad-1058"/></g><circle cx="0" cy="0" r="6.9" id="tool-T1-pad-1059"/><circle cx="0" cy="0" r="20" id="tool-T2-pad-1060"/><g fill="currentColor" stroke="currentColor" id="top-drl_4"><use x="233" y="251" xlink:href="#tool-T1-pad-1059"/><use x="283" y="251" xlink:href="#tool-T1-pad-1059"/><use x="333" y="240.5" xlink:href="#tool-T1-pad-1059"/><use x="383" y="251" xlink:href="#tool-T1-pad-1059"/><use x="433" y="238.5" xlink:href="#tool-T1-pad-1059"/><use x="483" y="251" xlink:href="#tool-T1-pad-1059"/><use x="533" y="253" xlink:href="#tool-T1-pad-1059"/><use x="433" y="102.5" xlink:href="#tool-T1-pad-1059"/><use x="433" y="515" xlink:href="#tool-T1-pad-1059"/><use x="333" y="527.5" xlink:href="#tool-T1-pad-1059"/><use x="233" y="515" xlink:href="#tool-T1-pad-1059"/><use x="133" y="515" xlink:href="#tool-T1-pad-1059"/><use x="533" y="515" xlink:href="#tool-T1-pad-1059"/><use x="633" y="527.5" xlink:href="#tool-T1-pad-1059"/><use x="83" y="564.5" xlink:href="#tool-T2-pad-1060"/><use x="183" y="564.5" xlink:href="#tool-T2-pad-1060"/><use x="283" y="564.5" xlink:href="#tool-T2-pad-1060"/><use x="383" y="564.5" xlink:href="#tool-T2-pad-1060"/><use x="483" y="564.5" xlink:href="#tool-T2-pad-1060"/><use x="583" y="564.5" xlink:href="#tool-T2-pad-1060"/><use x="683" y="564.5" xlink:href="#tool-T2-pad-1060"/><use x="683" y="64.5" xlink:href="#tool-T2-pad-1060"/><use x="583" y="64.5" xlink:href="#tool-T2-pad-1060"/><use x="483" y="64.5" xlink:href="#tool-T2-pad-1060"/><use x="383" y="64.5" xlink:href="#tool-T2-pad-1060"/><use x="283" y="64.5" xlink:href="#tool-T2-pad-1060"/><use x="183" y="64.5" xlink:href="#tool-T2-pad-1060"/><use x="83" y="64.5" xlink:href="#tool-T2-pad-1060"/></g><mask id="top-sm_5" color="#fff"><use xlink:href="#top-tcu_0"/></mask><mask id="top-sm_6" color="#000"><rect class="Board--cover" fill="#fff" x="33" y="15" width="699.2" height="599.5"/><use xlink:href="#top-tsm_3"/></mask><mask id="top-mech_7" color="#000"><rect class="Board--cover" fill="#fff" x="33" y="15" width="699.2" height="599.5"/><use xlink:href="#top-drl_4"/></mask></defs><g transform="translate(0,629.5) scale(1,-1)" mask="url(#top-mech_7)"><rect class="Board--board" fill="currentColor" x="33" y="15" width="699.2" height="599.5"/><use class="Board--cu" xlink:href="#top-tcu_0"/><use class="Board--cf" mask="url(#top-sm_5)" xlink:href="#top-tsm_3"/><g mask="url(#top-sm_6)"><rect class="Board--sm" fill="currentColor" x="33" y="15" width="699.2" height="599.5"/><use class="Board--ss" xlink:href="#top-tss_1"/></g><use class="Board--sp" xlink:href="#top-tsp_2"/></g></svg>